<?xml version="1.0" encoding="UTF-8"?><svg xmlns="http://www.w3.org/2000/svg" xmlns:xlink="http://www.w3.org/1999/xlink" viewBox="0 0 1352.73 174.39"><defs><style>.am{fill:url(#u);}.an{fill:url(#t);}.ao{fill:url(#v);}.ap{fill:url(#p);}.aq{fill:url(#o);}.ar{fill:url(#s);}.as{fill:url(#q);}.at{fill:url(#r);}.au{fill:url(#i);}.av{fill:url(#h);}.aw{fill:url(#k);}.ax{fill:url(#j);}.ay{fill:url(#m);}.b`{fill:url(#l);}.ba{fill:url(#n);}.bb{fill:url(#x);}.bc{fill:url(#w);}.bd{fill:url(#y);}.be{fill:url(#aa);}.bf{fill:url(#ag);}.bg{fill:url(#ab);}.bh{fill:url(#ah);}.bi{fill:url(#ai);}.bj{fill:url(#ad);}.bk{fill:url(#aj);}.bl{fill:url(#ae);}.bm{fill:url(#af);}.bn{fill:url(#a`);}.bo{fill:url(#al);}.bp{fill:url(#ac);}.bq{fill:url(#ak);}.br{fill:#4e9ed7;}.bs{fill:url(#g);}.bs,.bt,.bu,.bv{isolation:isolate;}.bt{fill:url(#f);}.bu{fill:url(#e);}.bv{fill:url(#d);}</style><linearGradient id="d" x1="180.01" y1="54.67" x2="5.73" y2="54.67" gradientTransform="matrix(1, 0, 0, 1, 0, 0)" gradientUnits="userSpaceOnUse"><stop offset="0" stop-color="#5ec3da"/><stop offset=".3" stop-color="#5cc0d8"/><stop offset=".52" stop-color="#57b6d3"/><stop offset=".71" stop-color="#4ea7cb"/><stop offset=".88" stop-color="#4191bf"/><stop offset="1" stop-color="#367db5"/></linearGradient><linearGradient id="e" x1="14.79" y1="37.02" x2="114.44" y2="37.02" xlink:href="#d"/><linearGradient id="f" x1="48.67" y1="50.86" x2="97.76" y2="50.86" xlink:href="#d"/><linearGradient id="g" x1="76.44" y1="58.69" x2="97.68" y2="58.69" xlink:href="#d"/><linearGradient id="h" x1="77.03" y1="54.67" x2="183.83" y2="54.67" gradientTransform="matrix(1, 0, 0, 1, 0, 0)" gradientUnits="userSpaceOnUse"><stop offset="0" stop-color="#5ec3da"/><stop offset=".13" stop-color="#50abcd"/><stop offset=".28" stop-color="#4496c2"/><stop offset=".46" stop-color="#3c88ba"/><stop offset=".67" stop-color="#377fb6"/><stop offset="1" stop-color="#367db5"/></linearGradient><linearGradient id="i" x1="0" y1="119.39" x2="174.28" y2="119.39" gradientTransform="matrix(1, 0, 0, 1, 0, 0)" gradientUnits="userSpaceOnUse"><stop offset="0" stop-color="#f6b1a1"/><stop offset=".24" stop-color="#f5aaa1"/><stop offset=".58" stop-color="#f298a3"/><stop offset=".97" stop-color="#ee7ba6"/><stop offset="1" stop-color="#ee79a7"/></linearGradient><linearGradient id="j" x1="65.57" y1="137.04" x2="165.22" y2="137.04" xlink:href="#i"/><linearGradient id="k" x1="82.25" y1="123.2" x2="131.34" y2="123.2" xlink:href="#i"/><linearGradient id="l" x1="82.33" y1="115.37" x2="103.57" y2="115.37" xlink:href="#i"/><linearGradient id="m" x1="-1892.1" y1="5632.51" x2="-1785.31" y2="5632.51" gradientTransform="translate(-1789.11 5751.87) rotate(-180)" gradientUnits="userSpaceOnUse"><stop offset="0" stop-color="#f6b1a1"/><stop offset=".21" stop-color="#f29ba3"/><stop offset=".46" stop-color="#f088a5"/><stop offset=".73" stop-color="#ee7ca6"/><stop offset="1" stop-color="#ee79a7"/></linearGradient><linearGradient id="n" x1="213.77" y1="85.94" x2="368.99" y2="85.94" gradientTransform="matrix(1, 0, 0, 1, 0, 0)" gradientUnits="userSpaceOnUse"><stop offset="0" stop-color="#1c1d1d"/><stop offset=".14" stop-color="#1e2020"/><stop offset=".55" stop-color="#202323"/><stop offset="1" stop-color="#151717"/></linearGradient><linearGradient id="o" x1="734.63" y1="153.77" x2="644.93" y2="64.07" gradientTransform="matrix(1, 0, 0, 1, 0, 0)" gradientUnits="userSpaceOnUse"><stop offset="0" stop-color="#1c1d1d"/><stop offset=".04" stop-color="#1c1d1d"/><stop offset=".48" stop-color="#202323"/><stop offset=".5" stop-color="#1e2121"/><stop offset=".68" stop-color="#171919"/><stop offset="1" stop-color="#151717"/></linearGradient><linearGradient id="p" x1="760.35" y1="85.94" x2="916.54" y2="85.94" gradientTransform="matrix(1, 0, 0, 1, 0, 0)" gradientUnits="userSpaceOnUse"><stop offset="0" stop-color="#1c1d1d"/><stop offset=".47" stop-color="#202323"/><stop offset=".5" stop-color="#1c1f1f"/><stop offset=".63" stop-color="#161818"/><stop offset="1" stop-color="#151717"/></linearGradient><linearGradient id="q" x1="1173.95" y1="151.91" x2="1085.24" y2="63.2" xlink:href="#o"/><linearGradient id="r" x1="524.33" y1="171.2" x2="524.33" y2="36.59" gradientTransform="translate(799.99) rotate(-180) scale(1 -1)" gradientUnits="userSpaceOnUse"><stop offset="0" stop-color="#1c1d1d"/><stop offset=".47" stop-color="#202323"/><stop offset=".48" stop-color="#1f2222"/><stop offset=".68" stop-color="#171919"/><stop offset="1" stop-color="#151717"/></linearGradient><linearGradient id="s" x1="342.21" y1="155.89" x2="478.19" y2="77.38" gradientTransform="matrix(1, 0, 0, 1, 0, 0)" gradientUnits="userSpaceOnUse"><stop offset="0" stop-color="#1c1d1d"/><stop offset=".11" stop-color="#1e2121"/><stop offset=".52" stop-color="#202323"/><stop offset=".82" stop-color="#1d2020"/><stop offset=".98" stop-color="#161818"/><stop offset="1" stop-color="#151717"/></linearGradient><linearGradient id="t" x1="383.72" y1="166.93" x2="383.72" y2="84.19" gradientTransform="matrix(1, 0, 0, 1, 0, 0)" gradientUnits="userSpaceOnUse"><stop offset="0" stop-color="#1c1d1d"/><stop offset=".01" stop-color="#1c1d1d"/><stop offset=".13" stop-color="#202323"/><stop offset=".36" stop-color="#1c1e1e"/><stop offset="1" stop-color="#151717"/></linearGradient><linearGradient id="u" x1="355.17" y1="171.39" x2="406.88" y2="119.68" gradientTransform="matrix(1, 0, 0, 1, 0, 0)" xlink:href="#r"/><linearGradient id="v" x1="380.94" y1="135.76" x2="429.65" y2="87.05" gradientTransform="matrix(1, 0, 0, 1, 0, 0)" xlink:href="#r"/><linearGradient id="w" x1="435.31" y1="171.57" x2="435.31" y2="52.11" gradientTransform="matrix(1, 0, 0, 1, 0, 0)" gradientUnits="userSpaceOnUse"><stop offset="0" stop-color="#1c1d1d"/><stop offset=".41" stop-color="#1f2121"/><stop offset=".47" stop-color="#202323"/><stop offset=".5" stop-color="#1d2020"/><stop offset=".65" stop-color="#161919"/><stop offset="1" stop-color="#151717"/></linearGradient><linearGradient id="x" x1="919.29" y1="156.69" x2="1055.28" y2="78.18" xlink:href="#s"/><linearGradient id="y" x1="960.8" y1="167.73" x2="960.8" y2="85" xlink:href="#t"/><linearGradient id="a`" x1="917.57" y1="153.26" x2="996.3" y2="153.26" gradientTransform="matrix(1, 0, 0, 1, 0, 0)" gradientUnits="userSpaceOnUse"><stop offset="0" stop-color="#1c1d1d"/><stop offset=".4" stop-color="#1d1e1e"/><stop offset=".51" stop-color="#202323"/><stop offset=".71" stop-color="#191b1b"/><stop offset="1" stop-color="#151717"/></linearGradient><linearGradient id="aa" x1="975.97" y1="162.76" x2="1001.11" y2="137.62" gradientTransform="matrix(1, 0, 0, 1, 0, 0)" xlink:href="#r"/><linearGradient id="ab" x1="958.03" y1="136.56" x2="1006.74" y2="87.85" gradientTransform="matrix(1, 0, 0, 1, 0, 0)" xlink:href="#r"/><linearGradient id="ac" x1="1012.4" y1="172.38" x2="1012.4" y2="52.91" xlink:href="#w"/><linearGradient id="ad" x1="529.68" y1="142.21" x2="533.78" y2="138.12" gradientTransform="matrix(1, 0, 0, 1, 0, 0)" gradientUnits="userSpaceOnUse"><stop offset="0" stop-color="#1c1d1d"/><stop offset=".52" stop-color="#202323"/><stop offset=".72" stop-color="#171919"/><stop offset="1" stop-color="#151717"/></linearGradient><linearGradient id="ae" x1="480.37" y1="85.94" x2="632.58" y2="85.94" xlink:href="#ad"/><linearGradient id="af" x1="579.28" y1="171.57" x2="579.28" y2="99.58" gradientTransform="matrix(1, 0, 0, 1, 0, 0)" gradientUnits="userSpaceOnUse"><stop offset="0" stop-color="#1c1d1d"/><stop offset=".02" stop-color="#1c1d1d"/><stop offset=".28" stop-color="#202323"/><stop offset=".33" stop-color="#1c1f1f"/><stop offset=".51" stop-color="#161818"/><stop offset="1" stop-color="#151717"/></linearGradient><linearGradient id="ag" x1="1200.52" y1="85.94" x2="1352.73" y2="85.94" xlink:href="#ad"/><linearGradient id="ah" x1="1299.43" x2="1299.43" xlink:href="#af"/><linearGradient id="ai" x1="685.93" y1="43.28" x2="685.93" y2="173.91" gradientTransform="matrix(1, 0, 0, 1, 0, 0)" gradientUnits="userSpaceOnUse"><stop offset="0" stop-color="#1c1d1d"/><stop offset=".04" stop-color="#1c1d1d"/><stop offset=".47" stop-color="#202323"/><stop offset=".59" stop-color="#1c1f1f"/><stop offset="1" stop-color="#151717"/></linearGradient><linearGradient id="aj" x1="1126.25" y1="43.39" x2="1126.25" y2="174.03" xlink:href="#ai"/><linearGradient id="ak" x1="891.12" y1="82.93" x2="833.37" y2="25.18" gradientTransform="matrix(1, 0, 0, 1, 0, 0)" gradientUnits="userSpaceOnUse"><stop offset="0" stop-color="#1c1d1d"/><stop offset=".1" stop-color="#1e2121"/><stop offset=".47" stop-color="#202323"/><stop offset=".69" stop-color="#181b1b"/><stop offset="1" stop-color="#151717"/></linearGradient><linearGradient id="al" x1="885.56" y1="160.6" x2="833.86" y2="108.9" gradientTransform="matrix(1, 0, 0, 1, 0, 0)" gradientUnits="userSpaceOnUse"><stop offset="0" stop-color="#1c1d1d"/><stop offset=".1" stop-color="#1e2121"/><stop offset=".47" stop-color="#202323"/><stop offset="1" stop-color="#151717"/></linearGradient></defs><g id="a"/><g id="b"><g id="c"><g><g><path d="M8.32,18.47C15.06,15.86,72.64-7.78,116.8,2.63c19.28,4.54,36.01,15.58,44.84,37.69,2.08,5.21,4.14,10.71,6.15,16.4,1.76,4.97,3.48,10.09,5.15,15.29h0c1.64,5.12,3.23,10.32,4.76,15.53,.79,2.68,1.55,5.36,2.3,8.05h0c-2.94,8.2-8.63,13.75-15.17,13.75-3,0-5.82-1.17-8.28-3.23-1.75-8.62-3.74-17.57-6.02-26.39-.58-2.23-1.17-4.45-1.79-6.65-.76-2.74-1.56-5.46-2.39-8.14-1.45-4.67-3-9.22-4.67-13.56-6.89-17.97-15.7-32.49-27.25-38-6.95-3.32-14.89-3.38-23.99,1.04-21.68,10.53-38.44,15.72-51.11,17.66C7.28,36.99,1.38,21.15,8.32,18.47Z" style="fill:#4e9ed7;"/><path d="M180.01,95.59h0c-2.94,8.2-8.63,13.75-15.17,13.75-3,0-5.82-1.17-8.28-3.23-1.75-8.62-3.74-17.57-6.02-26.39-.58-2.23-1.17-4.45-1.79-6.65-.76-2.74-1.56-5.46-2.39-8.14-1.45-4.67-3-9.22-4.67-13.56-5.14-13.41-11.36-24.9-18.98-32.16,0,0,0,0-.01-.01-2.59-2.46-5.33-4.43-8.25-5.82-6.95-3.32-14.89-3.38-23.99,1.04-21.68,10.53-38.44,15.72-51.11,17.66C7.28,36.99,1.38,21.15,8.32,18.47,12.95,16.68,41.49,5,73.22,1.19c14.53-1.74,29.72-1.83,43.59,1.44,19.28,4.54,36.01,15.58,44.84,37.69,2.08,5.21,4.14,10.71,6.15,16.4,1.76,4.97,3.48,10.09,5.15,15.29h0c1.64,5.12,3.23,10.32,4.76,15.53,.79,2.68,1.55,5.36,2.3,8.05Z" style="fill:url(#d); isolation:isolate;"/><path d="M16.4,50.54c2.2-1.69,10.72-8.45,22.94-16.29,11.32-1.74,25.9-6.06,44.33-14.46,2.2-1.01,4.47-2.07,6.78-3.2,3.43-1.67,6.69-2.69,9.81-3.15,5.14-.76,9.85,.04,14.18,2.11-5.57-.37-11.15,1.15-16.67,5.05-1.23,.86-2.46,1.85-3.68,2.97-14.36,13.04-26.64,21.86-36.94,27.64-34.87,19.55-47.09,4.22-40.73-.66Z" style="fill:url(#e); isolation:isolate;"/><path d="M49,72.53c.85-2.09,3.6-9.24,8.14-18.83,8.11-4.55,17.44-10.98,28.05-19.87,2.87-2.4,5.83-4.99,8.89-7.76,.56-.51,1.13-1,1.69-1.46,.66-.54,1.33-1.04,1.99-1.51-.53,1.44-1.05,2.85-1.58,4.23-6.6,17.16-13.41,28.97-19.74,36.89-16.67,20.85-30.04,14.74-27.44,8.31Z" style="fill:url(#f); isolation:isolate;"/><path d="M76.44,68.99c6.34-7.92,13.15-19.73,19.74-36.89,7.54,52.65-15.66,58.58-17.36,49.89-.33-1.67-1.31-6.32-2.38-13Z" style="fill:url(#g); isolation:isolate;"/><path d="M180.01,95.59h0c-2.94,8.2-8.63,13.75-15.17,13.75-3,0-5.82-1.17-8.28-3.23-1.75-8.62-3.74-17.57-6.02-26.39-.58-2.23-1.17-4.45-1.79-6.65-.76-2.74-1.56-5.46-2.39-8.14-1.45-4.67-3-9.22-4.67-13.56-5.14-13.41-11.36-24.9-18.98-32.16,0,0,0,0-.01-.01C110.24,5.89,73.22,1.19,73.22,1.19c14.53-1.74,29.72-1.83,43.59,1.44,19.28,4.54,36.01,15.58,44.84,37.69,2.08,5.21,4.14,10.71,6.15,16.4,1.76,4.97,3.48,10.09,5.15,15.29h0c1.64,5.12,3.23,10.32,4.76,15.53,.79,2.68,1.55,5.36,2.3,8.05Z" style="fill:url(#h);"/><g><path d="M171.69,155.59c-6.74,2.61-64.31,26.25-108.48,15.83-19.28-4.54-36.01-15.58-44.84-37.69-2.08-5.21-4.14-10.71-6.15-16.4-1.76-4.97-3.48-10.09-5.15-15.29h0c-1.64-5.12-3.23-10.32-4.76-15.53-.79-2.68-1.55-5.36-2.3-8.05H0c2.94-8.2,8.63-13.75,15.17-13.75,3,0,5.82,1.17,8.28,3.23,1.75,8.62,3.74,17.57,6.02,26.39,.58,2.23,1.17,4.45,1.79,6.65,.76,2.74,1.56,5.46,2.39,8.14,1.45,4.67,3,9.22,4.67,13.56,6.89,17.97,15.7,32.49,27.25,38,6.95,3.32,14.89,3.38,23.99-1.04,21.68-10.53,38.44-15.72,51.11-17.66,32.06-4.92,37.96,10.92,31.02,13.6Z" style="fill:url(#i);"/><path d="M163.61,123.51c-2.2,1.69-10.72,8.45-22.94,16.29-11.32,1.74-25.9,6.06-44.33,14.46-2.2,1.01-4.47,2.07-6.78,3.2-3.43,1.67-6.69,2.69-9.81,3.15-5.14,.76-9.85-.04-14.18-2.11,5.57,.37,11.15-1.15,16.67-5.05,1.23-.86,2.46-1.85,3.68-2.97,14.36-13.04,26.64-21.86,36.94-27.64,34.87-19.55,47.09-4.22,40.73,.66Z" style="fill:url(#j);"/><path d="M131.01,101.53c-.85,2.09-3.6,9.24-8.14,18.83-8.11,4.55-17.44,10.98-28.05,19.87-2.87,2.4-5.83,4.99-8.89,7.76-.56,.51-1.13,1-1.69,1.46-.66,.54-1.33,1.04-1.99,1.51,.53-1.44,1.05-2.85,1.58-4.23,6.6-17.16,13.41-28.97,19.74-36.89,16.67-20.85,30.04-14.74,27.44-8.31Z" style="fill:url(#k);"/><path d="M103.57,105.07c-6.34,7.92-13.15,19.73-19.74,36.89-7.54-52.65,15.66-58.58,17.36-49.89,.33,1.67,1.31,6.32,2.38,13Z" style="fill:url(#l);"/><path d="M.01,78.44H.01c2.94-8.2,8.63-13.75,15.17-13.75,3,0,5.82,1.17,8.28,3.23,1.75,8.62,3.74,17.57,6.02,26.39,.58,2.23,1.17,4.45,1.79,6.65,.76,2.74,1.56,5.46,2.39,8.14,1.45,4.67,3,9.22,4.67,13.56,5.14,13.41,11.36,24.9,18.98,32.16,0,0,0,0,.01,.01,12.44,13.3,49.47,18,49.47,18-14.53,1.74-29.72,1.83-43.59-1.44-19.28-4.54-36.01-15.58-44.84-37.69-2.08-5.21-4.14-10.71-6.15-16.4-1.76-4.97-3.48-10.09-5.15-15.29h0c-1.64-5.12-3.23-10.32-4.76-15.53-.79-2.68-1.55-5.36-2.3-8.05Z" style="fill:url(#m);"/></g></g><path d="M220.13,.3l-6.36,37.47h51.52l-2.6,15.71-19.48,118.09h45.83l22.08-133.81h51.51L368.99,.3H220.13Z" style="fill:url(#n);"/><path d="M700.15,41.44c-6.14,0-12.04,.63-17.65,1.84-30.79,6.63-52.97,30.73-58.62,64.4-7.02,41.48,14.05,66.24,55.19,66.24,35.8,0,61.22-17.06,70.26-43.82h-42.15c-.15,.28-.31,.55-.48,.83,0,0,0,.02-.02,.02-2.99,4.88-7.98,8.17-13.87,9.64-2.34,.59-4.82,.88-7.38,.88-.19,0-.39,0-.57-.02-6.97-.12-11.97-2.63-14.87-6.74-2.56-3.6-3.49-8.44-2.72-13.98,0,0,0-.02,0-.04,0-.03,0-.07,.02-.11,0-.07,.02-.17,.04-.3,0-.07,.02-.15,.03-.22,0-.02,0-.03,0-.06,.43-2.88,2.07-13.7,3.72-21.94,.47-2.32,1.04-4.39,1.64-6.16,.63-2.41,1.59-4.64,2.84-6.64,.09-.15,.14-.23,.14-.23,4.38-6.91,12.05-11.13,20.42-11.13,11.37,0,18.4,7.69,16.73,18.74h-37.68l-5.91,25.42h82.06l1.67-10.71c6.69-40.81-14.05-65.91-52.85-65.91Z" style="fill:url(#o);"/><path d="M876.44,80.58c20.41-4.01,36.13-18.73,39.47-37.46,2.73-16.4-3.38-29.1-18.02-36.26-8.65-4.25-20.29-6.56-34.83-6.56h-74.27l-28.44,171.28h80.62c37.13,0,63.56-20.41,68.25-48.51,3.14-18.89-5.43-32.83-19.92-38.31-.8-.31-1.62-.58-2.45-.82-.02,0-.03,0-.05-.02-.4-.11-.81-.23-1.23-.34-.05-.02-.1-.02-.14-.04-.31-.08-.61-.16-.92-.23-2.66-.62-5.47-.98-8.41-1.07l.02-.1,.32-1.58Zm-58.38,23.08l.03-.18,.81-5.17h.06l7.04-41.56,.03-.19,1.08-6.58v-.02l2.15-13.2h19.74c11.37,0,19.06,5.68,17.39,16.39-1.67,10.37-11.37,16.4-23.41,16.4h-17.71l-4.62,28.77h20.66c1.33,0,2.6,.06,3.81,.18,.68,.06,1.33,.14,1.98,.24,5.07,.78,8.9,2.68,11.3,5.58t0,0c2.58,3.12,3.53,7.4,2.64,12.73-1.67,11.37-10.71,17.39-26.09,17.39h-21.75l4.85-30.78Z" style="fill:url(#p);"/><path d="M1193.55,96.64c5.35-33.45-14.72-55.2-52.52-55.2-41.82,0-71.25,26.76-77.61,66.24-6.69,39.48,13.71,66.24,55.53,66.24,38.14,0,64.9-21.74,71.25-55.86h-42.82c-3.34,13.38-11.71,20.74-22.08,20.74-12.04,0-18.07-10.37-14.72-31.44,3.34-21.07,13.04-31.45,25.42-31.45,10.03,0,15.72,7.36,14.72,20.74h42.82Z" style="fill:url(#q);"/><path d="M265.21,37.78l-21.7,133.42h45.81l18.49-113.33c-2.52-13.29-11.45-21.27-22.71-21.27-12.08,0-19.89,1.18-19.89,1.18Z" style="fill:url(#r);"/><g><path d="M471.73,67.1c-5.52-15.26-23.49-25.66-50.89-25.66-38.47,0-60.88,20.08-66.24,43.49h42.49c2.34-8.03,9.03-11.67,17.73-11.71,18.37-.08,13.39,20.24,12.92,24.59-.76,7.05-9.52,56-9.81,57.06,0,0,0,.02,0,.02l-2.78,16.68h43.15l14.72-87.98c1-5.89,.53-11.46-1.29-16.49Zm-53.2,64.22c-1.4,4.61-3.41,14.92-15.84,24.18-3.61,2.7-8.09,5.3-13.7,7.66-17.87,7.49-44.21,5.63-48.34-22.5-1.84,22.31,13.12,32.92,36.04,32.92,10.13,0,19.15-2.08,26.91-6.93,5.01-3.1,9.48-7.36,13.41-12.93,2.9-10.83,2.41-18.19,1.53-22.4Zm-19.69-23.61c-10.91,4.93-20.6,10.14-19.5,20.09,1.12,10.1,7.51,13.41,8.01,13.65-1.94-1.88-2.8-4.59-2.31-8.01,.92-6.08,5.69-10.77,14.84-12.84,.92-.21,1.88-.39,2.89-.55,3.19-.58,6.25-1.16,9.1-1.79,3.04-.68,5.73-2.42,7.63-4.89l.03-.05c6.17-8.08,7.17-22.34,7.27-29.14-.46,12.31-15.06,17.71-27.96,23.52Z" style="fill:url(#s);"/><path d="M379.34,127.79c1.12,10.1,7.51,13.41,8.01,13.65,0,0,0,0,.02,0,2.03,1.98,5.27,3.03,9.39,3.03,8.7,0,17.88-4.72,21.78-13.16-1.8,5.94-4.63,21.39-29.55,31.84-17.87,7.49-44.21,5.63-48.34-22.5,.11-1.46,.31-2.98,.58-4.55,4.69-28.1,27.09-38.8,53.86-40.81,21.48-1.65,30.22-3.95,31.72-11.11-.84,22.71-49.87,21.9-47.46,43.6Z" style="fill:url(#t);"/><path d="M413.89,157.72s.05-.06,.08-.09c.48-.56,.95-1.15,1.42-1.75,.08-.1,.16-.21,.24-.31,.46-.6,.92-1.22,1.37-1.85,2.9-10.83,2.41-18.19,1.53-22.4-.06,.18-.11,.38-.17,.58v.02c-.21,.71-.44,1.53-.71,2.44l-.04,.14c-.05,.16-.1,.32-.15,.48-.03,.08-.05,.16-.08,.25-.05,.16-.1,.31-.15,.47-.03,.09-.06,.18-.09,.28-.09,.26-.18,.53-.28,.8-.05,.13-.09,.26-.14,.39-.05,.14-.11,.28-.16,.43-.05,.14-.1,.27-.16,.41-.06,.14-.11,.29-.17,.43-.06,.15-.13,.31-.19,.47-.06,.13-.11,.26-.17,.4-.12,.27-.24,.54-.36,.81-.06,.13-.13,.27-.19,.4-.08,.17-.16,.34-.25,.51-.07,.14-.14,.29-.22,.43-.09,.17-.18,.34-.27,.52-.08,.14-.15,.29-.23,.43-.14,.25-.28,.5-.43,.76-.1,.17-.2,.34-.31,.52-.11,.19-.23,.38-.35,.57-.1,.16-.2,.32-.31,.48-.11,.16-.21,.33-.32,.49-.11,.17-.23,.34-.35,.51-.11,.16-.23,.32-.35,.49-.23,.32-.47,.64-.71,.96-.11,.14-.22,.28-.33,.43-.16,.2-.32,.4-.49,.6-.1,.13-.21,.25-.32,.38-.18,.21-.36,.42-.54,.63-.09,.11-.19,.21-.29,.32-.71,.79-1.49,1.59-2.33,2.39-.03,.02-.05,.05-.08,.07-.29,.27-.59,.55-.9,.82-.03,.03-.07,.06-.1,.09-.98,.87-2.03,1.73-3.18,2.58h0c-3.61,2.7-8.09,5.31-13.7,7.66-17.87,7.49-44.21,5.63-48.34-22.5-1.84,22.31,13.12,32.92,36.04,32.92,11.7,0,21.93-2.79,30.45-9.39,.07-.05,.13-.1,.2-.15,.55-.43,1.09-.87,1.63-1.34,.04-.04,.09-.08,.13-.11,.5-.43,.99-.88,1.47-1.34,.07-.07,.14-.13,.21-.2,.51-.49,1.01-1,1.5-1.52,.07-.07,.14-.15,.2-.22,.48-.51,.95-1.04,1.42-1.58Z" style="fill:url(#u);"/><path d="M426.72,85.29c-.01,.11-.03,.23-.05,.34-.03,.24-.06,.48-.11,.72-.02,.13-.06,.27-.08,.4-.04,.21-.09,.42-.14,.62-.04,.14-.08,.28-.12,.42-.06,.19-.11,.38-.18,.57-.05,.14-.1,.28-.15,.42-.07,.18-.14,.36-.21,.54-.06,.14-.12,.28-.18,.41-.08,.17-.16,.34-.24,.51-.07,.14-.14,.27-.21,.41-.09,.16-.18,.33-.28,.49-.08,.13-.16,.27-.24,.4-.1,.16-.2,.31-.31,.47-.09,.13-.17,.26-.27,.39-.11,.15-.22,.3-.34,.45-.1,.12-.19,.25-.29,.37-.12,.15-.25,.3-.37,.44-.1,.12-.2,.24-.31,.36-.13,.15-.27,.29-.41,.43-.11,.11-.21,.23-.32,.34-.16,.16-.33,.32-.5,.48-.2,.19-.4,.38-.61,.56-.15,.14-.3,.27-.46,.4-.14,.12-.29,.24-.44,.36-.14,.11-.28,.23-.42,.34-.15,.12-.31,.24-.47,.36-.14,.11-.28,.22-.43,.32-.16,.12-.33,.24-.49,.35-.15,.1-.29,.21-.44,.31-.17,.12-.34,.23-.52,.35-.15,.1-.3,.2-.45,.3-.18,.11-.36,.23-.53,.34-.15,.1-.31,.19-.47,.29-.18,.11-.36,.22-.55,.33-.16,.1-.32,.19-.49,.29-.18,.11-.37,.21-.55,.32-.17,.1-.34,.19-.52,.29-.18,.1-.36,.2-.54,.3-.19,.1-.38,.2-.57,.3-.17,.09-.34,.18-.51,.27-.22,.11-.44,.23-.66,.34-.14,.07-.29,.15-.43,.22-.31,.16-.62,.31-.93,.46-.06,.03-.12,.06-.18,.09-3.54,1.73-7.3,3.33-10.92,4.96h0c-10.91,4.92-20.6,10.14-19.5,20.09,1.12,10.1,7.51,13.41,8.01,13.65-1.94-1.88-2.8-4.59-2.31-8.01,.93-6.18,5.87-10.93,15.33-12.94,.21-.05,.42-.09,.63-.13,.58-.11,1.16-.22,1.77-.31,3.19-.58,6.25-1.16,9.1-1.79,3.04-.68,5.73-2.42,7.63-4.89l.03-.05c6.17-8.08,7.17-22.34,7.27-29.14-.01,.37-.04,.73-.08,1.09Z" style="fill:url(#v);"/><path d="M473.02,83.6l-14.72,87.98h-43.15l2.78-16.68s0-.02,0-.02c.28-1.05,9.04-50.01,9.81-57.06,.47-4.36,5.45-24.67-12.92-24.59-8.7,.04-15.39,3.68-17.73,11.71,.65-2.86,7.12-28.09,32.89-31.88,21.1-3.1,35.59,1.45,41.75,14.06,1.82,5.03,2.29,10.6,1.29,16.49Z" style="fill:url(#w);"/></g><g><path d="M1048.81,67.91c-5.52-15.26-23.49-25.66-50.89-25.66-38.47,0-60.88,20.08-66.24,43.49h42.49c2.34-8.03,9.03-11.67,17.73-11.71,18.37-.08,13.39,20.24,12.92,24.59-.76,7.05-9.52,56-9.81,57.06,0,0,0,.02,0,.02l-2.78,16.68h43.15l14.72-87.98c1-5.89,.53-11.46-1.29-16.49Zm-53.2,64.22c-1.4,4.61-3.41,14.92-15.84,24.18-3.61,2.7-8.09,5.3-13.7,7.66-17.87,7.49-44.21,5.63-48.34-22.5-1.84,22.31,13.12,32.92,36.04,32.92,10.13,0,19.15-2.08,26.91-6.93,5.01-3.1,9.48-7.36,13.41-12.93,2.9-10.83,2.41-18.19,1.53-22.4Zm-19.69-23.61c-10.91,4.93-20.6,10.14-19.5,20.09,1.12,10.1,7.51,13.41,8.01,13.65-1.94-1.88-2.8-4.59-2.31-8.01,.92-6.08,5.69-10.77,14.84-12.84,.92-.21,1.88-.39,2.89-.55,3.19-.58,6.25-1.16,9.1-1.79,3.04-.68,5.73-2.42,7.63-4.89l.03-.05c6.17-8.08,7.17-22.34,7.27-29.14-.46,12.31-15.06,17.71-27.96,23.52Z" style="fill:url(#x);"/><path d="M956.42,128.6c1.12,10.1,7.51,13.41,8.01,13.65,0,0,0,0,.02,0,2.03,1.98,5.27,3.03,9.39,3.03,8.7,0,17.88-4.72,21.78-13.16-1.8,5.94-4.63,21.39-29.55,31.84-17.87,7.49-44.21,5.63-48.34-22.5,.11-1.46,.31-2.98,.58-4.55,4.69-28.1,27.09-38.8,53.86-40.81,21.48-1.65,30.22-3.95,31.72-11.11-.84,22.71-49.87,21.9-47.46,43.6Z" style="fill:url(#y);"/><path d="M994.09,154.53c-10.02,14.23-23.68,19.86-40.32,19.86-22.92,0-37.88-10.61-36.04-32.92,4.14,28.12,30.48,29.99,48.34,22.5,24.92-10.45,27.75-25.9,29.55-31.84,.88,4.21,1.37,11.57-1.53,22.4Z" style="fill:url(#a`);"/><path d="M994.09,154.53c-3.93,5.57-8.41,9.83-13.41,12.93l-.9-11.16c12.43-9.26,14.44-19.57,15.84-24.18,.88,4.21,1.37,11.57-1.53,22.4Z" style="fill:url(#aa);"/><path d="M1003.8,86.09c-.01,.11-.03,.23-.05,.34-.03,.24-.06,.48-.11,.72-.02,.13-.06,.27-.08,.4-.04,.21-.09,.42-.14,.62-.04,.14-.08,.28-.12,.42-.06,.19-.11,.38-.18,.57-.05,.14-.1,.28-.15,.42-.07,.18-.14,.36-.21,.54-.06,.14-.12,.28-.18,.41-.08,.17-.16,.34-.24,.51-.07,.14-.14,.27-.21,.41-.09,.16-.18,.33-.28,.49-.08,.13-.16,.27-.24,.4-.1,.16-.2,.31-.31,.47-.09,.13-.17,.26-.27,.39-.11,.15-.22,.3-.34,.45-.1,.12-.19,.25-.29,.37-.12,.15-.25,.3-.37,.44-.1,.12-.2,.24-.31,.36-.13,.15-.27,.29-.41,.43-.11,.11-.21,.23-.32,.34-.16,.16-.33,.32-.5,.48-.2,.19-.4,.38-.61,.56-.15,.14-.3,.27-.46,.4-.14,.12-.29,.24-.44,.36-.14,.11-.28,.23-.42,.34-.15,.12-.31,.24-.47,.36-.14,.11-.28,.22-.43,.32-.16,.12-.33,.24-.49,.35-.15,.1-.29,.21-.44,.31-.17,.12-.34,.23-.52,.35-.15,.1-.3,.2-.45,.3-.18,.11-.36,.23-.53,.34-.15,.1-.31,.19-.47,.29-.18,.11-.36,.22-.55,.33-.16,.1-.32,.19-.49,.29-.18,.11-.37,.21-.55,.32-.17,.1-.34,.19-.52,.29-.18,.1-.36,.2-.54,.3-.19,.1-.38,.2-.57,.3-.17,.09-.34,.18-.51,.27-.22,.11-.44,.23-.66,.34-.14,.07-.29,.15-.43,.22-.31,.16-.62,.31-.93,.46-.06,.03-.12,.06-.18,.09-3.54,1.73-7.3,3.33-10.92,4.96h0c-10.91,4.92-20.6,10.14-19.5,20.09,1.12,10.1,7.51,13.41,8.01,13.65-1.94-1.88-2.8-4.59-2.31-8.01,.93-6.18,5.87-10.93,15.33-12.94,.21-.05,.42-.09,.63-.13,.58-.11,1.16-.22,1.77-.31,3.19-.58,6.25-1.16,9.1-1.79,3.04-.68,5.73-2.42,7.63-4.89l.03-.05c6.17-8.08,7.17-22.34,7.27-29.14-.01,.37-.04,.73-.08,1.09Z" style="fill:url(#ab);"/><path d="M1050.11,84.4l-14.72,87.98h-43.15l2.78-16.68s0-.02,0-.02c.28-1.05,9.04-50.01,9.81-57.06,.47-4.36,5.45-24.67-12.92-24.59-8.7,.04-15.39,3.68-17.73,11.71,.65-2.86,7.12-28.09,32.89-31.88,21.1-3.1,35.59,1.45,41.75,14.06,1.82,5.03,2.29,10.6,1.29,16.49Z" style="fill:url(#ac);"/></g><polygon points="532.31 136.65 531.16 143.67 531.15 143.68 532.31 136.65" style="fill:url(#ad);"/><g><path d="M508.8,.3l-28.44,171.28h46.17l4.61-27.9h0l1.16-7.02,.24-1.45,8.12-48.92h0l1.38-8.28,.39-2.31L554.97,.3h-46.17Zm70.83,99.19l52.94-56.37h-51.85l-32.28,38.23c-3.86,4.57-6.08,10.3-6.3,16.28l-.84,22.59c-.16,4.32,.62,8.62,2.27,12.61l2.45,5.91,13.61,32.82h52.86l-32.83-72-.04-.09Z" style="fill:url(#ae);"/><path d="M612.51,171.57h-52.86l-13.61-32.82c.14-1.44,.29-2.95,.47-4.52,2.73-23.52,21.47-31.77,33.16-34.65l32.83,72Z" style="fill:url(#af);"/></g><g><path d="M1228.96,.3l-28.44,171.28h46.17l4.61-27.9h0l1.16-7.02,.24-1.45,8.12-48.92h0l1.38-8.28,.39-2.31L1275.12,.3h-46.17Zm70.83,99.19l52.94-56.37h-51.85l-32.28,38.23c-3.86,4.57-6.08,10.3-6.3,16.28l-.84,22.59c-.16,4.32,.62,8.62,2.27,12.61l2.45,5.91,13.61,32.82h52.86l-32.83-72-.04-.09Z" style="fill:url(#ag);"/><path d="M1332.66,171.57h-52.86l-13.61-32.82c.14-1.44,.29-2.95,.47-4.52,2.73-23.52,21.47-31.77,33.16-34.65l32.83,72Z" style="fill:url(#ah);"/></g><path d="M749.32,130.09c-9.03,26.76-34.46,43.82-70.26,43.82-41.14,0-62.22-24.76-55.19-66.24,5.66-33.66,27.83-57.76,58.62-64.4-39.54,16.2-39.64,60.82-18.64,85.32,2.08,2.43,4.12,4.44,6.12,6.11,2.9,4.11,7.9,6.62,14.87,6.74,2.87,.25,5.53-.13,7.95-.87,5.89-1.47,10.88-4.76,13.87-9.64,0,0,.02-.02,.02-.02,.38-.45,.57-.72,.57-.72l.87-.11h41.19Z" style="fill:url(#ai);"/><path d="M1190.31,118.15c-8.04,37.78-35.8,55.88-71.6,55.88-41.14,0-62.22-24.76-55.19-66.24,5.66-33.66,27.83-57.76,58.62-64.4-58.02,34.57-11,87.56-8.99,89.22,2.9,4.11,8.53,7.9,19.29,4.82,11.25-3.21,15.27-19.29,15.27-19.29h42.6Z" style="fill:url(#aj);"/><path d="M915.91,43.12c-3.34,18.73-19.06,33.45-39.47,37.46l-.34,1.67c4.77,.14,9.21,1,13.2,2.51-12.79,4.29-29.14,9.68-42.2,13.97-1.78-.28-3.71-.42-5.79-.42h-20.66l4.62-28.77h17.71c12.04,0,21.74-6.03,23.41-16.4,1.67-10.71-6.02-16.39-17.39-16.39h-19.74s.17-13.45,21.07-25.51c12.16-7.01,30.4-10.63,47.56-4.4,14.64,7.17,20.75,19.87,18.02,36.26Z" style="fill:url(#ak);"/><path d="M909.22,123.07c-4.69,28.1-31.11,48.51-68.25,48.51h-28.19c23.64-5.53,51.87-16.97,54.42-37.35,1.61-12.86-4.69-25.77-8.8-29.91t0,0c-2.4-2.9-6.23-4.8-11.3-5.58-.64-.1-1.3-.18-1.98-.24,4.89-6.79,14.9-16.86,30.99-16.33,2.63,.08,5.43,.44,8.39,1.17,.31,.06,.61,.14,.92,.23,.05,.02,.1,.02,.14,.04,.42,.1,.83,.22,1.23,.34,.02,0,.03,0,.05,.02,.84,.24,1.66,.51,2.45,.82,14.49,5.47,23.07,19.42,19.92,38.31Z" style="fill:url(#al);"/></g></g></g></svg>