<svg width="333" height="237" viewBox="0 0 333 237" fill="none" xmlns="http://www.w3.org/2000/svg">
<g clip-path="url(#clip0_1522_817)">
<path d="M22.071 237H310.912C311.059 237 311.199 236.942 311.303 236.839C311.406 236.735 311.464 236.595 311.464 236.449C311.464 236.303 311.406 236.162 311.303 236.059C311.199 235.956 311.059 235.898 310.912 235.898H22.071C21.9246 235.898 21.7842 235.956 21.6807 236.059C21.5772 236.162 21.519 236.303 21.519 236.449C21.519 236.595 21.5772 236.735 21.6807 236.839C21.7842 236.942 21.9246 237 22.071 237Z" fill="#CCCCCC"/>
<path d="M77.5658 103.476C60.6733 86.8707 53.5387 69.5471 57.4757 54.6969C62.5282 35.6398 84.9737 22.4635 119.057 18.5464L119.183 19.6395C85.5741 23.5018 63.4709 36.3825 58.5409 54.9784C54.7093 69.4305 61.7403 86.3757 78.3389 102.692L77.5658 103.476Z" fill="#F0F0F0"/>
<path d="M240.55 162.42C219.467 162.42 196.557 159.292 173.8 153.276C145.659 145.837 119.856 134.608 99.1821 120.803L99.7943 119.889C120.369 133.627 146.057 144.804 174.082 152.212C199.408 158.908 224.924 162.01 247.862 161.191L247.901 162.29C245.479 162.377 243.029 162.421 240.55 162.42Z" fill="#F0F0F0"/>
<path d="M288.917 155.502L288.564 154.46C307.42 148.094 319.214 137.839 322.67 124.803C327.063 108.231 317.518 88.9999 295.793 70.6527C273.957 52.2122 242.469 36.9114 207.128 27.5691L207.41 26.5055C242.906 35.8889 274.547 51.269 296.504 69.8128C318.573 88.4495 328.244 108.079 323.735 125.084C320.18 138.494 308.14 149.012 288.917 155.502Z" fill="#F0F0F0"/>
<path d="M115.777 162.88C74.3502 144.534 42.4278 120.731 25.8906 95.8569L26.8084 95.2483C43.2313 119.95 74.9861 143.612 116.223 161.875L115.777 162.88Z" fill="#F0F0F0"/>
<path d="M261.43 194.664C257.157 194.664 252.811 194.569 248.392 194.378L248.439 193.279C281.416 194.705 310.513 190.764 332.588 181.881L333 182.902C313.743 190.65 289.199 194.664 261.43 194.664Z" fill="#F0F0F0"/>
<path d="M237.393 19.5329C230.546 17.3069 223.504 15.2342 216.461 13.3723C175.932 2.65838 136.091 -1.14563 101.245 2.37369L101.134 1.27892C136.11 -2.25192 176.087 1.56119 216.743 12.3087C223.805 14.176 230.868 16.2545 237.735 18.487L237.393 19.5329Z" fill="#F0F0F0"/>
<path d="M51.6752 105.126C34.7827 88.521 27.6481 71.1973 31.5851 56.3472C36.6375 37.2901 59.0831 24.1137 93.1664 20.1967L93.2923 21.2898C59.6834 25.1521 37.5803 38.0327 32.6502 56.6286C28.8187 71.0808 35.8497 88.026 52.4482 104.343L51.6752 105.126Z" fill="#F0F0F0"/>
<path d="M214.66 164.071C193.577 164.071 170.666 160.942 147.91 154.926C119.768 147.487 93.9658 136.258 73.2915 122.453L73.9037 121.539C94.4785 135.277 120.167 146.454 148.192 153.863C173.518 160.558 199.033 163.66 221.971 162.841L222.011 163.941C219.588 164.028 217.138 164.071 214.66 164.071Z" fill="#F0F0F0"/>
<path d="M263.027 157.152L262.674 156.11C281.529 149.744 293.323 139.489 296.779 126.453C301.173 109.881 291.628 90.65 269.903 72.3028C248.067 53.8624 216.579 38.5615 181.238 29.2192L181.52 28.1556C217.015 37.539 248.656 52.9191 270.614 71.463C292.682 90.0997 302.353 109.729 297.844 126.734C294.289 140.144 282.249 150.663 263.027 157.152Z" fill="#F0F0F0"/>
<path d="M89.8862 164.53C48.4596 146.184 16.5372 122.381 0 97.5071L0.917759 96.8984C17.3407 121.6 49.0955 145.262 90.3328 163.525L89.8862 164.53Z" fill="#F0F0F0"/>
<path d="M235.539 196.314C231.266 196.314 226.92 196.219 222.501 196.029L222.549 194.93C255.526 196.355 284.622 192.415 306.698 183.531L307.11 184.552C287.853 192.3 263.308 196.314 235.539 196.314Z" fill="#F0F0F0"/>
<path d="M211.503 21.1831C204.656 18.957 197.613 16.8843 190.57 15.0225C150.041 4.30854 110.2 0.504534 75.354 4.02383L75.2432 2.92907C110.22 -0.601777 150.196 3.21133 190.852 13.9589C197.915 15.8261 204.977 17.9047 211.844 20.1372L211.503 21.1831Z" fill="#F0F0F0"/>
<path d="M18.7783 75.66C26.6955 66.7962 39.3247 61.3939 50.7696 64.6278C40.2112 72.0889 32.636 83.0388 29.3844 95.5401C28.1478 100.366 27.2757 105.862 23.2565 108.812C20.7557 110.648 17.4421 111.087 14.3666 110.669C11.291 110.251 8.38297 109.056 5.51413 107.873L4.74219 107.94C6.96159 96.2711 10.8611 84.5239 18.7783 75.66Z" fill="#F2F2F2"/>
<path d="M50.7348 64.8746C41.1661 67.188 32.5706 72.4533 26.1693 79.9226C24.7626 81.5061 23.6148 83.3011 22.7679 85.2416C22.0041 87.1584 21.7683 89.2446 22.085 91.2832C22.3421 93.19 22.8261 95.1107 22.6145 97.0466C22.4914 98.036 22.1603 98.9882 21.6429 99.8408C21.1254 100.693 20.4333 101.427 19.612 101.994C17.6022 103.459 15.185 104.116 12.7987 104.677C10.1493 105.299 7.38747 105.903 5.22775 107.662C4.96608 107.875 4.65034 107.457 4.91162 107.244C8.66916 104.185 13.8913 104.578 18.0487 102.356C19.9886 101.319 21.6274 99.6924 22.0258 97.4601C22.3742 95.5081 21.8768 93.527 21.5998 91.5986C21.2616 89.6144 21.4152 87.5776 22.0471 85.6663C22.7923 83.6891 23.869 81.8529 25.2311 80.2364C28.2396 76.5482 31.8101 73.3553 35.8119 70.7747C40.3627 67.8041 45.3888 65.6328 50.6729 64.3547C50.9999 64.2757 51.0597 64.7961 50.7347 64.8746H50.7348Z" fill="white"/>
<path d="M28.0887 77.3963C26.9795 76.1537 26.3488 74.5579 26.3091 72.8938C26.2695 71.2297 26.8235 69.6058 27.8722 68.3119C28.0853 68.0509 28.5016 68.3693 28.2882 68.6307C27.3094 69.8337 26.7935 71.3465 26.8336 72.896C26.8737 74.4455 27.4671 75.9297 28.5069 77.0806C28.7325 77.331 28.313 77.6452 28.0887 77.3963Z" fill="white"/>
<path d="M21.8271 90.3335C25.2272 90.559 28.5875 89.4966 31.238 87.358C31.5004 87.1459 31.8162 87.5637 31.5541 87.7756C28.7918 89.9959 25.2927 91.0944 21.755 90.852C21.4178 90.8287 21.4918 90.3103 21.8271 90.3335Z" fill="white"/>
<path d="M40.4803 68.4881C40.8091 69.0582 41.2746 69.5378 41.835 69.8838C42.3953 70.2299 43.0329 70.4315 43.6906 70.4707C44.0279 70.4897 43.9535 71.0081 43.6185 70.9892C42.892 70.9425 42.1881 70.719 41.5682 70.338C40.9482 69.9571 40.4312 69.4303 40.0621 68.8038C40.0224 68.7477 40.0056 68.6785 40.015 68.6104C40.0245 68.5423 40.0596 68.4804 40.1132 68.4372C40.1687 68.3957 40.2385 68.3777 40.3072 68.3873C40.376 68.3968 40.4382 68.4331 40.4803 68.4881L40.4803 68.4881Z" fill="white"/>
<path d="M67.0159 101.424C66.805 101.418 66.594 101.412 66.3803 101.41C63.5437 101.345 60.7065 101.51 57.8967 101.904C57.679 101.931 57.4587 101.962 57.2422 101.995C50.4828 103.016 43.9721 105.281 38.0408 108.676C35.6819 110.029 33.4295 111.559 31.303 113.253C28.3665 115.593 25.3689 118.363 21.931 119.562C21.5737 119.691 21.2087 119.798 20.8382 119.882L4.88364 108.875C4.85995 108.832 4.83358 108.792 4.80972 108.749L4.15259 108.338C4.25614 108.243 4.3656 108.147 4.46916 108.052C4.52901 107.997 4.59242 107.944 4.65223 107.888C4.69325 107.852 4.73447 107.816 4.76941 107.781C4.78303 107.769 4.79682 107.757 4.80793 107.749C4.84289 107.714 4.87905 107.685 4.91147 107.654C5.52179 107.113 6.13698 106.577 6.75702 106.043C6.75954 106.04 6.75954 106.04 6.7656 106.038C11.4513 101.928 16.6087 98.3881 22.1297 95.4914C22.2957 95.4072 22.4639 95.3193 22.6371 95.2401C25.1296 93.9914 27.7202 92.9482 30.3829 92.1209C31.8423 91.6726 33.3236 91.2983 34.8209 90.9996C38.6914 90.2351 42.6582 90.0833 46.5759 90.5498C54.3856 91.4807 61.8103 94.8954 66.6506 100.957C66.7744 101.113 66.8947 101.265 67.0159 101.424Z" fill="#F2F2F2"/>
<path d="M66.8402 101.602C57.8052 97.6961 47.7676 96.7326 38.153 98.8479C36.0751 99.2666 34.0763 100.01 32.2301 101.05C30.4645 102.121 29.0184 103.645 28.0421 105.463C27.0977 107.14 26.3261 108.965 24.9899 110.383C24.2951 111.099 23.4566 111.661 22.5294 112.03C21.6021 112.4 20.6071 112.57 19.6096 112.528C17.1213 112.49 14.7951 111.562 12.552 110.574C10.0613 109.478 7.49179 108.301 4.70726 108.406C4.36987 108.419 4.36977 107.895 4.70663 107.883C9.5512 107.699 13.484 111.152 18.1431 111.878C20.3171 112.216 22.6064 111.902 24.2705 110.36C25.7257 109.01 26.5229 107.13 27.4645 105.423C28.3909 103.636 29.7416 102.102 31.3985 100.956C33.1856 99.825 35.1524 99.0062 37.2147 98.5344C41.8406 97.3984 46.6165 96.9956 51.3677 97.3409C56.7923 97.7051 62.1146 98.9931 67.1043 101.149C67.413 101.283 67.147 101.734 66.8402 101.602H66.8402Z" fill="white"/>
<path d="M41.2086 97.9848C41.0722 96.3258 41.5308 94.6724 42.5025 93.3199C43.4741 91.9674 44.8956 91.0038 46.5131 90.6013C46.8407 90.521 46.9811 91.0255 46.6531 91.1059C45.1462 91.478 43.8222 92.3757 42.9199 93.637C42.0177 94.8983 41.5967 96.4401 41.7329 97.9842C41.7621 98.3197 41.2377 98.3184 41.2086 97.9848Z" fill="white"/>
<path d="M28.4088 104.55C30.9877 106.774 34.3113 107.946 37.717 107.832C38.0544 107.82 38.0546 108.344 37.7176 108.355C34.1733 108.468 30.7171 107.241 28.0386 104.921C27.7834 104.699 28.1551 104.33 28.4088 104.55Z" fill="white"/>
<path d="M56.4738 98.3221C56.3926 98.975 56.4751 99.6377 56.7139 100.251C56.9527 100.864 57.3402 101.408 57.8417 101.835C58.0995 102.053 57.7276 102.422 57.4714 102.206C56.9195 101.732 56.4923 101.13 56.227 100.453C55.9617 99.7763 55.8665 99.0448 55.9496 98.3227C55.9517 98.254 55.9799 98.1887 56.0285 98.14C56.0772 98.0913 56.1425 98.0629 56.2114 98.0607C56.2808 98.0609 56.3473 98.0885 56.3964 98.1375C56.4455 98.1865 56.4733 98.2528 56.4738 98.3221H56.4738Z" fill="white"/>
<path d="M329.001 148.322C324.528 137.316 314.452 127.99 302.584 127.194C310.017 137.765 313.466 150.62 312.321 163.486C311.861 168.446 310.832 173.915 313.625 178.043C315.362 180.611 318.335 182.136 321.372 182.775C324.41 183.413 327.551 183.264 330.651 183.112L331.356 183.434C333.193 171.7 333.474 159.327 329.001 148.322Z" fill="#F2F2F2"/>
<path d="M302.534 127.439C310.767 132.829 317.09 140.673 320.605 149.856C321.397 151.819 321.874 153.895 322.018 156.007C322.093 158.069 321.613 160.112 320.628 161.926C319.744 163.636 318.642 165.282 318.19 167.177C317.972 168.15 317.964 169.158 318.164 170.134C318.365 171.111 318.769 172.034 319.352 172.844C320.752 174.899 322.807 176.329 324.866 177.657C327.152 179.133 329.55 180.629 330.992 183.009C331.167 183.298 331.605 183.01 331.43 182.722C328.921 178.58 323.87 177.197 320.703 173.71C319.225 172.082 318.229 170 318.605 167.764C318.934 165.808 320.069 164.109 320.979 162.386C321.965 160.631 322.506 158.661 322.554 156.649C322.518 154.537 322.122 152.446 321.383 150.466C319.791 145.983 317.503 141.777 314.603 138.004C311.316 133.679 307.314 129.947 302.767 126.97C302.486 126.786 302.254 127.256 302.534 127.439V127.439Z" fill="white"/>
<path d="M319.648 146.832C321.111 146.034 322.242 144.743 322.84 143.189C323.437 141.635 323.462 139.92 322.91 138.349C322.797 138.032 322.298 138.192 322.411 138.51C322.927 139.971 322.904 141.569 322.345 143.015C321.786 144.461 320.727 145.66 319.36 146.395C319.064 146.555 319.353 146.991 319.648 146.832Z" fill="white"/>
<path d="M321.191 161.118C317.912 160.19 315.105 158.061 313.329 155.158C313.153 154.87 312.715 155.157 312.89 155.445C314.745 158.463 317.67 160.672 321.084 161.631C321.409 161.722 321.514 161.209 321.191 161.118Z" fill="white"/>
<path d="M310.975 134.283C310.474 134.71 309.874 135.006 309.23 135.143C308.585 135.281 307.917 135.257 307.284 135.073C306.96 134.978 306.856 135.491 307.178 135.586C307.878 135.786 308.616 135.811 309.328 135.661C310.04 135.51 310.704 135.187 311.263 134.721C311.319 134.682 311.358 134.622 311.372 134.555C311.386 134.488 311.374 134.417 311.338 134.359C311.3 134.301 311.24 134.261 311.172 134.247C311.104 134.232 311.033 134.246 310.975 134.283H310.975Z" fill="white"/>
<path d="M274.897 156.398C275.098 156.463 275.299 156.528 275.501 156.598C278.194 157.489 280.811 158.596 283.325 159.91C283.521 160.009 283.718 160.112 283.91 160.216C289.933 163.446 295.302 167.764 299.746 172.952C301.512 175.018 303.119 177.215 304.551 179.524C306.53 182.713 308.42 186.328 311.255 188.612C311.548 188.853 311.855 189.076 312.176 189.28L330.907 184.268C330.944 184.235 330.982 184.206 331.02 184.173L331.777 184.008C331.711 183.883 331.64 183.756 331.575 183.632C331.537 183.559 331.495 183.488 331.457 183.416C331.431 183.368 331.404 183.32 331.383 183.276C331.374 183.26 331.365 183.244 331.358 183.232C331.337 183.188 331.312 183.148 331.292 183.108C330.899 182.394 330.501 181.682 330.096 180.972C330.095 180.968 330.095 180.968 330.09 180.964C327.06 175.521 323.394 170.456 319.169 165.875C319.041 165.74 318.912 165.6 318.776 165.468C316.849 163.455 314.76 161.603 312.531 159.93C311.307 159.018 310.038 158.169 308.728 157.385C305.34 155.366 301.655 153.891 297.809 153.016C290.14 151.272 281.998 151.996 275.399 156.081C275.23 156.185 275.065 156.289 274.897 156.398Z" fill="#F2F2F2"/>
<path d="M275.004 156.624C284.828 155.978 294.606 158.439 302.949 163.658C304.765 164.75 306.397 166.121 307.786 167.72C309.088 169.322 309.937 171.242 310.245 173.282C310.57 175.179 310.683 177.156 311.464 178.94C311.877 179.848 312.478 180.658 313.227 181.317C313.976 181.977 314.856 182.47 315.809 182.766C318.165 183.566 320.669 183.472 323.114 183.295C325.828 183.098 328.645 182.851 331.232 183.885C331.545 184.01 331.722 183.517 331.409 183.392C326.908 181.594 322.041 183.526 317.409 182.646C315.248 182.235 313.197 181.171 312.149 179.159C311.233 177.4 311.115 175.361 310.802 173.438C310.532 171.444 309.776 169.546 308.601 167.91C307.298 166.246 305.722 164.814 303.938 163.678C299.964 161.055 295.601 159.073 291.01 157.804C285.779 156.326 280.332 155.753 274.907 156.109C274.571 156.132 274.67 156.646 275.004 156.624V156.624Z" fill="white"/>
<path d="M300.362 161.82C301.048 160.303 301.173 158.592 300.713 156.992C300.253 155.392 299.239 154.008 297.851 153.086C297.569 152.9 297.267 153.328 297.549 153.514C298.843 154.37 299.788 155.66 300.213 157.151C300.638 158.641 300.516 160.235 299.868 161.643C299.728 161.95 300.222 162.124 300.362 161.82L300.362 161.82Z" fill="white"/>
<path d="M310.207 172.299C307.029 173.528 303.505 173.517 300.336 172.266C300.022 172.142 299.845 172.635 300.159 172.759C303.459 174.054 307.127 174.059 310.431 172.772C310.746 172.649 310.52 172.177 310.207 172.299V172.299Z" fill="white"/>
<path d="M285.871 157.014C285.727 157.656 285.427 158.253 284.995 158.75C284.564 159.248 284.016 159.63 283.4 159.864C283.084 159.983 283.31 160.455 283.624 160.337C284.303 160.076 284.908 159.653 285.386 159.104C285.863 158.556 286.199 157.899 286.364 157.191C286.385 157.125 286.381 157.054 286.351 156.992C286.322 156.93 286.27 156.881 286.206 156.856C286.14 156.833 286.068 156.837 286.006 156.866C285.943 156.896 285.894 156.949 285.871 157.014V157.014Z" fill="white"/>
<path d="M93.4948 63.7339C95.9287 63.7339 97.9017 61.7637 97.9017 59.3334C97.9017 56.903 95.9287 54.9329 93.4948 54.9329C91.0609 54.9329 89.0879 56.903 89.0879 59.3334C89.0879 61.7637 91.0609 63.7339 93.4948 63.7339Z" fill="#FD6584"/>
<path d="M262.179 107.15C262.569 104.751 260.938 102.49 258.535 102.101C256.133 101.712 253.869 103.341 253.479 105.74C253.089 108.139 254.721 110.399 257.123 110.789C259.526 111.178 261.789 109.549 262.179 107.15Z" fill="#E6E6E6"/>
<path d="M93.3156 14.2127C95.7495 14.2127 97.7225 12.2425 97.7225 9.81216C97.7225 7.38181 95.7495 5.41162 93.3156 5.41162C90.8817 5.41162 88.9087 7.38181 88.9087 9.81216C88.9087 12.2425 90.8817 14.2127 93.3156 14.2127Z" fill="#E6E6E6"/>
<path d="M224.809 61.5951H223.551V27.186C223.551 21.9042 221.45 16.8387 217.71 13.1039C213.97 9.36909 208.897 7.27089 203.607 7.27087H130.601C127.982 7.27087 125.389 7.78598 122.969 8.7868C120.549 9.78762 118.351 11.2545 116.499 13.1038C114.647 14.9531 113.178 17.1485 112.175 19.5647C111.173 21.9809 110.657 24.5706 110.657 27.1859V215.957C110.657 221.239 112.758 226.305 116.499 230.039C120.239 233.774 125.312 235.872 130.601 235.872H203.607C208.897 235.872 213.969 233.774 217.71 230.039C221.45 226.305 223.551 221.239 223.551 215.957V86.0881H224.809V61.5951Z" fill="#3F3D56"/>
<path d="M219.305 27.324V215.819C219.305 217.772 218.92 219.705 218.172 221.509C217.424 223.313 216.327 224.953 214.945 226.334C213.562 227.715 211.921 228.81 210.114 229.558C208.308 230.305 206.372 230.69 204.416 230.69H131.053C127.104 230.69 123.316 229.124 120.523 226.335C117.73 223.547 116.161 219.764 116.161 215.82V27.324C116.161 25.3712 116.546 23.4375 117.294 21.6333C118.042 19.8291 119.139 18.1897 120.522 16.8088C121.905 15.4279 123.546 14.3324 125.353 13.585C127.16 12.8376 129.096 12.4529 131.052 12.4528H139.956C139.518 13.5255 139.35 14.6895 139.469 15.8422C139.587 16.9948 139.987 18.1007 140.634 19.0624C141.282 20.0242 142.156 20.8122 143.18 21.3572C144.204 21.9021 145.346 22.1871 146.507 22.1872H188.332C189.493 22.1864 190.635 21.9008 191.658 21.3557C192.682 20.8106 193.556 20.0226 194.203 19.0611C194.85 18.0996 195.25 16.994 195.369 15.8417C195.487 14.6893 195.32 13.5256 194.883 12.4528H204.412C206.368 12.4527 208.304 12.8372 210.111 13.5844C211.918 14.3317 213.56 15.4269 214.943 16.8077C216.326 18.1885 217.423 19.8277 218.171 21.6319C218.92 23.436 219.305 25.3697 219.305 27.3225L219.305 27.324Z" fill="#F2F2F2"/>
<path d="M144.477 30.446H121.719V31.4632H144.477V30.446Z" fill="white"/>
<path d="M179.112 30.446H156.354V31.4632H179.112V30.446Z" fill="white"/>
<path d="M203.41 152.241H129.225C128.975 152.241 128.728 152.192 128.497 152.096C128.266 152.001 128.056 151.861 127.88 151.684C127.703 151.508 127.563 151.298 127.467 151.068C127.371 150.837 127.322 150.59 127.322 150.34C127.322 150.091 127.371 149.844 127.467 149.613C127.563 149.382 127.703 149.173 127.88 148.996C128.056 148.82 128.266 148.68 128.497 148.584C128.728 148.489 128.975 148.44 129.225 148.44H203.41C203.66 148.44 203.907 148.489 204.138 148.584C204.369 148.68 204.579 148.82 204.756 148.996C204.933 149.173 205.073 149.382 205.169 149.613C205.264 149.844 205.313 150.091 205.313 150.34C205.313 150.59 205.264 150.837 205.169 151.068C205.073 151.298 204.933 151.508 204.756 151.684C204.579 151.861 204.369 152.001 204.138 152.096C203.907 152.192 203.66 152.241 203.41 152.241Z" fill="#CCCCCC"/>
<path d="M203.41 165.464H129.225C128.721 165.464 128.236 165.264 127.88 164.908C127.523 164.551 127.322 164.068 127.322 163.564C127.322 163.06 127.523 162.576 127.88 162.22C128.236 161.863 128.721 161.663 129.225 161.663H203.41C203.915 161.663 204.399 161.863 204.756 162.22C205.113 162.576 205.313 163.06 205.313 163.564C205.313 164.068 205.113 164.551 204.756 164.908C204.399 165.264 203.915 165.464 203.41 165.464Z" fill="#CCCCCC"/>
<path d="M203.41 178.688H129.225C128.721 178.688 128.236 178.488 127.88 178.131C127.523 177.775 127.322 177.291 127.322 176.787C127.322 176.283 127.523 175.8 127.88 175.443C128.236 175.087 128.721 174.886 129.225 174.886H203.41C203.915 174.886 204.399 175.087 204.756 175.443C205.113 175.8 205.313 176.283 205.313 176.787C205.313 177.291 205.113 177.775 204.756 178.131C204.399 178.488 203.915 178.688 203.41 178.688Z" fill="#CCCCCC"/>
<path d="M213.746 30.446H190.988V31.4632H213.746V30.446Z" fill="white"/>
<path d="M144.477 213.031H121.719V214.048H144.477V213.031Z" fill="white"/>
<path d="M179.112 213.031H156.354V214.048H179.112V213.031Z" fill="white"/>
<path d="M213.746 213.031H190.988V214.048H213.746V213.031Z" fill="white"/>
<path d="M167.733 126.204C186.784 126.204 202.229 110.782 202.229 91.7577C202.229 72.7335 186.784 57.3113 167.733 57.3113C148.681 57.3113 133.236 72.7335 133.236 91.7577C133.236 110.782 148.681 126.204 167.733 126.204Z" fill="#D1D3D4"/>
<path d="M167.733 124.71C185.114 124.71 199.204 110.64 199.204 93.2842C199.204 75.9283 185.114 61.8586 167.733 61.8586C150.352 61.8586 136.262 75.9283 136.262 93.2842C136.262 110.64 150.352 124.71 167.733 124.71Z" fill="#449FE7"/>
<path d="M164.985 105.601C164.917 105.601 164.849 105.599 164.78 105.596C164.176 105.567 163.586 105.408 163.05 105.129C162.514 104.851 162.044 104.46 161.673 103.984L156.713 97.6166C156.031 96.7392 155.726 95.6276 155.863 94.5255C156.001 93.4234 156.571 92.421 157.449 91.7381L157.626 91.5999C158.505 90.9189 159.618 90.6136 160.722 90.7511C161.826 90.8886 162.83 91.4576 163.515 92.3333C163.737 92.6194 164.019 92.854 164.341 93.0211C164.663 93.1882 165.018 93.2838 165.38 93.3013C165.743 93.3225 166.106 93.2635 166.443 93.1283C166.78 92.9932 167.084 92.7854 167.331 92.5197L177.402 81.9041C178.168 81.0988 179.222 80.6297 180.334 80.5997C181.446 80.5696 182.524 80.9811 183.332 81.7438L183.496 81.8983C184.303 82.663 184.773 83.716 184.803 84.8263C184.834 85.9367 184.422 87.0137 183.658 87.821L168.03 104.293C167.638 104.706 167.166 105.036 166.643 105.261C166.119 105.485 165.555 105.601 164.985 105.601Z" fill="white"/>
<path d="M112.615 43.5493H108.541V65.4188H112.615V43.5493Z" fill="#3F3D56"/>
<path d="M112.615 67.9618H108.541V80.6766H112.615V67.9618Z" fill="#3F3D56"/>
<path d="M112.615 83.2195H108.541V95.9343H112.615V83.2195Z" fill="#3F3D56"/>
<path d="M147.759 17.611C148.884 17.611 149.796 16.7002 149.796 15.5766C149.796 14.4531 148.884 13.5422 147.759 13.5422C146.634 13.5422 145.722 14.4531 145.722 15.5766C145.722 16.7002 146.634 17.611 147.759 17.611Z" fill="white"/>
<path opacity="0.16" d="M167.733 120.356C159.771 120.355 152.105 117.34 146.281 111.919C140.457 106.498 136.907 99.0737 136.348 91.1428C136.297 91.8744 136.262 92.6104 136.262 93.3549C136.262 101.69 139.577 109.683 145.479 115.576C151.381 121.47 159.386 124.78 167.733 124.78C176.079 124.78 184.084 121.47 189.986 115.576C195.888 109.683 199.204 101.69 199.204 93.3549C199.204 92.6104 199.169 91.8744 199.118 91.1428C198.558 99.0737 195.009 106.498 189.185 111.919C183.36 117.34 175.695 120.355 167.733 120.356Z" fill="#231F20"/>
<path d="M212.102 118.642L237.059 119.659L240.114 102.875L218.722 96.2642L212.102 118.642Z" fill="#FFB8B8"/>
<path d="M221.534 82.2907L221.776 74.3615L209.68 71.3335L187.903 64.9894C187.615 64.1164 187.068 63.3513 186.335 62.7954C185.602 62.2394 184.717 61.9189 183.798 61.876C182.878 61.8332 181.967 62.0701 181.185 62.5555C180.403 63.0409 179.788 63.7518 179.419 64.5943C179.051 65.4367 178.947 66.371 179.122 67.2735C179.297 68.176 179.743 69.0042 180.399 69.6485C181.056 70.2928 181.893 70.7229 182.799 70.8819C183.706 71.0408 184.64 70.9212 185.477 70.5388L206.648 79.2288L221.534 82.2907Z" fill="#FFB8B8"/>
<path d="M213.74 82.2352L220.545 72.5443L220.714 72.5669C220.821 72.5809 231.492 74.0064 238.487 76.0866C239.273 76.2946 240.005 76.6714 240.63 77.1906C241.255 77.7098 241.76 78.3591 242.108 79.093C242.608 80.1186 242.797 81.2676 242.652 82.3991C242.508 83.5305 242.035 84.595 241.293 85.462C240.537 86.3992 239.527 87.0993 238.384 87.4787C237.24 87.8581 236.012 87.9006 234.845 87.6013L213.74 82.2352Z" fill="#449FE7"/>
<path d="M218.05 229.155L211.129 229.155L207.836 202.497L218.051 202.497L218.05 229.155Z" fill="#FFB8B8"/>
<path d="M271.942 226.163L265.098 227.196L257.852 201.329L266.823 199.805L271.942 226.163Z" fill="#FFB8B8"/>
<path d="M238.077 114.573L214.139 110.505L213.287 112.257C208.706 121.698 206.001 131.937 205.322 142.406C204.744 151.245 204.404 160.579 204.392 170.364C204.375 185.525 205.15 199.593 206.375 212.393L219.513 212.311C219.133 198.72 219.65 185.12 221.06 171.597C222.065 161.954 223.463 152.947 225.08 144.636C228.079 156.837 232.312 168.703 237.714 180.05C242.305 189.745 251.749 200.952 256.34 210.648C261.045 210.084 265.75 209.52 270.454 208.957C266.747 199.166 260.132 184.869 256.425 175.078C251.124 161.079 248.729 151.587 243.428 137.589C243.73 134.957 243.789 132.304 243.604 129.661C243.357 125.257 242.44 119.972 239.758 116.449L238.077 114.573Z" fill="#2F2E41"/>
<path d="M241.776 107.276C242.971 109.508 240.132 114.13 238.077 114.573L214.405 106.932L226.324 72.4425L232.321 73.5309L241.913 75.1445L245.315 78.2324C246.171 79.0108 246.783 80.0209 247.076 81.14C247.369 82.2591 247.33 83.439 246.964 84.5365L241.776 107.276Z" fill="#449FE7"/>
<path d="M225.479 93.9473L218.783 89.6798L209.984 98.5035L193.375 113.933C192.477 113.733 191.539 113.81 190.685 114.154C189.831 114.498 189.103 115.093 188.595 115.86C188.087 116.627 187.824 117.529 187.842 118.449C187.859 119.368 188.155 120.26 188.691 121.007C189.227 121.754 189.978 122.322 190.844 122.634C191.709 122.946 192.65 122.988 193.54 122.755C194.431 122.522 195.229 122.024 195.83 121.328C196.431 120.632 196.807 119.769 196.906 118.856L215.223 105.147L225.479 93.9473Z" fill="#FFB8B8"/>
<path d="M221.44 100.604L216.589 89.8054L216.695 89.6713C216.762 89.5871 223.452 81.1646 228.824 76.23C229.405 75.6622 230.104 75.2279 230.871 74.9574C231.638 74.6869 232.454 74.5867 233.264 74.6637C234.402 74.7605 235.487 75.1869 236.386 75.8905C237.285 76.5941 237.959 77.5443 238.325 78.6248C238.744 79.7526 238.829 80.9771 238.57 82.152C238.311 83.3269 237.719 84.4023 236.864 85.2499L221.44 100.604Z" fill="#449FE7"/>
<path d="M236.531 70.1378C242.345 70.1378 247.059 65.4309 247.059 59.6247C247.059 53.8184 242.345 49.1116 236.531 49.1116C230.716 49.1116 226.002 53.8184 226.002 59.6247C226.002 65.4309 230.716 70.1378 236.531 70.1378Z" fill="#FFB8B8"/>
<path d="M245.033 74.8585L244.993 74.8483L229.693 71.0272C229.163 70.8948 228.671 70.6401 228.257 70.2837C227.844 69.9273 227.519 69.479 227.31 68.9748C227.101 68.4706 227.013 67.9245 227.054 67.3803C227.094 66.8361 227.262 66.309 227.543 65.8411L228.049 65.0015C228.542 64.1816 228.822 63.2514 228.863 62.2957C228.904 61.34 228.705 60.3892 228.284 59.5302C227.559 58.1272 226.312 57.0639 224.811 56.5685L224.76 56.5442L224.439 56.3445C224.123 56.1956 223.842 55.9826 223.614 55.7189C223.385 55.4552 223.214 55.1467 223.112 54.8133C223.006 54.4677 222.974 54.1038 223.017 53.745C223.061 53.3863 223.18 53.0406 223.365 52.7305C224.716 50.4745 226.737 48.6951 229.148 47.6398C232.194 46.3305 235.624 46.2276 238.743 47.352C238.951 47.1614 239.203 47.0252 239.476 46.9558C239.75 46.8864 240.036 46.8859 240.31 46.9544C248.233 48.8706 248.886 54.1812 247.32 62.7061L249.173 70.1679C249.304 70.6948 249.319 71.2438 249.216 71.7768C249.113 72.3098 248.895 72.814 248.577 73.2544C248.259 73.6948 247.849 74.0608 247.375 74.327C246.901 74.5931 246.375 74.7531 245.833 74.7957L245.033 74.8585ZM238.659 47.4359L238.658 47.4369L238.659 47.4359ZM238.85 47.3893L238.851 47.3898L238.85 47.3893Z" fill="#2F2E41"/>
<path d="M219.737 236.066H215.787L215.082 232.342L213.276 236.066H202.799C202.297 236.066 201.808 235.905 201.403 235.608C200.999 235.311 200.7 234.893 200.551 234.414C200.401 233.935 200.409 233.421 200.573 232.947C200.736 232.473 201.048 232.064 201.461 231.779L209.827 226.009V222.244L218.627 222.769L219.737 236.066Z" fill="#2F2E41"/>
<path d="M273.044 236.066H269.093L268.388 232.342L266.583 236.066H256.106C255.604 236.066 255.114 235.905 254.71 235.608C254.305 235.311 254.007 234.893 253.857 234.414C253.708 233.935 253.715 233.421 253.879 232.947C254.043 232.473 254.354 232.064 254.767 231.779L263.134 226.009V222.244L271.934 222.769L273.044 236.066Z" fill="#2F2E41"/>
</g>
<defs>
<clipPath id="clip0_1522_817">
<rect width="333" height="237" fill="white"/>
</clipPath>
</defs>
</svg>
