<svg width="277" height="210" viewBox="0 0 277 210" fill="none" xmlns="http://www.w3.org/2000/svg">
<g clip-path="url(#clip0_1804_521)">
<path d="M130.171 176.29C130.171 176.29 133.697 170.488 138.223 173.919C142.749 177.349 151.132 183.138 151.132 183.138C151.132 183.138 152.848 186.841 148.405 185.45C143.961 184.059 129.455 181.821 129.455 181.821L130.171 176.29Z" fill="#FEB8B8"/>
<path d="M31.6456 139.44C32.7691 130.377 38.3679 121.447 46.9836 118.498C43.5858 127.826 43.5866 138.059 46.9857 147.387C48.3096 150.98 50.155 154.837 48.9097 158.458C48.1349 160.711 46.2394 162.435 44.1206 163.513C42.0017 164.59 39.6502 165.104 37.3281 165.607L36.8711 165.987C33.1848 157.636 30.5221 148.503 31.6456 139.44Z" fill="#F0F0F0"/>
<path d="M47.0695 118.669C42.0521 124.309 38.9336 131.391 38.157 138.91C37.9612 140.526 38.0205 142.163 38.3326 143.76C38.6869 145.306 39.4473 146.729 40.5349 147.88C41.5275 148.974 42.6692 149.978 43.3794 151.295C43.733 151.975 43.9393 152.721 43.985 153.487C44.0306 154.252 43.9145 155.018 43.6443 155.735C43.0172 157.54 41.7813 159.01 40.5229 160.406C39.1257 161.956 37.6499 163.544 37.056 165.599C36.984 165.848 36.6031 165.721 36.675 165.473C37.7083 161.897 41.1678 159.867 42.8176 156.647C43.5874 155.144 43.9106 153.4 43.1889 151.814C42.5578 150.427 41.3814 149.39 40.3668 148.291C39.2894 147.184 38.4987 145.828 38.0638 144.343C37.6716 142.767 37.5496 141.136 37.703 139.518C37.9905 135.872 38.8477 132.294 40.2433 128.915C41.8146 125.049 44.0335 121.482 46.804 118.367C46.9755 118.174 47.2399 118.478 47.0695 118.669Z" fill="white"/>
<path d="M38.265 136.475C37.0252 136.173 35.9328 135.438 35.1828 134.403C34.4328 133.367 34.0741 132.098 34.1707 130.822C34.1912 130.564 34.592 130.584 34.5716 130.842C34.4794 132.03 34.8136 133.213 35.514 134.175C36.2143 135.138 37.2347 135.818 38.3908 136.092C38.642 136.152 38.5148 136.534 38.265 136.475Z" fill="white"/>
<path d="M39.9585 147.392C42.1978 146.05 43.8508 143.912 44.5881 141.402C44.6609 141.153 45.0418 141.28 44.9691 141.528C44.197 144.138 42.4723 146.361 40.139 147.751C39.9165 147.884 39.7372 147.523 39.9585 147.392Z" fill="white"/>
<path d="M42.1867 125.431C42.6421 125.648 43.1442 125.748 43.6478 125.722C44.1514 125.697 44.6408 125.546 45.072 125.284C45.2927 125.149 45.4717 125.509 45.2524 125.643C44.7747 125.931 44.234 126.097 43.6777 126.126C43.1213 126.156 42.5662 126.048 42.0609 125.813C42.0114 125.795 41.9707 125.758 41.947 125.711C41.9233 125.664 41.9184 125.609 41.9333 125.559C41.9502 125.508 41.9863 125.466 42.0337 125.442C42.0812 125.418 42.1362 125.414 42.1867 125.431Z" fill="white"/>
<path d="M73.246 134.685C73.1105 134.774 72.9751 134.862 72.8395 134.954C71.025 136.151 69.3105 137.493 67.7128 138.969C67.5875 139.081 67.4621 139.197 67.3403 139.312C63.5288 142.908 60.416 147.183 58.16 151.919C57.264 153.804 56.5124 155.755 55.9115 157.755C55.0818 160.517 54.4012 163.578 52.7588 165.837C52.5901 166.075 52.4069 166.302 52.2102 166.516H37.368C37.3342 166.499 37.3003 166.486 37.2664 166.469L36.6738 166.496C36.6976 166.391 36.7246 166.282 36.7484 166.177C36.7619 166.116 36.7788 166.054 36.7924 165.993C36.8025 165.953 36.8127 165.912 36.8195 165.874C36.8228 165.861 36.8263 165.847 36.8296 165.837C36.8364 165.8 36.8466 165.766 36.8534 165.732C37.0024 165.124 37.1559 164.516 37.3139 163.907C37.3139 163.904 37.3139 163.904 37.3172 163.901C38.533 159.27 40.1448 154.701 42.3967 150.523C42.4644 150.397 42.5321 150.268 42.6066 150.142C43.6321 148.264 44.8088 146.474 46.1251 144.788C46.8488 143.868 47.6184 142.984 48.4312 142.142C50.5353 139.969 52.967 138.142 55.6372 136.727C60.9605 133.907 67.1235 132.827 72.8126 134.549C72.9581 134.593 73.1005 134.638 73.246 134.685Z" fill="#F0F0F0"/>
<path d="M73.213 134.874C65.8221 136.347 59.0817 140.118 53.9491 145.653C52.823 146.824 51.8882 148.167 51.1789 149.631C50.5338 151.079 50.2872 152.674 50.4646 154.251C50.6005 155.724 50.9096 157.215 50.6862 158.695C50.5607 159.452 50.2772 160.173 49.8544 160.811C49.4316 161.45 48.879 161.991 48.2329 162.401C46.6494 163.463 44.78 163.89 42.9374 164.245C40.8916 164.639 38.7604 165.015 37.0529 166.297C36.846 166.452 36.6179 166.121 36.8244 165.966C39.7951 163.736 43.7761 164.204 47.0259 162.629C48.5423 161.894 49.8472 160.697 50.2229 158.994C50.5514 157.506 50.234 155.968 50.0835 154.478C49.888 152.942 50.0702 151.382 50.6141 149.934C51.2469 148.439 52.1286 147.062 53.2217 145.864C55.6395 143.126 58.4714 140.787 61.6137 138.932C65.1882 136.795 69.1007 135.286 73.1822 134.473C73.4348 134.423 73.4639 134.824 73.213 134.874Z" fill="white"/>
<path d="M55.4969 143.773C54.6882 142.783 54.2566 141.537 54.2792 140.257C54.3017 138.978 54.777 137.748 55.6201 136.787C55.7914 136.593 56.0996 136.851 55.9281 137.045C55.1414 137.938 54.6988 139.084 54.6802 140.276C54.6616 141.467 55.0682 142.626 55.8267 143.544C55.9913 143.743 55.6605 143.971 55.4969 143.773Z" fill="white"/>
<path d="M50.2974 153.513C52.8903 153.794 55.4937 153.085 57.5885 151.527C57.796 151.372 58.0242 151.703 57.817 151.857C55.6341 153.475 52.9233 154.208 50.2257 153.909C49.9686 153.88 50.0416 153.484 50.2974 153.513Z" fill="white"/>
<path d="M65.2566 137.324C65.4899 137.772 65.8307 138.156 66.2481 138.439C66.6656 138.723 67.1468 138.898 67.6485 138.949C67.9059 138.975 67.8325 139.37 67.5768 139.345C67.0228 139.286 66.4916 139.092 66.0297 138.78C65.5677 138.467 65.1891 138.046 64.9268 137.553C64.8982 137.509 64.8875 137.455 64.8969 137.403C64.9063 137.351 64.9351 137.304 64.9774 137.273C65.0213 137.243 65.0752 137.231 65.1274 137.241C65.1797 137.25 65.2261 137.28 65.2566 137.324Z" fill="white"/>
<path d="M151.35 199.506C151.785 195.994 153.955 192.533 157.294 191.39C155.977 195.005 155.977 198.971 157.295 202.586C157.808 203.979 158.523 205.474 158.04 206.877C157.695 207.744 157.03 208.445 156.184 208.836C155.345 209.218 154.46 209.491 153.552 209.648L153.375 209.795C151.946 206.558 150.914 203.019 151.35 199.506Z" fill="#F0F0F0"/>
<path d="M157.327 191.457C155.382 193.642 154.174 196.387 153.873 199.301C153.797 199.927 153.82 200.562 153.941 201.181C154.078 201.78 154.373 202.331 154.794 202.777C155.214 203.172 155.584 203.617 155.897 204.101C156.034 204.364 156.114 204.654 156.131 204.95C156.149 205.247 156.104 205.544 155.999 205.822C155.721 206.5 155.31 207.116 154.79 207.632C154.248 208.233 153.676 208.848 153.446 209.644C153.418 209.741 153.271 209.692 153.298 209.595C153.699 208.21 155.04 207.423 155.679 206.175C155.844 205.894 155.942 205.58 155.967 205.255C155.992 204.93 155.943 204.604 155.823 204.302C155.533 203.791 155.164 203.331 154.729 202.937C154.312 202.507 154.005 201.982 153.837 201.407C153.685 200.796 153.637 200.164 153.697 199.537C153.808 198.124 154.14 196.737 154.681 195.427C155.29 193.929 156.15 192.547 157.224 191.34C157.29 191.265 157.393 191.382 157.327 191.457Z" fill="white"/>
<path d="M153.915 198.357C153.435 198.24 153.011 197.956 152.72 197.554C152.43 197.153 152.291 196.661 152.328 196.167C152.336 196.066 152.492 196.074 152.484 196.174C152.448 196.635 152.577 197.093 152.849 197.466C153.12 197.839 153.516 198.103 153.964 198.209C154.061 198.232 154.012 198.38 153.915 198.357Z" fill="white"/>
<path d="M154.571 202.588C155.439 202.068 156.08 201.239 156.366 200.267C156.394 200.17 156.541 200.219 156.513 200.316C156.214 201.327 155.546 202.189 154.641 202.727C154.555 202.779 154.486 202.639 154.571 202.588Z" fill="white"/>
<path d="M155.434 194.077C155.611 194.161 155.806 194.2 156.001 194.19C156.196 194.18 156.386 194.122 156.553 194.02C156.638 193.968 156.708 194.107 156.623 194.159C156.437 194.271 156.228 194.335 156.012 194.347C155.797 194.358 155.582 194.316 155.386 194.225C155.367 194.218 155.351 194.204 155.342 194.186C155.332 194.167 155.331 194.146 155.336 194.127C155.343 194.107 155.357 194.091 155.375 194.082C155.394 194.072 155.415 194.071 155.434 194.077Z" fill="white"/>
<path d="M167.471 197.664C167.419 197.698 167.367 197.732 167.314 197.768C166.611 198.232 165.946 198.752 165.327 199.324C165.279 199.367 165.23 199.412 165.183 199.457C163.706 200.851 162.499 202.507 161.625 204.343C161.278 205.073 160.986 205.829 160.753 206.605C160.432 207.675 160.168 208.861 159.532 209.737C159.466 209.829 159.395 209.917 159.319 210H153.567C153.554 209.993 153.541 209.988 153.528 209.982L153.298 209.992C153.307 209.951 153.318 209.909 153.327 209.868C153.332 209.845 153.339 209.821 153.344 209.797C153.348 209.781 153.352 209.766 153.354 209.751C153.356 209.746 153.357 209.741 153.358 209.737C153.361 209.722 153.365 209.709 153.367 209.696C153.425 209.46 153.485 209.225 153.546 208.989L153.547 208.986C153.997 207.186 154.657 205.446 155.516 203.802C155.542 203.753 155.568 203.703 155.597 203.654C155.995 202.926 156.451 202.232 156.961 201.579C157.241 201.222 157.539 200.88 157.854 200.554C158.67 199.711 159.612 199.003 160.647 198.455C162.71 197.362 165.099 196.944 167.303 197.611C167.36 197.628 167.415 197.645 167.471 197.664Z" fill="#F0F0F0"/>
<path d="M167.459 197.737C164.595 198.308 161.983 199.769 159.993 201.914C159.557 202.368 159.195 202.889 158.92 203.456C158.67 204.017 158.574 204.635 158.643 205.246C158.741 205.815 158.77 206.393 158.729 206.969C158.68 207.262 158.57 207.541 158.406 207.789C158.243 208.036 158.028 208.246 157.778 208.405C157.149 208.779 156.451 209.022 155.726 209.12C154.933 209.272 154.107 209.418 153.445 209.915C153.365 209.975 153.277 209.847 153.357 209.787C154.508 208.922 156.051 209.104 157.31 208.493C157.61 208.369 157.878 208.177 158.093 207.933C158.307 207.689 158.464 207.399 158.549 207.085C158.624 206.502 158.606 205.911 158.495 205.334C158.42 204.739 158.49 204.135 158.701 203.573C158.946 202.994 159.288 202.461 159.711 201.996C160.649 200.935 161.746 200.028 162.964 199.309C164.349 198.481 165.865 197.897 167.447 197.581C167.545 197.562 167.556 197.718 167.459 197.737Z" fill="white"/>
<path d="M160.593 201.186C160.28 200.802 160.113 200.319 160.121 199.823C160.13 199.327 160.314 198.851 160.641 198.478C160.707 198.403 160.827 198.503 160.76 198.578C160.456 198.924 160.284 199.368 160.277 199.83C160.27 200.292 160.427 200.741 160.721 201.097C160.785 201.174 160.657 201.263 160.593 201.186Z" fill="white"/>
<path d="M158.578 204.96C159.583 205.07 160.592 204.795 161.404 204.191C161.484 204.131 161.573 204.259 161.492 204.319C160.646 204.946 159.596 205.23 158.55 205.114C158.451 205.103 158.479 204.949 158.578 204.96Z" fill="white"/>
<path d="M164.375 198.686C164.466 198.86 164.598 199.009 164.759 199.119C164.921 199.228 165.108 199.296 165.302 199.316C165.402 199.326 165.373 199.479 165.274 199.47C165.06 199.447 164.854 199.372 164.675 199.251C164.496 199.129 164.349 198.966 164.247 198.775C164.236 198.758 164.232 198.737 164.236 198.717C164.239 198.697 164.25 198.679 164.267 198.667C164.284 198.655 164.305 198.65 164.325 198.654C164.345 198.658 164.363 198.669 164.375 198.686Z" fill="white"/>
<path d="M250.176 124.898C248.449 110.968 239.844 97.2426 226.601 92.7093C231.823 107.047 231.822 122.777 226.598 137.114C224.563 142.636 221.726 148.565 223.64 154.13C224.831 157.593 227.745 160.243 231.001 161.899C234.258 163.556 237.873 164.345 241.442 165.119L242.144 165.702C247.81 152.867 251.903 138.828 250.176 124.898Z" fill="#F0F0F0"/>
<path d="M226.469 92.9727C234.181 101.641 238.975 112.527 240.168 124.085C240.409 126.562 240.438 129.096 239.898 131.539C239.354 133.915 238.185 136.102 236.513 137.871C234.988 139.553 233.233 141.096 232.141 143.12C230.99 145.254 230.946 147.679 231.734 149.945C232.698 152.719 234.597 154.979 236.532 157.125C238.679 159.507 240.948 161.948 241.861 165.106C241.971 165.489 242.557 165.294 242.446 164.912C240.858 159.417 235.54 156.295 233.005 151.346C231.821 149.037 231.325 146.355 232.434 143.917C233.404 141.786 235.212 140.193 236.772 138.504C238.409 136.73 239.665 134.784 240.311 132.435C240.973 130.033 241.043 127.492 240.866 125.019C240.424 119.415 239.107 113.915 236.962 108.721C234.546 102.779 231.136 97.2963 226.877 92.5087C226.614 92.2125 226.207 92.6784 226.469 92.9727Z" fill="white"/>
<path d="M240.003 120.341C241.908 119.876 243.588 118.748 244.74 117.156C245.893 115.565 246.444 113.614 246.296 111.652C246.264 111.256 245.648 111.286 245.68 111.683C245.821 113.51 245.308 115.327 244.231 116.807C243.155 118.286 241.586 119.331 239.809 119.753C239.423 119.845 239.619 120.432 240.003 120.341Z" fill="white"/>
<path d="M237.399 137.121C233.957 135.059 231.416 131.772 230.283 127.914C230.171 127.532 229.586 127.726 229.698 128.108C230.884 132.12 233.535 135.536 237.122 137.674C237.464 137.877 237.739 137.323 237.399 137.121Z" fill="white"/>
<path d="M233.975 103.365C233.275 103.699 232.503 103.853 231.729 103.814C230.955 103.774 230.203 103.543 229.54 103.14C229.201 102.932 228.926 103.486 229.263 103.692C229.997 104.134 230.828 104.389 231.683 104.434C232.538 104.48 233.392 104.315 234.168 103.953C234.244 103.925 234.307 103.869 234.343 103.797C234.38 103.724 234.387 103.64 234.365 103.562C234.339 103.485 234.283 103.42 234.21 103.384C234.137 103.347 234.053 103.34 233.975 103.365Z" fill="white"/>
<path d="M186.235 117.59C186.443 117.726 186.652 117.862 186.86 118.003C189.649 119.843 192.284 121.907 194.74 124.175C194.933 124.347 195.125 124.525 195.313 124.702C201.171 130.229 205.956 136.8 209.423 144.079C210.8 146.977 211.956 149.976 212.879 153.05C214.155 157.295 215.201 162 217.725 165.472C217.984 165.837 218.266 166.186 218.568 166.517H241.382C241.433 166.49 241.485 166.469 241.538 166.443L242.448 166.485C242.412 166.323 242.37 166.156 242.334 165.994C242.313 165.9 242.287 165.806 242.266 165.712C242.251 165.65 242.235 165.587 242.225 165.53C242.219 165.509 242.214 165.488 242.209 165.472C242.199 165.415 242.183 165.363 242.172 165.31C241.943 164.376 241.708 163.441 241.465 162.506C241.465 162.501 241.465 162.501 241.46 162.496C239.591 155.379 237.113 148.356 233.652 141.933C233.548 141.74 233.444 141.542 233.329 141.349C231.753 138.462 229.945 135.71 227.921 133.119C226.809 131.704 225.626 130.347 224.377 129.052C221.143 125.712 217.405 122.903 213.301 120.729C205.119 116.395 195.646 114.734 186.901 117.382C186.678 117.449 186.459 117.517 186.235 117.59Z" fill="#F0F0F0"/>
<path d="M186.286 117.881C197.646 120.144 208.007 125.941 215.896 134.448C217.575 136.281 219.119 138.287 220.154 140.562C221.145 142.789 221.524 145.241 221.252 147.663C221.043 149.928 220.568 152.219 220.911 154.495C221.273 156.894 222.692 158.856 224.682 160.19C227.116 161.822 229.989 162.48 232.821 163.025C235.966 163.63 239.241 164.208 241.866 166.179C242.184 166.418 242.535 165.909 242.217 165.67C237.651 162.242 231.532 162.962 226.537 160.541C224.206 159.412 222.2 157.571 221.623 154.955C221.118 152.667 221.606 150.303 221.837 148.012C222.08 145.607 221.915 143.295 221.022 141.029C220.108 138.711 218.639 136.64 217.014 134.773C213.297 130.565 208.945 126.969 204.115 124.117C198.621 120.832 192.607 118.514 186.334 117.264C185.945 117.187 185.9 117.804 186.286 117.881Z" fill="white"/>
<path d="M213.517 131.559C214.76 130.037 215.423 128.122 215.388 126.155C215.354 124.188 214.623 122.297 213.327 120.821C213.064 120.523 212.59 120.919 212.854 121.217C214.063 122.59 214.743 124.351 214.772 126.183C214.8 128.015 214.175 129.796 213.01 131.206C212.757 131.513 213.265 131.864 213.517 131.559Z" fill="white"/>
<path d="M221.509 146.529C217.523 146.962 213.522 145.872 210.302 143.476C209.983 143.239 209.632 143.748 209.951 143.985C213.306 146.472 217.473 147.598 221.619 147.138C222.014 147.094 221.902 146.486 221.509 146.529Z" fill="white"/>
<path d="M198.516 121.646C198.157 122.335 197.633 122.924 196.992 123.36C196.35 123.796 195.61 124.066 194.839 124.144C194.444 124.183 194.556 124.792 194.949 124.753C195.801 124.662 196.617 124.364 197.327 123.884C198.037 123.404 198.62 122.756 199.023 121.998C199.067 121.93 199.083 121.848 199.069 121.768C199.054 121.688 199.01 121.616 198.945 121.568C198.877 121.522 198.795 121.504 198.714 121.518C198.634 121.533 198.563 121.579 198.516 121.646Z" fill="white"/>
<path d="M276.772 166.856H0.338631C0.24882 166.856 0.162688 166.82 0.0991824 166.757C0.0356768 166.693 0 166.607 0 166.516C0 166.426 0.0356768 166.34 0.0991824 166.276C0.162688 166.213 0.24882 166.177 0.338631 166.177H276.661C276.751 166.177 276.837 166.213 276.901 166.276C276.964 166.34 277 166.426 277 166.516C277 166.704 276.959 166.856 276.772 166.856Z" fill="#CACACA"/>
<path d="M96.9595 196.751H35.8953C35.8055 196.751 35.7193 196.715 35.6558 196.652C35.5923 196.588 35.5566 196.501 35.5566 196.411C35.5566 196.321 35.5923 196.235 35.6558 196.171C35.7193 196.107 35.8055 196.072 35.8953 196.072H96.8488C96.9386 196.072 97.0248 196.107 97.0883 196.171C97.1518 196.235 97.1874 196.321 97.1874 196.411C97.1874 196.599 97.1465 196.751 96.9595 196.751Z" fill="#CACACA"/>
<path d="M192.792 210H131.727C131.637 210 131.551 209.964 131.488 209.901C131.424 209.837 131.389 209.75 131.389 209.66C131.389 209.57 131.424 209.484 131.488 209.42C131.551 209.356 131.637 209.321 131.727 209.321H192.681C192.771 209.321 192.857 209.356 192.92 209.42C192.984 209.484 193.019 209.57 193.019 209.66C193.019 209.848 192.979 210 192.792 210Z" fill="#CACACA"/>
<path d="M250.359 196.411H189.295C189.205 196.411 189.119 196.376 189.055 196.312C188.992 196.248 188.956 196.162 188.956 196.072C188.956 195.982 188.992 195.895 189.055 195.831C189.119 195.768 189.205 195.732 189.295 195.732H250.248C250.338 195.732 250.424 195.768 250.488 195.831C250.551 195.895 250.587 195.982 250.587 196.072C250.587 196.259 250.546 196.411 250.359 196.411Z" fill="#CACACA"/>
<path d="M112.851 183.502C109.058 183.502 105.585 183.138 102.826 182.276C99.5462 181.251 97.487 179.594 96.7046 177.348C96.337 176.394 96.2272 175.36 96.3864 174.349C96.5456 173.339 96.9681 172.389 97.6112 171.596C102.463 165.253 119.299 163.465 121.558 163.253L126.141 154.547C126.435 152.47 125.047 150.898 127.444 150.858L155.799 150.472C158.153 150.422 157.485 151.885 157.888 153.91L162.209 161.647L143.616 169.519L146.427 176.391L146.243 176.498C140.802 179.664 125.152 183.502 112.851 183.502Z" fill="#2F2E41"/>
<path d="M159.635 161.977C159.635 161.977 185.602 158.996 183.908 170.92C182.215 182.845 162.458 191.291 132.54 170.92L135.927 164.958C135.927 164.958 147.076 164.402 153.849 161.421L159.635 161.977Z" fill="#2F2E41"/>
<path d="M122.873 107.956C122.873 107.956 117.938 107.055 116.592 114.707C115.246 122.359 113.09 140.483 113.09 140.483L106.396 163.765C105.606 164.186 104.952 164.823 104.51 165.602C104.068 166.382 103.856 167.271 103.899 168.167C103.942 169.063 104.238 169.928 104.753 170.661C105.268 171.394 105.98 171.965 106.806 172.308C107.632 172.65 108.539 172.749 109.419 172.594C110.3 172.439 111.118 172.036 111.778 171.432C112.439 170.828 112.915 170.047 113.15 169.182C113.385 168.317 113.369 167.402 113.106 166.546L122.063 141.835L123.771 120.56V109.412C123.771 109.11 123.687 108.813 123.528 108.556C123.37 108.299 123.143 108.091 122.873 107.956Z" fill="#FEB8B8"/>
<path d="M157.611 107.956C157.611 107.956 162.546 107.055 163.892 114.707C165.238 122.359 167.394 140.483 167.394 140.483L174.089 163.765C174.878 164.186 175.532 164.823 175.974 165.602C176.417 166.382 176.628 167.271 176.585 168.167C176.542 169.063 176.246 169.928 175.731 170.661C175.217 171.394 174.505 171.965 173.678 172.308C172.852 172.65 171.946 172.749 171.065 172.594C170.185 172.439 169.367 172.036 168.706 171.432C168.045 170.828 167.57 170.047 167.335 169.182C167.1 168.317 167.115 167.402 167.379 166.546L158.421 141.835L156.714 120.56V109.412C156.714 109.11 156.798 108.813 156.956 108.556C157.115 108.299 157.342 108.091 157.611 107.956Z" fill="#FEB8B8"/>
<path d="M157.235 101.631L147.9 98.1283L129.806 97.8941L122.018 101.631L124.205 114.243C124.205 114.243 119.788 121.746 124.651 129.249L125.743 155.985C125.743 155.985 143.187 166.134 157.912 153.947L154.584 129.089C154.584 129.089 160.151 117.555 155.836 113.271L157.235 101.631Z" fill="#449FE7"/>
<path d="M153.434 105.55L157.236 101.631C157.236 101.631 165.534 106.01 165.363 120.655L154.895 117.419L153.434 105.55Z" fill="#449FE7"/>
<path d="M126.242 105.55L122.202 101.498C122.202 101.498 115.074 107.029 115.245 121.674L124.78 117.419L126.242 105.55Z" fill="#449FE7"/>
<path d="M152.575 173.393C152.575 173.393 149.667 167.255 144.811 170.198C139.955 173.14 131.021 178.027 131.021 178.027C131.021 178.027 128.931 181.531 133.494 180.61C138.057 179.688 152.716 178.969 152.716 178.969L152.575 173.393Z" fill="#FEB8B8"/>
<path d="M144.497 63.6792C144.538 63.6396 144.581 63.6041 144.621 63.5634C147.22 60.9567 147.746 57.2586 145.797 55.3036C143.956 53.456 140.564 53.8289 138.003 56.0752C135.808 53.9784 132.864 53.3939 130.959 54.8414C128.761 56.5105 128.778 60.246 130.997 63.185C131.149 63.3862 131.308 63.5765 131.472 63.7596C128.52 64.8437 125.971 66.8114 124.17 69.3965C122.369 71.9817 121.403 75.0594 121.403 78.2132V92.8618C121.403 93.2913 121.488 93.7167 121.652 94.1135C121.815 94.5104 122.056 94.8709 122.358 95.1747C122.661 95.4784 123.021 95.7193 123.416 95.8837C123.812 96.0481 124.236 96.1327 124.664 96.1327H151.651C152.487 96.1327 153.288 95.7996 153.879 95.2068C154.47 94.614 154.802 93.8099 154.802 92.9715V78.2132C154.802 75.017 153.809 71.9002 151.962 69.2956C150.116 66.6911 147.506 64.7281 144.497 63.6792Z" fill="#2F2E41"/>
<path d="M147.584 90.9084C152.585 85.8912 152.585 77.7567 147.584 72.7396C142.583 67.7224 134.475 67.7224 129.473 72.7396C124.472 77.7567 124.472 85.8912 129.473 90.9084C134.475 95.9256 142.583 95.9256 147.584 90.9084Z" fill="#FFB6B6"/>
<path d="M125.072 73.743C127.999 75.7665 131.472 76.8434 135.026 76.8291C133.758 77.711 132.315 78.3067 130.796 78.5751C135.521 79.592 140.405 79.6195 145.142 78.656C146.195 78.4866 147.211 78.1366 148.145 77.6212C148.611 77.3603 149.016 77.0041 149.336 76.5756C149.655 76.1471 149.881 75.656 149.999 75.1341C150.313 73.3303 148.912 71.6915 147.456 70.587C145.227 68.9218 142.657 67.7745 139.931 67.2281C137.206 66.6817 134.393 66.7499 131.697 67.4278C129.937 67.8843 128.173 68.6556 127.03 70.0738C125.886 71.4921 125.548 73.6786 126.637 75.1391L125.072 73.743Z" fill="#2F2E41"/>
<path d="M56.5745 48.1059L56.9781 47.5601L67.7293 55.5603C67.145 53.7739 65.0769 48.1108 61.6868 45.8512C57.6367 43.1518 54.7872 43.9915 53.2348 46.3356C51.6824 48.6797 52.0148 51.6403 56.0649 54.3399C59.498 56.6282 65.6139 56.31 67.3982 56.16L56.5745 48.1059Z" fill="#F2F2F2"/>
<path d="M218.338 4.3049L218.837 4.76435L209.788 14.6594C211.619 14.2622 217.449 12.7878 220.042 9.64026C223.139 5.88001 222.603 2.94958 220.441 1.15682C218.278 -0.635948 215.308 -0.612205 212.211 3.14806C209.585 6.33547 209.264 12.4707 209.228 14.2666L218.338 4.3049Z" fill="#F2F2F2"/>
<path d="M72.388 109.956L72.8871 110.416L63.8374 120.311C65.6692 119.914 71.4987 118.439 74.0915 115.292C77.189 111.531 76.6529 108.601 74.4904 106.808C72.3279 105.015 69.3582 105.039 66.2606 108.799C63.6349 111.987 63.3142 118.122 63.2773 119.918L72.388 109.956Z" fill="#F2F2F2"/>
<path d="M148.911 15.6439L149.497 15.9843L142.793 27.6076C144.496 26.8226 149.87 24.1191 151.724 20.4838C153.938 16.1409 152.783 13.3959 150.285 12.1144C147.788 10.8328 144.893 11.4999 142.679 15.8429C140.802 19.5243 141.811 25.5841 142.162 27.3456L148.911 15.6439Z" fill="#F2F2F2"/>
<path d="M211.557 88.3429L212.144 88.6833L205.439 100.307C207.142 99.5216 212.517 96.8181 214.37 93.1828C216.584 88.8398 215.429 86.0949 212.932 84.8134C210.434 83.5318 207.54 84.1989 205.325 88.5419C203.448 92.2233 204.457 98.2831 204.808 100.045L211.557 88.3429Z" fill="#F2F2F2"/>
</g>
<defs>
<clipPath id="clip0_1804_521">
<rect width="277" height="210" fill="white"/>
</clipPath>
</defs>
</svg>
