<svg width="291" height="193" viewBox="0 0 291 193" fill="none" xmlns="http://www.w3.org/2000/svg">
<g clip-path="url(#clip0_1528_404)">
<path d="M104.382 111.073C114.354 93.5656 133.377 80.1227 153.515 81.4177C138.661 97.5381 129.999 118.382 129.062 140.263C128.732 148.702 129.244 158.124 123.629 164.443C120.136 168.375 114.796 170.28 109.545 170.679C104.294 171.079 99.0446 170.132 93.8639 169.189L92.6072 169.574C92.1288 149.441 94.4091 128.581 104.382 111.073Z" fill="#F0F0F0"/>
<path d="M153.545 81.8392C138.653 88.9935 125.956 100.942 118.161 115.514C116.476 118.664 115.041 122.006 114.415 125.54C113.789 129.076 114.227 132.441 115.437 135.799C116.543 138.869 118.03 141.881 118.37 145.166C118.727 148.628 117.451 151.865 115.153 154.434C112.342 157.578 108.566 159.526 104.808 161.302C100.635 163.275 96.2692 165.259 93.3135 168.941C92.9554 169.387 92.2827 168.806 92.6402 168.361C97.7826 161.954 106.585 160.75 112.689 155.59C115.537 153.182 117.675 149.903 117.541 146.06C117.423 142.7 115.891 139.593 114.744 136.494C113.54 133.241 112.939 129.969 113.371 126.501C113.813 122.952 115.12 119.547 116.717 116.367C120.319 109.197 125.248 102.613 130.895 96.9224C137.384 90.3809 144.947 84.9955 153.257 80.9993C153.771 80.7521 154.056 81.5937 153.545 81.8392Z" fill="white"/>
<path d="M120.445 110.644C118.162 108.978 116.546 106.556 115.887 103.812C115.228 101.067 115.568 98.1781 116.847 95.6605C117.107 95.152 117.911 95.532 117.65 96.0412C116.456 98.3833 116.139 101.075 116.758 103.629C117.377 106.184 118.891 108.433 121.026 109.972C121.489 110.307 120.905 110.977 120.445 110.644Z" fill="white"/>
<path d="M114.67 134.316C120.391 133.482 125.586 130.527 129.22 126.04C129.58 125.595 130.252 126.175 129.893 126.62C126.103 131.282 120.69 134.346 114.735 135.201C114.168 135.282 114.106 134.397 114.67 134.316V134.316Z" fill="white"/>
<path d="M137.824 91.4731C138.572 92.3014 139.516 92.9311 140.568 93.3057C141.621 93.6803 142.751 93.7881 143.856 93.6193C144.422 93.5311 144.483 94.4168 143.921 94.5045C142.699 94.6853 141.452 94.5648 140.288 94.1535C139.124 93.7422 138.078 93.0526 137.243 92.145C137.157 92.0661 137.104 91.9574 137.095 91.8412C137.087 91.7249 137.123 91.6098 137.196 91.5191C137.274 91.4305 137.383 91.376 137.501 91.3674C137.618 91.3588 137.734 91.3968 137.824 91.4731Z" fill="white"/>
<path d="M193.582 136.648C193.23 136.713 192.878 136.778 192.523 136.85C187.794 137.75 183.147 139.032 178.627 140.683C178.275 140.806 177.921 140.935 177.573 141.067C166.725 145.161 156.733 151.229 148.105 158.964C144.674 162.045 141.483 165.382 138.56 168.946C134.523 173.868 130.538 179.526 125.263 182.735C124.717 183.076 124.149 183.383 123.565 183.654L93.1755 171.074C93.1208 171.011 93.0629 170.955 93.0078 170.891L91.7715 170.444C91.9094 170.25 92.0566 170.052 92.1945 169.857C92.2741 169.744 92.3603 169.634 92.4398 169.521C92.495 169.446 92.5505 169.372 92.596 169.302C92.6143 169.277 92.6329 169.252 92.6483 169.234C92.6938 169.164 92.7436 169.103 92.7862 169.04C93.606 167.927 94.4351 166.819 95.2734 165.714C95.2763 165.707 95.2763 165.707 95.286 165.703C101.695 157.303 108.863 149.362 117.011 142.76C117.257 142.561 117.504 142.355 117.763 142.163C121.453 139.207 125.378 136.557 129.5 134.24C131.761 132.978 134.084 131.831 136.462 130.804C142.609 128.161 149.135 126.5 155.8 125.882C169.087 124.651 182.62 127.674 192.81 136.004C193.07 136.217 193.325 136.427 193.582 136.648Z" fill="#F0F0F0"/>
<path d="M193.354 137.004C177.148 133.769 159.801 135.68 144.786 142.631C141.54 144.134 138.378 145.941 135.747 148.386C133.114 150.833 131.433 153.783 130.373 157.191C129.405 160.306 128.775 163.605 127.064 166.432C125.261 169.411 122.289 171.229 118.905 171.899C114.763 172.72 110.574 172.007 106.501 171.168C101.979 170.235 97.2966 169.196 92.7153 170.36C92.1602 170.501 91.9734 169.633 92.5276 169.492C100.498 167.467 108.253 171.794 116.24 171.342C119.967 171.13 123.652 169.797 125.863 166.648C127.796 163.894 128.447 160.493 129.401 157.33C130.402 154.008 131.896 151.036 134.334 148.525C136.827 145.958 139.925 144.024 143.118 142.445C150.32 138.884 158.228 136.589 166.169 135.438C175.297 134.114 184.585 134.359 193.63 136.161C194.19 136.273 193.91 137.115 193.354 137.004V137.004Z" fill="white"/>
<path d="M149.547 140.115C148.73 137.413 148.901 134.509 150.03 131.922C151.16 129.334 153.174 127.232 155.714 125.99C156.229 125.74 156.641 126.527 156.126 126.776C153.759 127.929 151.883 129.887 150.836 132.299C149.789 134.71 149.64 137.416 150.417 139.927C150.585 140.473 149.715 140.658 149.547 140.115Z" fill="white"/>
<path d="M130.656 155.546C135.727 158.317 141.658 159.079 147.266 157.68C147.822 157.541 148.009 158.409 147.454 158.548C141.615 159.993 135.444 159.187 130.174 156.292C129.672 156.016 130.157 155.271 130.656 155.546Z" fill="white"/>
<path d="M174.989 135.25C175.087 136.362 175.46 137.431 176.075 138.363C176.69 139.294 177.527 140.059 178.511 140.588C179.016 140.858 178.531 141.602 178.029 141.334C176.944 140.745 176.021 139.899 175.34 138.871C174.658 137.843 174.239 136.664 174.12 135.438C174.099 135.323 174.122 135.205 174.186 135.107C174.249 135.009 174.347 134.938 174.461 134.91C174.576 134.886 174.696 134.908 174.795 134.972C174.894 135.036 174.964 135.136 174.989 135.25Z" fill="white"/>
<path d="M135.693 157.402C131.437 136.865 126.117 130.018 126.117 130.018L124.084 128.445L121.64 126.55L121.652 126.307L121.073 126.11L120.936 126.005L120.713 125.834L120.677 125.872L120.602 125.95L109.542 122.199L95.5109 117.442L89.0136 109.014C87.9555 107.642 86.5931 106.532 85.0334 105.773C83.4737 105.014 81.759 104.625 80.0237 104.638L59.2735 104.791C56.4679 104.812 53.7715 105.879 51.7144 107.784L38.0756 120.409L16.8238 130.538L16.788 130.502L16.5648 130.662L13.2812 132.228L13.4167 132.932L11.3844 134.396C11.3844 134.396 6.06444 140.767 1.80849 159.876C0.725826 164.738 0.192899 175.169 0.000540567 188.021C-0.00912157 188.671 0.110829 189.317 0.353416 189.921C0.596002 190.524 0.956386 191.073 1.41361 191.537C1.87084 192 2.41578 192.368 3.01676 192.619C3.61774 192.87 4.26277 193 4.91433 193H118.424V193H132.592C133.243 193 133.888 192.87 134.488 192.619C135.089 192.368 135.633 192.001 136.091 191.538C136.548 191.076 136.908 190.527 137.151 189.924C137.394 189.321 137.515 188.676 137.506 188.026C137.318 174.041 136.785 162.675 135.693 157.402Z" fill="#3F3D56"/>
<path d="M150.256 17.9097C145.84 17.9097 141.605 19.6605 138.482 22.7769C135.359 25.8933 133.605 30.1201 133.605 34.5274C133.605 38.9348 135.359 43.1616 138.482 46.278C141.605 49.3944 145.84 51.1452 150.256 51.1452H274.348C278.765 51.1452 283 49.3944 286.123 46.278C289.245 43.1616 291 38.9348 291 34.5274C291 30.1201 289.245 25.8933 286.123 22.7769C283 19.6605 278.765 17.9097 274.348 17.9097H150.256Z" fill="#E5E5E5"/>
<path d="M150.257 21.2728C146.734 21.2728 143.356 22.6693 140.865 25.155C138.374 27.6408 136.975 31.0121 136.975 34.5275C136.975 38.0428 138.374 41.4142 140.865 43.8999C143.356 46.3857 146.734 47.7821 150.257 47.7821H274.349C277.871 47.7821 281.249 46.3857 283.74 43.8999C286.231 41.4142 287.63 38.0428 287.63 34.5275C287.63 31.0121 286.231 27.6408 283.74 25.155C281.249 22.6693 277.871 21.2728 274.349 21.2728H150.257Z" fill="white"/>
<path d="M72.9074 96.8584C87.9211 96.8584 100.092 84.7119 100.092 69.7285C100.092 54.745 87.9211 42.5985 72.9074 42.5985C57.8937 42.5985 45.7227 54.745 45.7227 69.7285C45.7227 84.7119 57.8937 96.8584 72.9074 96.8584Z" fill="#9E616A"/>
<path d="M65.9529 95.5299C65.8368 95.2747 65.721 95.0187 65.6055 94.7617C65.65 94.7631 65.694 94.7695 65.7385 94.7707L65.9529 95.5299Z" fill="#2F2E41"/>
<path d="M44.9663 43.8322C46.3413 42.7376 47.9482 41.7305 49.7061 41.7871C51.464 41.8436 53.2466 43.4281 52.8824 45.1453C56.1113 39.4399 61.2507 35.0517 67.3985 32.7511C73.5463 30.4505 80.3096 30.3844 86.5013 32.5645C90.8704 34.1029 95.1549 37.1804 96.1586 41.6943C96.4162 42.853 96.4715 44.1236 97.1965 45.0645C98.1105 46.2508 99.8594 46.5192 101.299 46.1018C101.314 46.0977 101.328 46.0934 101.343 46.0892C101.586 46.0063 101.848 45.9981 102.096 46.0658C102.344 46.1334 102.566 46.2738 102.733 46.4687C102.901 46.6636 103.005 46.904 103.034 47.159C103.063 47.4139 103.014 47.6716 102.895 47.8987L101.658 50.1996C103.217 50.5462 104.836 50.5119 106.378 50.0994C106.634 50.0323 106.905 50.046 107.153 50.1386C107.401 50.2311 107.614 50.398 107.764 50.6163C107.913 50.8347 107.991 51.0937 107.987 51.358C107.983 51.6223 107.897 51.8788 107.741 52.0925C103.664 57.6777 96.8544 61.2843 89.9048 61.242C84.9654 61.2119 79.9752 59.513 75.1681 60.6466C73.3085 61.0851 71.5708 61.9336 70.0825 63.1298C68.5943 64.3259 67.3933 65.8395 66.5676 67.5593C65.7419 69.2791 65.3125 71.1616 65.311 73.0686C65.3094 74.9757 65.7356 76.8589 66.5584 78.58C65.0817 76.968 62.2269 77.3497 60.7163 78.9302C59.2058 80.5108 58.8147 82.8698 58.9669 85.0487C59.1997 88.3813 60.508 91.5216 61.8873 94.5779C50.3232 94.2146 39.3855 86.1189 35.7039 75.1693C32.0068 64.1738 35.8814 51.0649 44.9663 43.8322Z" fill="#2F2E41"/>
<path opacity="0.2" d="M26.7568 151.201L34.3815 192.602L38.9565 193L26.7568 151.201Z" fill="black"/>
<path opacity="0.2" d="M110.745 148.079L103.12 192.573L98.5449 193L110.745 148.079Z" fill="black"/>
<path d="M51.4698 29.8988C50.0079 30.508 48.4824 29.8404 47.8427 28.3114C47.1931 26.759 47.7998 25.1831 49.2851 24.5641C50.7706 23.9451 52.2689 24.6144 52.9289 26.1918C53.579 27.7455 52.979 29.2699 51.4698 29.8988ZM48.6694 21.5085L47.507 21.9929C47.2166 22.1125 46.8918 22.1189 46.5969 22.011C46.3019 21.903 46.0584 21.6885 45.9143 21.41L45.8568 21.2977C44.6061 19.0466 44.4629 16.3107 45.4334 13.1703C46.3325 10.3532 46.706 8.37194 45.955 6.57702C45.0866 4.50176 43.2325 3.85169 40.868 4.7934C39.951 5.17555 39.6592 5.16946 38.9375 5.88393C38.7805 6.04123 38.5934 6.16538 38.3873 6.24896C38.1812 6.33254 37.9604 6.37384 37.7379 6.37041C37.5229 6.36788 37.3106 6.32217 37.1136 6.23599C36.9167 6.14981 36.7392 6.02493 36.5916 5.8688C36.3074 5.56792 36.1481 5.17059 36.146 4.75707C36.1439 4.34355 36.2992 3.94465 36.5803 3.64091C37.7934 2.37368 39.2564 1.37114 40.8772 0.696551C45.9574 -1.4205 48.5148 1.70502 49.6851 4.50207C50.8298 7.2379 50.1859 9.77629 49.1513 13.0638C48.2843 15.7954 48.3348 17.8196 49.3197 19.8322C49.3908 19.9844 49.4303 20.1493 49.436 20.3171C49.4416 20.4849 49.4132 20.6521 49.3525 20.8087C49.2917 20.9652 49.1999 21.1079 49.0825 21.2282C48.9651 21.3485 48.8246 21.4438 48.6694 21.5085L48.6694 21.5085Z" fill="#449FE7"/>
<path d="M177.667 42.453H152.977C152.899 42.4535 152.821 42.4386 152.748 42.409C152.676 42.3794 152.61 42.3358 152.554 42.2806C152.498 42.2254 152.454 42.1598 152.424 42.0876C152.394 42.0153 152.378 41.9378 152.378 41.8595C152.378 41.7812 152.394 41.7037 152.424 41.6314C152.454 41.5592 152.498 41.4936 152.554 41.4384C152.61 41.3832 152.676 41.3396 152.748 41.31C152.821 41.2804 152.899 41.2655 152.977 41.266H177.667C177.824 41.2671 177.974 41.3301 178.085 41.4412C178.195 41.5524 178.258 41.7028 178.258 41.8595C178.258 42.0162 178.195 42.1665 178.085 42.2777C177.974 42.3889 177.824 42.4519 177.667 42.453Z" fill="#449FE7"/>
<path d="M208.987 42.6509H184.297C184.219 42.6514 184.141 42.6364 184.069 42.6069C183.996 42.5773 183.93 42.5336 183.874 42.4785C183.819 42.4233 183.775 42.3577 183.744 42.2854C183.714 42.2132 183.699 42.1357 183.699 42.0574C183.699 41.9791 183.714 41.9016 183.744 41.8293C183.775 41.757 183.819 41.6914 183.874 41.6363C183.93 41.5811 183.996 41.5375 184.069 41.5079C184.141 41.4783 184.219 41.4633 184.297 41.4639H208.987C209.066 41.4633 209.143 41.4783 209.216 41.5079C209.289 41.5375 209.355 41.5811 209.41 41.6363C209.466 41.6914 209.51 41.757 209.54 41.8293C209.57 41.9016 209.586 41.9791 209.586 42.0574C209.586 42.1357 209.57 42.2132 209.54 42.2854C209.51 42.3577 209.466 42.4233 209.41 42.4785C209.355 42.5336 209.289 42.5773 209.216 42.6069C209.143 42.6364 209.066 42.6514 208.987 42.6509Z" fill="#449FE7"/>
<path d="M240.308 42.8486H215.618C215.461 42.8476 215.311 42.7846 215.2 42.6734C215.089 42.5622 215.027 42.4118 215.027 42.2551C215.027 42.0984 215.089 41.9481 215.2 41.8369C215.311 41.7257 215.461 41.6627 215.618 41.6616H240.308C240.386 41.6611 240.464 41.6761 240.537 41.7056C240.609 41.7352 240.675 41.7789 240.731 41.834C240.787 41.8892 240.831 41.9548 240.861 42.0271C240.891 42.0993 240.906 42.1768 240.906 42.2551C240.906 42.3334 240.891 42.4109 240.861 42.4832C240.831 42.5555 240.787 42.6211 240.731 42.6762C240.675 42.7314 240.609 42.775 240.537 42.8046C240.464 42.8342 240.386 42.8492 240.308 42.8486H240.308Z" fill="#449FE7"/>
<path d="M271.628 43.0465H246.938C246.781 43.0454 246.631 42.9824 246.52 42.8712C246.41 42.76 246.348 42.6097 246.348 42.453C246.348 42.2963 246.41 42.1459 246.52 42.0347C246.631 41.9236 246.781 41.8606 246.938 41.8595H271.628C271.785 41.8606 271.935 41.9236 272.046 42.0347C272.157 42.1459 272.219 42.2963 272.219 42.453C272.219 42.6097 272.157 42.76 272.046 42.8712C271.935 42.9824 271.785 43.0454 271.628 43.0465Z" fill="#449FE7"/>
<path d="M165.267 36.991C167.802 36.991 169.856 34.9406 169.856 32.4114C169.856 29.8822 167.802 27.8319 165.267 27.8319C162.733 27.8319 160.679 29.8822 160.679 32.4114C160.679 34.9406 162.733 36.991 165.267 36.991Z" fill="#449FE7"/>
<path d="M196.777 36.991C199.312 36.991 201.366 34.9406 201.366 32.4114C201.366 29.8822 199.312 27.8319 196.777 27.8319C194.243 27.8319 192.188 29.8822 192.188 32.4114C192.188 34.9406 194.243 36.991 196.777 36.991Z" fill="#449FE7"/>
<path d="M228.287 36.991C230.821 36.991 232.876 34.9406 232.876 32.4114C232.876 29.8822 230.821 27.8319 228.287 27.8319C225.753 27.8319 223.698 29.8822 223.698 32.4114C223.698 34.9406 225.753 36.991 228.287 36.991Z" fill="#449FE7"/>
<path d="M259.796 36.991C262.331 36.991 264.385 34.9406 264.385 32.4114C264.385 29.8822 262.331 27.8319 259.796 27.8319C257.262 27.8319 255.208 29.8822 255.208 32.4114C255.208 34.9406 257.262 36.991 259.796 36.991Z" fill="#449FE7"/>
</g>
<defs>
<clipPath id="clip0_1528_404">
<rect width="291" height="193" fill="white"/>
</clipPath>
</defs>
</svg>
