<svg width="276" height="210" viewBox="0 0 276 210" fill="none" xmlns="http://www.w3.org/2000/svg">
<g clip-path="url(#clip0_1522_1091)">
<path d="M110.441 43.5492H109.434V15.965C109.434 13.8684 109.021 11.7924 108.219 9.85546C107.417 7.9185 106.241 6.15853 104.759 4.67604C103.276 3.19356 101.516 2.01758 99.5794 1.21527C97.6426 0.412951 95.5667 1.77636e-06 93.4702 0H35.0325C30.7986 -8.07179e-06 26.738 1.682 23.7442 4.67601C20.7503 7.67001 19.0684 11.7308 19.0684 15.9649V167.294C19.0684 169.391 19.4813 171.467 20.2836 173.403C21.0858 175.34 22.2617 177.1 23.7441 178.583C25.2265 180.065 26.9864 181.241 28.9233 182.044C30.8601 182.846 32.936 183.259 35.0325 183.259H93.4701C97.7041 183.259 101.765 181.577 104.758 178.583C107.752 175.589 109.434 171.528 109.434 167.294V63.1841H110.441V43.5492Z" fill="#3F3D56"/>
<path d="M94.1146 4.15353H86.4865C86.8373 5.01361 86.9712 5.94677 86.8765 6.8708C86.7817 7.79482 86.4611 8.68136 85.943 9.45231C85.4249 10.2233 84.7252 10.855 83.9055 11.2918C83.0858 11.7286 82.1712 11.9571 81.2424 11.9571H47.7642C46.8354 11.9571 45.9208 11.7286 45.1011 11.2918C44.2814 10.855 43.5817 10.2233 43.0636 9.45232C42.5455 8.68137 42.2249 7.79483 42.1302 6.8708C42.0354 5.94678 42.1693 5.01361 42.5201 4.15353H35.3955C33.8299 4.15353 32.2796 4.46192 30.8332 5.06108C29.3868 5.66023 28.0725 6.53844 26.9655 7.64554C25.8584 8.75264 24.9803 10.067 24.3811 11.5135C23.782 12.96 23.4736 14.5103 23.4736 16.076V167.183C23.4736 168.749 23.782 170.299 24.3811 171.745C24.9803 173.192 25.8584 174.506 26.9654 175.613C28.0725 176.721 29.3867 177.599 30.8332 178.198C32.2796 178.797 33.8299 179.105 35.3954 179.105H94.1146C95.6802 179.105 97.2304 178.797 98.6769 178.198C100.123 177.599 101.438 176.721 102.545 175.613C103.652 174.506 104.53 173.192 105.129 171.745C105.728 170.299 106.036 168.749 106.036 167.183V16.076C106.036 14.5103 105.728 12.96 105.129 11.5135C104.53 10.067 103.652 8.75264 102.545 7.64554C101.438 6.53844 100.123 5.66023 98.6769 5.06108C97.2304 4.46192 95.6802 4.15353 94.1146 4.15353Z" fill="white"/>
<path d="M129.172 183.285H0.338146C0.248464 183.285 0.162455 183.249 0.0990404 183.186C0.0356257 183.123 0 183.037 0 182.947C0 182.857 0.0356257 182.771 0.0990404 182.708C0.162455 182.644 0.248464 182.609 0.338146 182.609H129.172C129.261 182.609 129.347 182.644 129.411 182.708C129.474 182.771 129.51 182.857 129.51 182.947C129.51 183.037 129.474 183.123 129.411 183.186C129.347 183.249 129.261 183.285 129.172 183.285Z" fill="#CBCBCB"/>
<path d="M64.7553 116.897C80.5259 116.897 93.3105 104.111 93.3105 88.3399C93.3105 72.5684 80.5259 59.7832 64.7553 59.7832C48.9848 59.7832 36.2002 72.5684 36.2002 88.3399C36.2002 104.111 48.9848 116.897 64.7553 116.897Z" fill="#449FE7"/>
<path d="M61.9256 99.2334C61.2832 99.2345 60.6579 99.0266 60.1439 98.6412L60.112 98.6173L53.4012 93.4835C53.0904 93.2452 52.8295 92.948 52.6336 92.6089C52.4376 92.2698 52.3104 91.8954 52.2591 91.5071C52.2078 91.1189 52.2335 90.7243 52.3347 90.3459C52.4359 89.9676 52.6106 89.6128 52.8489 89.302C53.0872 88.9912 53.3843 88.7304 53.7234 88.5344C54.0625 88.3384 54.4369 88.2112 54.8251 88.1599C55.2134 88.1086 55.6079 88.1343 55.9863 88.2355C56.3646 88.3367 56.7193 88.5114 57.0301 88.7497L61.3768 92.0832L71.6484 78.682C71.8866 78.3713 72.1837 78.1106 72.5226 77.9147C72.8615 77.7188 73.2357 77.5916 73.6238 77.5403C74.0119 77.4891 74.4063 77.5148 74.7845 77.6159C75.1627 77.7171 75.5173 77.8918 75.8279 78.13L75.8288 78.1306L75.765 78.2191L75.8305 78.1306C76.4573 78.6123 76.8674 79.3231 76.9707 80.1068C77.0741 80.8906 76.8624 81.6834 76.3819 82.3112L64.3003 98.0668C64.0208 98.4298 63.6614 98.7236 63.25 98.9253C62.8387 99.127 62.3864 99.2312 61.9282 99.2299L61.9256 99.2334Z" fill="white"/>
<path d="M234.756 186.092C235.104 185.53 235.513 185.009 235.976 184.538C236.167 184.34 236.368 184.153 236.576 183.972C237.838 182.848 239.377 182.081 241.035 181.749C242.692 181.417 244.408 181.533 246.006 182.084C247.604 182.635 249.026 183.602 250.126 184.885C251.226 186.168 251.965 187.722 252.266 189.385C253.661 184.227 250.03 179.147 246.381 175.244C242.729 171.343 238.555 167.064 238.576 161.718C238.586 158.744 240.041 156.09 242.238 154.123C242.305 154.063 242.373 154.004 242.442 153.947C245.097 151.671 248.513 150.48 252.008 150.613C258.5 150.961 264.168 155.324 268.105 160.5C274.442 168.828 277.218 180.518 272.782 189.998C268.88 198.336 260.559 203.288 252.066 207.268C250.88 207.824 249.696 208.363 248.515 208.886C248.507 208.888 248.499 208.893 248.491 208.895C248.434 208.92 248.377 208.945 248.324 208.971C248.08 209.079 247.836 209.186 247.594 209.292L247.706 209.366L248.055 209.592C247.934 209.518 247.815 209.447 247.694 209.374C247.658 209.352 247.619 209.331 247.584 209.309C243.412 206.806 239.183 204.158 236.301 200.25C233.312 196.193 232.111 190.381 234.756 186.092Z" fill="#F1F1F1"/>
<path d="M262.587 176.669C263.51 178.771 264.123 180.996 264.404 183.274C264.626 185.305 264.543 187.358 264.157 189.365C263.329 193.489 261.522 197.353 258.89 200.633C256.904 203.124 254.611 205.353 252.065 207.268C250.879 207.824 249.696 208.363 248.515 208.886C248.507 208.888 248.498 208.893 248.49 208.895C248.434 208.92 248.377 208.945 248.323 208.971C248.08 209.079 247.836 209.186 247.594 209.292L247.706 209.366L248.055 209.592C247.934 209.518 247.814 209.447 247.693 209.374C247.657 209.352 247.619 209.331 247.583 209.309C248.501 206.097 248.636 202.713 247.977 199.439C247.318 196.165 245.883 193.096 243.794 190.491C241.693 187.918 239.014 185.878 235.976 184.538C236.166 184.34 236.368 184.153 236.575 183.972C237.746 184.509 238.866 185.149 239.924 185.884C243.707 188.499 246.548 192.262 248.026 196.617C249.345 200.568 249.51 204.814 248.501 208.855C248.71 208.718 248.92 208.578 249.125 208.438C253.011 205.817 256.592 202.67 259.29 198.81C261.616 195.548 263.105 191.764 263.625 187.791C264.142 183.451 263.056 179.183 261.119 175.311C258.979 171.168 256.283 167.337 253.106 163.925C249.915 160.418 246.306 157.316 242.361 154.686C242.272 154.626 242.21 154.534 242.187 154.429C242.164 154.324 242.182 154.215 242.237 154.123C242.28 154.04 242.353 153.976 242.442 153.947C242.487 153.935 242.534 153.934 242.58 153.943C242.626 153.952 242.669 153.972 242.706 154C243.193 154.325 243.676 154.653 244.153 154.99C248.125 157.804 251.733 161.1 254.894 164.803C257.948 168.372 260.727 172.337 262.587 176.669Z" fill="white"/>
<path d="M177.541 13.2596C180.89 13.2596 183.605 10.5444 183.605 7.19494C183.605 3.84552 180.89 1.13028 177.541 1.13028C174.192 1.13028 171.477 3.84552 171.477 7.19494C171.477 10.5444 174.192 13.2596 177.541 13.2596Z" fill="#F1F1F1"/>
<path d="M252.947 94.419C254.989 94.419 256.645 92.7636 256.645 90.7215C256.645 88.6794 254.989 87.024 252.947 87.024C250.905 87.024 249.25 88.6794 249.25 90.7215C249.25 92.7636 250.905 94.419 252.947 94.419Z" fill="#F1F1F1"/>
<path d="M144.74 104.564C146.782 104.564 148.438 102.909 148.438 100.866C148.438 98.8244 146.782 97.1689 144.74 97.1689C142.698 97.1689 141.043 98.8244 141.043 100.866C141.043 102.909 142.698 104.564 144.74 104.564Z" fill="#F1F1F1"/>
<path d="M146.828 210H275.662C275.752 210 275.838 209.964 275.901 209.901C275.965 209.838 276 209.752 276 209.662C276 209.572 275.965 209.486 275.901 209.423C275.838 209.359 275.752 209.324 275.662 209.324H146.828C146.739 209.324 146.653 209.359 146.589 209.423C146.526 209.486 146.49 209.572 146.49 209.662C146.49 209.752 146.526 209.838 146.589 209.901C146.653 209.964 146.739 210 146.828 210Z" fill="#CBCBCB"/>
<path d="M261.444 32.6785C261.614 31.4774 261.336 30.2559 260.665 29.2456C259.994 28.2353 258.975 27.5062 257.803 27.1967C256.63 26.8871 255.384 27.0186 254.302 27.5661C253.22 28.1135 252.376 29.0391 251.93 30.1672L241.476 42.1532L244.543 50.7212L255.057 36.716C255.743 36.9358 256.469 37.0025 257.184 36.9114C257.898 36.8202 258.584 36.5735 259.193 36.1886C259.802 35.8036 260.319 35.2898 260.708 34.6834C261.097 34.0769 261.349 33.3926 261.444 32.6785Z" fill="#FFB7B7"/>
<path d="M218.109 79.3161L252.813 42.2773L248.132 34.835L204.604 71.6489L218.109 79.3161Z" fill="#3F3D56"/>
<path d="M210.364 56.8116C217.087 56.8116 222.537 51.3611 222.537 44.6377C222.537 37.9142 217.087 32.4638 210.364 32.4638C203.641 32.4638 198.19 37.9142 198.19 44.6377C198.19 51.3611 203.641 56.8116 210.364 56.8116Z" fill="#2F2E41"/>
<path d="M211.342 37.7605C213.961 35.104 217.131 33.0541 220.628 31.755C222.873 30.9233 225.317 30.4094 227.663 30.8818C230.01 31.3541 232.23 32.9777 232.885 35.2805C233.42 37.1635 232.867 39.191 232.036 40.9636C231.205 42.7361 230.096 44.3798 229.424 46.2186C228.739 48.0947 228.532 50.1124 228.824 52.0884C229.116 54.0645 229.897 55.9363 231.096 57.534C232.295 59.1318 233.874 60.4048 235.689 61.2375C237.505 62.0702 239.499 62.4363 241.492 62.3025C239.186 62.6117 237.061 63.6954 234.807 64.2722C232.553 64.849 229.893 64.8099 228.218 63.1951C226.446 61.4865 226.41 58.7086 226.496 56.2483C226.623 52.5911 226.75 48.9339 226.878 45.2766C226.943 43.4115 226.998 41.4866 226.326 39.7458C225.653 38.0049 224.055 36.4805 222.189 36.4964C220.774 36.5084 219.522 37.3652 218.388 38.2102C217.254 39.0552 216.054 39.9567 214.645 40.0824C213.236 40.2081 211.628 39.1655 211.733 37.755L211.342 37.7605Z" fill="#2F2E41"/>
<path d="M164.128 126.38C162.96 126.704 161.713 126.589 160.623 126.056C159.534 125.522 158.678 124.608 158.218 123.485C157.758 122.363 157.725 121.111 158.127 119.966C158.528 118.822 159.335 117.864 160.396 117.275L170.912 105.343L179.807 107.265L167.296 119.519C167.604 120.171 167.765 120.882 167.768 121.602C167.771 122.323 167.616 123.035 167.314 123.689C167.012 124.343 166.57 124.923 166.02 125.388C165.469 125.853 164.824 126.191 164.128 126.38H164.128Z" fill="#FFB7B7"/>
<path d="M198.727 83.6635L172.516 116.567L164.526 112.899L195.335 64.9316L198.727 83.6635Z" fill="#3F3D56"/>
<path d="M177.813 183.018L171.566 182.92L172.318 204.213H177.812L177.813 183.018Z" fill="#FFB7B7"/>
<path d="M179.214 202.419L168.393 202.419H168.392C166.563 202.419 164.809 203.145 163.516 204.439C162.223 205.732 161.496 207.486 161.496 209.315V209.539L179.213 209.54L179.214 202.419Z" fill="#2F2E41"/>
<path d="M219.175 177.371L212.351 181.752L226.001 198.175L230.625 195.206L219.175 177.371Z" fill="#FFB7B7"/>
<path d="M230.835 192.939L221.729 198.786L221.729 198.786C220.19 199.774 219.106 201.333 218.717 203.12C218.327 204.907 218.664 206.776 219.652 208.315L219.773 208.504L234.682 198.931L230.835 192.939Z" fill="#2F2E41"/>
<path d="M221.605 112.352C221.605 112.352 206.443 61.9898 201.57 61.3092C196.698 60.6287 188.846 74.2315 188.846 74.2315C178.667 87.2198 168.171 129.292 168.171 129.292C168.171 129.292 185.669 130.387 198.46 137.192C211.251 143.998 226.346 136.848 226.346 136.848L221.605 112.352Z" fill="#3F3D56"/>
<path opacity="0.1" d="M221.605 112.352C221.605 112.352 206.443 61.9898 201.57 61.3092C196.698 60.6287 190.841 74.3696 190.841 74.3696C185.768 95.3357 168.171 129.292 168.171 129.292C168.171 129.292 185.669 130.387 198.46 137.192C211.251 143.998 226.346 136.848 226.346 136.848L221.605 112.352Z" fill="black"/>
<path d="M209.166 97.2838V122.59L212.144 159.249L227.023 186.978L219.922 192.051L199.633 165.674L191.609 139.483L179.006 197.461L169.538 196.785L176.114 116.4L188.592 93.7729L209.166 97.2838Z" fill="#2F2E41"/>
<path d="M193.878 72.8067C189.144 77.541 193.54 82.6134 193.54 82.6134L188.13 94.7873L209.433 100.536L216.878 67.2681L211.806 61.8575C201.661 61.5193 201.656 61.3091 201.656 61.3091C199.878 63.0485 193.878 72.8067 193.878 72.8067Z" fill="#449FE7"/>
<path d="M217.736 63.8216C216.768 63.1073 215.668 62.5922 214.5 62.306C213.332 62.0197 212.119 61.9681 210.931 62.1541C209.743 62.3401 208.603 62.7599 207.579 63.3894C206.554 64.0189 205.664 64.8454 204.961 65.8212C199.606 73.2785 194.654 85.3201 201.477 100.338C212.432 124.453 221.966 136.797 225.842 136.796C226.011 136.797 226.18 136.771 226.34 136.718C228.726 135.908 232.175 131.871 232.8 128.313C233.023 127.04 232.97 125.266 231.447 124.048C227.073 120.55 219.221 109.656 216.771 95.3166C215.417 87.3935 218.042 80.1763 220.483 75.5171C221.514 73.5893 221.816 71.3545 221.333 69.2223C220.85 67.0902 219.614 65.2035 217.853 63.9083V63.9083L217.736 63.8216Z" fill="#3F3D56"/>
<path d="M210.989 55.6156C215.332 53.2417 216.928 47.7967 214.554 43.454C212.18 39.1113 206.736 37.5153 202.393 39.8892C198.051 42.2632 196.455 47.7081 198.828 52.0508C201.202 56.3936 206.647 57.9896 210.989 55.6156Z" fill="#FFB7B7"/>
<path d="M194.089 47.0749H207.028L207.161 45.2171L207.824 47.0749H209.817L210.08 43.3928L211.395 47.0749H215.25V46.8924C215.247 44.329 214.227 41.8714 212.415 40.0587C210.602 38.2461 208.145 37.2265 205.581 37.2236H203.757C201.194 37.2265 198.736 38.2461 196.924 40.0587C195.111 41.8713 194.092 44.329 194.089 46.8924V47.0749Z" fill="#2F2E41"/>
<path d="M213.295 53.7527L218.817 51.9608V38.5507H208.387L208.645 38.8085C212.238 42.3968 216.233 55.1274 213.295 53.7527Z" fill="#2F2E41"/>
</g>
<defs>
<clipPath id="clip0_1522_1091">
<rect width="276" height="210" fill="white"/>
</clipPath>
</defs>
</svg>
