<svg width="222" height="200" viewBox="0 0 222 200" fill="none" xmlns="http://www.w3.org/2000/svg">
<g clip-path="url(#clip0_1528_534)">
<path d="M220.052 76.484C219.973 76.4841 219.895 76.4596 219.83 76.414L112.118 1.13044C111.79 0.902403 111.4 0.780537 111.002 0.781219C110.603 0.781902 110.214 0.9051 109.887 1.13426L2.95016 76.4132C2.86557 76.4728 2.76089 76.4962 2.65913 76.4782C2.55737 76.4603 2.46687 76.4026 2.40755 76.3177C2.34822 76.2328 2.32492 76.1277 2.34278 76.0256C2.36064 75.9235 2.41819 75.8326 2.50277 75.7731L109.439 0.494124C109.897 0.173354 110.442 0.000924658 111 3.70844e-06C111.559 -0.000917241 112.104 0.169713 112.563 0.488971L220.275 75.7723C220.343 75.8199 220.395 75.8881 220.421 75.9668C220.448 76.0456 220.449 76.1309 220.424 76.2103C220.399 76.2897 220.35 76.3591 220.283 76.4083C220.216 76.4576 220.135 76.4841 220.052 76.484L220.052 76.484Z" fill="#3F3D56"/>
<path d="M9.06055 79.1526L111.107 3.25171L213.928 84.5533L116.365 142.598L63.3968 130.481L9.06055 79.1526Z" fill="#E6E6E6"/>
<path d="M67.8681 178.45H17.4545C17.145 178.45 16.8384 178.389 16.5522 178.271C16.2661 178.152 16.0061 177.978 15.7871 177.758C15.5681 177.539 15.3943 177.278 15.2758 176.991C15.1572 176.704 15.0962 176.397 15.0962 176.086C15.0962 175.775 15.1572 175.468 15.2758 175.181C15.3943 174.894 15.5681 174.633 15.7871 174.413C16.0061 174.194 16.2661 174.02 16.5522 173.901C16.8384 173.783 17.145 173.722 17.4545 173.722H67.8681C68.1777 173.722 68.4843 173.783 68.7704 173.901C69.0565 174.02 69.3165 174.194 69.5355 174.413C69.7545 174.633 69.9283 174.894 70.0469 175.181C70.1654 175.468 70.2264 175.775 70.2264 176.086C70.2264 176.397 70.1654 176.704 70.0469 176.991C69.9283 177.278 69.7545 177.539 69.5355 177.758C69.3165 177.978 69.0565 178.152 68.7704 178.271C68.4843 178.389 68.1777 178.45 67.8681 178.45Z" fill="#449FE7"/>
<path d="M35.5418 168.287H17.4545C17.145 168.287 16.8384 168.227 16.5522 168.108C16.2661 167.989 16.0061 167.815 15.7871 167.596C15.5681 167.376 15.3943 167.115 15.2758 166.828C15.1572 166.541 15.0962 166.234 15.0962 165.923C15.0962 165.613 15.1572 165.305 15.2758 165.018C15.3943 164.731 15.5681 164.47 15.7871 164.251C16.0061 164.031 16.2661 163.857 16.5522 163.738C16.8384 163.62 17.145 163.559 17.4545 163.559H35.5418C35.8513 163.559 36.1579 163.62 36.4441 163.738C36.7302 163.857 36.9902 164.031 37.2092 164.251C37.4282 164.47 37.602 164.731 37.7205 165.018C37.8391 165.305 37.9001 165.613 37.9001 165.923C37.9001 166.234 37.8391 166.541 37.7205 166.828C37.602 167.115 37.4282 167.376 37.2092 167.596C36.9902 167.815 36.7302 167.989 36.4441 168.108C36.1579 168.227 35.8513 168.287 35.5418 168.287Z" fill="#449FE7"/>
<path d="M112.543 121.428C112.159 121.429 111.78 121.354 111.425 121.209L48.4897 95.0012V12.9671C48.4906 12.2417 48.7781 11.5462 49.2892 11.0333C49.8003 10.5203 50.4933 10.2318 51.2161 10.231H171.953C172.676 10.2318 173.369 10.5203 173.88 11.0333C174.391 11.5462 174.678 12.2417 174.679 12.9671V95.0585L174.561 95.1092L113.694 121.196C113.329 121.35 112.938 121.429 112.543 121.428Z" fill="white"/>
<path d="M112.542 121.624C112.134 121.624 111.729 121.545 111.351 121.39L48.2949 95.1317V12.9671C48.2958 12.1898 48.6038 11.4447 49.1514 10.8951C49.6991 10.3455 50.4415 10.0364 51.216 10.0355H171.953C172.727 10.0364 173.47 10.3455 174.017 10.8951C174.565 11.4447 174.873 12.1898 174.874 12.9671V95.1875L113.77 121.376C113.382 121.54 112.964 121.624 112.542 121.624ZM49.0738 94.6096L111.648 120.667C112.232 120.905 112.885 120.901 113.466 120.656L174.095 94.6714V12.9671C174.094 12.3971 173.868 11.8507 173.467 11.4477C173.065 11.0447 172.521 10.8179 171.953 10.8173H51.216C50.6481 10.8179 50.1036 11.0447 49.702 11.4477C49.3005 11.8507 49.0746 12.3971 49.0739 12.9671L49.0738 94.6096Z" fill="#3F3D56"/>
<path d="M219.274 75.7023H219.196L174.484 94.8629L113.31 121.079C113.071 121.18 112.814 121.232 112.555 121.234C112.295 121.235 112.038 121.185 111.798 121.087L48.6842 94.8082L2.87427 75.7335L2.80429 75.7023H2.72632C2.0035 75.7031 1.31051 75.9916 0.799403 76.5045C0.288293 77.0175 0.000802024 77.713 0 78.4384V197.264C0.000803053 197.989 0.288293 198.685 0.799403 199.198C1.31051 199.711 2.0035 199.999 2.72632 200H219.274C219.996 199.999 220.689 199.711 221.201 199.198C221.712 198.685 221.999 197.989 222 197.264V78.4384C221.999 77.713 221.712 77.0175 221.201 76.5045C220.689 75.9916 219.996 75.7031 219.274 75.7023ZM221.221 197.264C221.221 197.782 221.016 198.279 220.65 198.646C220.285 199.012 219.79 199.218 219.274 199.218H2.72632C2.2099 199.218 1.71471 199.012 1.34955 198.646C0.984391 198.279 0.779154 197.782 0.778947 197.264V78.4384C0.779654 77.933 0.974993 77.4474 1.32412 77.0832C1.67326 76.719 2.14915 76.5043 2.65234 76.484L48.6842 95.6524L111.499 121.81C112.179 122.087 112.94 122.083 113.617 121.798L174.484 95.7111L219.352 76.484C219.854 76.5058 220.329 76.7211 220.677 77.0851C221.025 77.4491 221.22 77.9338 221.221 78.4384V197.264Z" fill="#3F3D56"/>
<path d="M111.913 98.1667C109.59 98.1711 107.328 97.417 105.469 96.0184L105.354 95.9316L81.0852 77.284C79.9613 76.4197 79.018 75.3418 78.3092 74.1117C77.6003 72.8815 77.1399 71.5234 76.9541 70.1147C76.7683 68.706 76.8608 67.2743 77.2263 65.9015C77.5918 64.5287 78.2231 63.2415 79.0842 62.1135C79.9454 60.9856 81.0195 60.0389 82.2452 59.3275C83.4709 58.6162 84.8242 58.154 86.2279 57.9676C87.6316 57.7811 89.0581 57.8739 90.426 58.2407C91.7939 58.6075 93.0764 59.2412 94.2004 60.1054L109.92 72.2021L147.067 23.5826C147.928 22.4549 149.003 21.5086 150.229 20.7977C151.455 20.0867 152.808 19.6251 154.212 19.4391C155.616 19.2532 157.042 19.3465 158.41 19.7138C159.778 20.0812 161.06 20.7153 162.184 21.58L161.953 21.8947L162.19 21.5845C164.456 23.3327 165.939 25.9119 166.313 28.756C166.687 31.6002 165.922 34.4771 164.185 36.7557L120.491 93.9438C119.48 95.2616 118.181 96.3281 116.693 97.0604C115.206 97.7928 113.57 98.1713 111.913 98.1667Z" fill="#449FE7"/>
</g>
<defs>
<clipPath id="clip0_1528_534">
<rect width="222" height="200" fill="white"/>
</clipPath>
</defs>
</svg>
