<svg width="243" height="213" viewBox="0 0 243 213" fill="none" xmlns="http://www.w3.org/2000/svg">
<g clip-path="url(#clip0_1522_1055)">
<path d="M45.6606 149.998L43.1547 169.782L39.4671 147.308C21.7448 140.493 1.02331 139.169 1.02331 139.169C1.02331 139.169 -3.54945 182.093 11.5482 200.04C26.6459 217.988 42.5637 215.26 55.6968 204.164C68.8296 193.068 74.2044 177.806 59.1067 159.859C55.7463 155.864 51.0027 152.624 45.6606 149.998Z" fill="#F2F2F2"/>
<path d="M40.7465 172.773L41.4906 173.658C50.0885 183.986 55.1072 193.471 56.4642 201.99C56.4861 202.114 56.5 202.237 56.5219 202.361L55.9465 202.45L55.3922 202.528C54.0272 193.245 48.1061 183.495 40.6091 174.485C40.3703 174.193 40.1279 173.895 39.8767 173.606C36.6694 169.82 33.2069 166.174 29.6966 162.757C29.4272 162.49 29.1498 162.222 28.8724 161.955C24.2158 157.468 19.5162 153.392 15.3186 149.948C15.023 149.703 14.723 149.462 14.4267 149.226C7.29788 143.426 1.74537 139.554 0.50738 138.704C0.358235 138.598 0.273744 138.542 0.254639 138.528L0.57032 138.059L0.571005 138.051L0.891059 137.578C0.910183 137.592 1.19446 137.779 1.70732 138.14C3.63379 139.479 8.80908 143.161 15.2261 148.363C15.5143 148.599 15.8143 148.84 16.1099 149.085C19.5193 151.876 23.2434 155.068 26.9956 158.551C27.9395 159.424 28.8593 160.295 29.7549 161.164C30.0367 161.428 30.3141 161.696 30.5835 161.963C34.3786 165.657 37.7662 169.26 40.7465 172.773Z" fill="white"/>
<path d="M15.226 148.363C14.9664 148.65 14.7024 148.94 14.4267 149.226C13.6789 150.002 12.8919 150.739 12.0689 151.435C8.56457 154.404 4.44034 156.547 0 157.706C0.011711 158.093 0.0234455 158.48 0.034472 158.875C4.73499 157.691 9.10326 155.446 12.8057 152.311C13.6842 151.568 14.523 150.779 15.3185 149.948C15.5899 149.666 15.8539 149.376 16.1098 149.085C18.2344 146.695 19.9846 143.996 21.3006 141.08C20.91 140.998 20.5275 140.917 20.1531 140.836C18.8896 143.574 17.2293 146.111 15.226 148.363Z" fill="white"/>
<path d="M29.7549 161.164C29.4681 161.436 29.1739 161.7 28.8724 161.955C28.7843 162.037 28.6882 162.118 28.5964 162.195C24.7951 165.407 20.2752 167.65 15.4221 168.733C10.569 169.816 5.52659 169.707 0.724731 168.414C0.767296 168.82 0.80986 169.227 0.860485 169.633C5.7853 170.885 10.9368 170.942 15.8882 169.801C20.8397 168.66 25.4486 166.353 29.3332 163.071C29.4556 162.968 29.5779 162.865 29.6966 162.757C29.9988 162.494 30.293 162.23 30.5834 161.963C35.0478 157.781 38.216 152.399 39.709 146.46C39.3518 146.32 38.9946 146.18 38.6331 146.043C37.2048 151.842 34.1193 157.097 29.7549 161.164Z" fill="white"/>
<path d="M40.7464 172.773C40.4627 173.058 40.1715 173.334 39.8766 173.606C39.5599 173.896 39.2396 174.181 38.9118 174.458C33.7989 178.768 27.4305 181.302 20.7603 181.681C14.09 182.06 7.47673 180.264 1.91052 176.561C2.0123 177.081 2.11036 177.598 2.22086 178.112C7.95906 181.65 14.6639 183.286 21.3828 182.787C28.1017 182.289 34.493 179.681 39.6486 175.334C39.9764 175.057 40.3004 174.776 40.6091 174.485C40.912 174.214 41.2032 173.938 41.4906 173.658C47.2619 167.953 50.6543 160.264 50.9809 152.146C50.6165 151.9 50.2426 151.669 49.8652 151.433C49.7101 159.464 46.4393 167.119 40.7464 172.773Z" fill="white"/>
<path d="M139.467 50.3494V18.4579C139.467 13.5626 137.527 8.86776 134.073 5.40624C130.619 1.94471 125.934 3.38021e-05 121.05 3.65837e-10H53.6315C51.2129 -1.52599e-05 48.8179 0.477399 46.5834 1.40498C44.3489 2.33257 42.3186 3.69216 40.6083 5.40613C38.8981 7.1201 37.5415 9.15488 36.6159 11.3943C35.6903 13.6337 35.2139 16.0339 35.2139 18.4578V39.6379H34.0293V47.1007H35.2139V55.0611H34.0293V66.504H35.2139V71.4792H34.0293V82.9222H35.2139V193.417C35.2139 195.841 35.6903 198.241 36.6158 200.48C37.5414 202.72 38.898 204.755 40.6082 206.469C42.3184 208.183 44.3487 209.542 46.5832 210.47C48.8177 211.397 51.2126 211.875 53.6313 211.875H121.05C123.468 211.875 125.863 211.397 128.098 210.47C130.332 209.542 132.362 208.183 134.073 206.469C135.783 204.755 137.14 202.72 138.065 200.481C138.991 198.241 139.467 195.841 139.467 193.417V73.0503H140.629V50.3494H139.467Z" fill="#3F3D56"/>
<path d="M121.793 4.80214H112.992C113.397 5.79652 113.552 6.87538 113.442 7.94369C113.333 9.012 112.963 10.037 112.365 10.9283C111.768 11.8196 110.96 12.55 110.015 13.055C109.069 13.56 108.014 13.8242 106.942 13.8243H68.3194C67.2478 13.8242 66.1927 13.56 65.247 13.055C64.3013 12.55 63.4941 11.8196 62.8964 10.9283C62.2987 10.037 61.9288 9.012 61.8195 7.94369C61.7102 6.87537 61.8647 5.79651 62.2694 4.80212H54.0498C50.4021 4.80212 46.9037 6.25438 44.3243 8.83941C41.745 11.4244 40.2959 14.9305 40.2959 18.5863V193.289C40.2959 195.099 40.6516 196.891 41.3428 198.564C42.034 200.236 43.0472 201.756 44.3243 203.036C45.6015 204.315 47.1177 205.331 48.7864 206.024C50.4551 206.716 52.2436 207.073 54.0498 207.073H121.793C125.441 207.073 128.939 205.621 131.518 203.036C134.098 200.45 135.547 196.944 135.547 193.289V18.5863C135.547 16.7761 135.191 14.9837 134.5 13.3113C133.809 11.6389 132.795 10.1194 131.518 8.83941C130.241 7.55943 128.725 6.5441 127.056 5.85138C125.387 5.15866 123.599 4.80213 121.793 4.80214Z" fill="white"/>
<path d="M123.497 65.6002H52.3459C51.8501 65.5997 51.3747 65.402 51.0241 65.0506C50.6735 64.6993 50.4763 64.2229 50.4757 63.726V34.7926C50.4763 34.2957 50.6735 33.8193 51.0241 33.4679C51.3747 33.1166 51.8501 32.9189 52.3459 32.9183H123.497C123.993 32.9189 124.468 33.1166 124.819 33.4679C125.169 33.8193 125.366 34.2957 125.367 34.7926V63.726C125.366 64.2229 125.169 64.6993 124.819 65.0507C124.468 65.402 123.993 65.5997 123.497 65.6002Z" fill="#449FE7"/>
<path d="M116.722 79.2923H59.1208C58.5752 79.2923 58.0519 79.0751 57.6661 78.6885C57.2803 78.3018 57.0636 77.7774 57.0636 77.2306C57.0636 76.6838 57.2803 76.1595 57.6661 75.7728C58.0519 75.3862 58.5752 75.1689 59.1208 75.1689H116.722C117.267 75.1689 117.791 75.3862 118.177 75.7728C118.562 76.1595 118.779 76.6838 118.779 77.2306C118.779 77.7774 118.562 78.3018 118.177 78.6885C117.791 79.0751 117.267 79.2923 116.722 79.2923Z" fill="#449FE7"/>
<path d="M116.722 89.7883H59.1208C58.5256 89.7883 57.9548 89.5513 57.5339 89.1295C57.113 88.7077 56.8766 88.1357 56.8766 87.5392C56.8766 86.9427 57.113 86.3706 57.5339 85.9488C57.9548 85.527 58.5256 85.29 59.1208 85.29H116.722C117.317 85.29 117.888 85.527 118.309 85.9488C118.73 86.3706 118.966 86.9427 118.966 87.5392C118.966 88.1357 118.73 88.7077 118.309 89.1295C117.888 89.5513 117.317 89.7883 116.722 89.7883Z" fill="#E4E4E4"/>
<path d="M116.722 100.097H59.1208C58.5256 100.097 57.9548 99.8598 57.5339 99.438C57.113 99.0162 56.8766 98.4441 56.8766 97.8476C56.8766 97.2511 57.113 96.6791 57.5339 96.2573C57.9548 95.8355 58.5256 95.5985 59.1208 95.5985H116.722C117.317 95.5985 117.888 95.8355 118.309 96.2573C118.73 96.6791 118.966 97.2511 118.966 97.8476C118.966 98.4441 118.73 99.0162 118.309 99.438C117.888 99.8598 117.317 100.097 116.722 100.097Z" fill="#E4E4E4"/>
<path d="M123.497 152.192H52.3459C51.8501 152.191 51.3747 151.993 51.0241 151.642C50.6735 151.291 50.4763 150.814 50.4757 150.317V121.384C50.4763 120.887 50.6735 120.411 51.0241 120.059C51.3747 119.708 51.8501 119.51 52.3459 119.51H123.497C123.993 119.51 124.468 119.708 124.819 120.059C125.169 120.411 125.366 120.887 125.367 121.384V150.317C125.366 150.814 125.169 151.291 124.819 151.642C124.468 151.993 123.993 152.191 123.497 152.192Z" fill="#E4E4E4"/>
<path d="M116.722 166.071H59.1208C58.5256 166.071 57.9548 165.834 57.5339 165.412C57.113 164.991 56.8766 164.419 56.8766 163.822C56.8766 163.226 57.113 162.654 57.5339 162.232C57.9548 161.81 58.5256 161.573 59.1208 161.573H116.722C117.317 161.573 117.888 161.81 118.309 162.232C118.73 162.654 118.966 163.226 118.966 163.822C118.966 164.419 118.73 164.991 118.309 165.412C117.888 165.834 117.317 166.071 116.722 166.071Z" fill="#E4E4E4"/>
<path d="M116.722 176.38H59.1208C58.5256 176.38 57.9548 176.143 57.5339 175.721C57.113 175.299 56.8766 174.727 56.8766 174.131C56.8766 173.534 57.113 172.962 57.5339 172.54C57.9548 172.118 58.5256 171.881 59.1208 171.881H116.722C117.317 171.881 117.888 172.118 118.309 172.54C118.73 172.962 118.966 173.534 118.966 174.131C118.966 174.727 118.73 175.299 118.309 175.721C117.888 176.143 117.317 176.38 116.722 176.38Z" fill="#E4E4E4"/>
<path d="M116.722 186.688H59.1208C58.5256 186.688 57.9548 186.451 57.5339 186.029C57.113 185.608 56.8766 185.036 56.8766 184.439C56.8766 183.843 57.113 183.27 57.5339 182.849C57.9548 182.427 58.5256 182.19 59.1208 182.19H116.722C117.317 182.19 117.888 182.427 118.309 182.849C118.73 183.27 118.966 183.843 118.966 184.439C118.966 185.036 118.73 185.608 118.309 186.029C117.888 186.451 117.317 186.688 116.722 186.688Z" fill="#E4E4E4"/>
<path d="M181.37 54.8553C180.646 49.5362 179.739 43.8254 175.995 39.9857C174.808 38.7674 173.386 37.8027 171.816 37.1499C170.246 36.497 168.561 36.1696 166.861 36.1872C165.162 36.2048 163.484 36.5672 161.927 37.2524C160.371 37.9377 158.97 38.9316 157.808 40.1744C155.083 43.0877 153.879 47.1784 153.769 51.1701C153.659 55.1617 154.546 59.109 155.53 62.9784C160.738 63.0827 165.907 62.063 170.687 59.9887C171.858 59.4156 173.073 58.9375 174.32 58.5589C175.583 58.2368 176.483 59.0473 177.658 59.6125L178.303 58.3752C178.83 59.3596 180.465 59.0678 181.058 58.1213C181.65 57.1747 181.521 55.9625 181.37 54.8553Z" fill="#2F2E41"/>
<path d="M229.071 200.55L225.246 203.085L213.669 189.506L219.314 185.765L229.071 200.55Z" fill="#9E616A"/>
<path d="M232.498 203.619L220.165 211.793L220.062 211.637C219.22 210.361 218.918 208.802 219.223 207.303C219.528 205.804 220.414 204.488 221.687 203.644L221.688 203.644L229.22 198.652L232.498 203.619Z" fill="#2F2E41"/>
<path d="M179.696 207.338H175.111L172.929 189.612L179.697 189.612L179.696 207.338Z" fill="#9E616A"/>
<path d="M180.866 211.793L166.08 211.792V211.605C166.08 210.075 166.686 208.608 167.766 207.527C168.845 206.445 170.309 205.837 171.835 205.837H171.835L180.866 205.838L180.866 211.793Z" fill="#2F2E41"/>
<path d="M147.07 85.522L129.757 73.1272C129.833 72.4779 129.719 71.8203 129.43 71.2346C129.14 70.6488 128.686 70.1601 128.125 69.8279C127.563 69.4956 126.917 69.3342 126.265 69.3633C125.613 69.3924 124.984 69.6107 124.454 69.9916C123.924 70.3726 123.515 70.8997 123.279 71.509C123.042 72.1182 122.987 72.7833 123.12 73.4233C123.254 74.0632 123.57 74.6505 124.031 75.1136C124.491 75.5766 125.076 75.8956 125.714 76.0316C127.879 77.8527 143.686 93.6079 145.949 92.7769C148.246 91.9334 158.29 90.4066 158.29 90.4066L158.569 80.8495L147.07 85.522Z" fill="#9E616A"/>
<path d="M160.673 108.074L160.837 129.882C160.837 129.882 164.584 162.195 165.966 167.653C167.348 173.112 172.957 198.371 172.957 198.371L182.075 196.897L176.203 163.873L177.978 136.502L188.213 163.933L214.203 191.16L220.79 185.834L198.168 152.516L191.259 125.223C191.259 125.223 192.118 111.105 184.376 105.669L160.673 108.074Z" fill="#2F2E41"/>
<path d="M165.911 60.1178C171.431 60.1178 175.906 55.6333 175.906 50.1014C175.906 44.5695 171.431 40.085 165.911 40.085C160.391 40.085 155.917 44.5695 155.917 50.1014C155.917 55.6333 160.391 60.1178 165.911 60.1178Z" fill="#9E616A"/>
<path d="M168.512 111.593L164.797 119.903L175.577 124.742L179.291 116.432L168.512 111.593Z" fill="#2F2E41"/>
<path d="M181.919 69.3739C180.741 67.0247 180.169 64.1226 177.658 63.361C175.962 62.8467 169.104 63.6174 167.559 64.4855C164.989 65.9296 167.318 68.6356 165.801 71.1678C164.153 73.9207 162.504 76.6735 160.856 79.4263C159.722 81.3187 158.577 83.2381 157.964 85.3581C157.352 87.4781 157.322 89.8575 158.366 91.8009C159.3 93.5404 160.993 94.7741 161.933 96.5107C162.91 98.3168 161.156 106.381 160.246 108.222L160.683 108.425C166.729 108.78 172.795 108.576 178.804 107.813C180.295 107.624 181.844 107.377 183.073 106.509C184.883 105.231 185.599 102.912 186.046 100.739C188.199 90.1153 186.746 79.0753 181.919 69.3739Z" fill="#449FE7"/>
<path d="M161.465 92.1248C164.173 89.4579 166.894 86.775 169.123 83.695C171.352 80.615 173.085 77.0896 173.569 73.3159C173.777 72.1118 173.694 70.8756 173.33 69.7098C172.914 68.5668 171.995 67.5525 170.809 67.2917C168.912 66.8743 167.187 68.3916 165.834 69.7874C161.842 73.9028 157.851 78.0182 153.859 82.1336C156.402 85.4877 158.944 88.8419 161.487 92.196L161.465 92.1248Z" fill="#449FE7"/>
<path d="M190.978 94.179C190.136 91.8769 188.612 81.8114 188.612 81.8114L179.076 81.5311L183.739 93.0553L171.016 110.904C171.016 110.904 171.04 110.944 171.083 111.014C170.414 110.906 169.728 111.003 169.115 111.293C168.503 111.582 167.991 112.05 167.648 112.636C167.305 113.221 167.147 113.897 167.193 114.574C167.24 115.252 167.489 115.899 167.909 116.432C168.328 116.965 168.899 117.359 169.545 117.561C170.192 117.764 170.885 117.766 171.532 117.568C172.18 117.37 172.753 116.98 173.177 116.45C173.6 115.92 173.854 115.274 173.905 114.597C173.952 114.624 174.006 114.634 174.06 114.624C174.113 114.615 174.161 114.588 174.196 114.547C175.612 112.766 191.819 96.4812 190.978 94.179Z" fill="#9E616A"/>
<path d="M191.947 87.8222C191.072 84.1199 190.19 80.3975 188.714 76.8919C187.239 73.3862 185.126 70.0751 182.155 67.7067C181.234 66.9059 180.136 66.3365 178.952 66.0458C177.761 65.8104 176.419 66.0739 175.583 66.9554C174.245 68.3661 174.647 70.6304 175.138 72.5137C176.586 78.0666 178.033 83.6195 179.48 89.1724C183.66 88.7284 187.839 88.2844 192.019 87.8404L191.947 87.8222Z" fill="#449FE7"/>
<path d="M178.406 50.8804C178.093 48.4574 177.767 46.014 177.033 43.7324C176.299 41.4508 175.116 39.3138 173.418 38.0213C170.731 35.975 167.251 36.3697 164.238 37.5468C161.908 38.4571 159.633 39.8407 157.99 42.0651C156.346 44.2894 155.423 47.4634 156.035 50.3719C159.249 49.4754 162.463 48.579 165.677 47.6825L165.325 47.976C167.411 49.1539 168.995 51.5909 169.468 54.3503C169.944 57.1001 169.336 59.9276 167.772 62.2364C169.964 61.3184 172.156 60.4005 174.348 59.4825C175.701 58.9159 177.149 58.2631 177.951 56.8097C178.881 55.1247 178.665 52.8913 178.406 50.8804Z" fill="#2F2E41"/>
<path d="M131.218 66.5834L124.788 76.2538C124.635 76.4861 124.426 76.6763 124.181 76.8073C123.936 76.9382 123.662 77.0059 123.384 77.004C123.053 77.0041 122.73 76.9061 122.455 76.7223C122.179 76.5385 121.964 76.2772 121.837 75.9713C121.792 75.8682 121.758 75.7604 121.737 75.6499C121.65 75.2111 121.74 74.7556 121.987 74.3832L128.416 64.7127C128.539 64.5284 128.697 64.37 128.88 64.2467C129.064 64.1234 129.27 64.0375 129.487 63.994C129.703 63.9505 129.926 63.9502 130.143 63.9932C130.36 64.0361 130.566 64.1214 130.75 64.2443C130.934 64.3671 131.092 64.525 131.215 64.709C131.338 64.8931 131.424 65.0996 131.467 65.3168C131.511 65.534 131.511 65.7576 131.468 65.975C131.425 66.1923 131.34 66.399 131.218 66.5834Z" fill="#449FE7"/>
<path d="M125.307 75.474L124.006 77.4198L121.703 79.4541C121.551 79.5881 121.36 79.6682 121.158 79.6819C120.957 79.6956 120.756 79.6421 120.588 79.5298C120.42 79.4175 120.293 79.2526 120.228 79.0608C120.163 78.869 120.163 78.6611 120.228 78.4693L121.236 75.5124L122.506 73.6033L125.307 75.474Z" fill="#3F3D56"/>
<path d="M131.502 61.512L128.28 64.3583C128.174 64.4514 128.092 64.5677 128.038 64.698C127.985 64.8283 127.962 64.9692 127.971 65.1098C127.981 65.2504 128.022 65.387 128.093 65.5089C128.163 65.6308 128.261 65.7349 128.378 65.813L128.987 66.2201L127.225 68.8717C127.197 68.9126 127.178 68.9586 127.169 69.0069C127.159 69.0552 127.159 69.1049 127.169 69.1531C127.179 69.2014 127.198 69.2473 127.225 69.2882C127.252 69.3291 127.288 69.3642 127.328 69.3915C127.369 69.4188 127.415 69.4377 127.463 69.4473C127.511 69.4568 127.561 69.4568 127.609 69.4471C127.657 69.4374 127.703 69.4183 127.744 69.3909C127.785 69.3635 127.82 69.3284 127.847 69.2874L129.61 66.6358L130.22 67.0429C130.422 67.1778 130.669 67.2269 130.907 67.1794C131.146 67.132 131.355 66.9919 131.491 66.7899C131.535 66.7226 131.571 66.6498 131.597 66.5732L132.977 62.4971C133.042 62.3053 133.042 62.0974 132.977 61.9056C132.912 61.7139 132.785 61.5491 132.617 61.4367C132.449 61.3244 132.248 61.2709 132.047 61.2846C131.845 61.2982 131.654 61.3782 131.502 61.5121L131.502 61.512Z" fill="#3F3D56"/>
<path d="M242.555 212.583H0.445404C0.327512 212.583 0.214562 212.536 0.131321 212.452C0.0480789 212.368 0.00134277 212.255 0.00134277 212.137C0.00134277 212.019 0.0480789 211.906 0.131321 211.822C0.214562 211.738 0.327512 211.691 0.445404 211.691H242.555C242.673 211.691 242.786 211.738 242.869 211.822C242.952 211.906 242.999 212.019 242.999 212.137C242.999 212.255 242.952 212.368 242.869 212.452C242.786 212.536 242.673 212.583 242.555 212.583Z" fill="#3F3D56"/>
<path d="M90.446 8.06998H80.3471C80.1487 8.06998 79.9584 7.99099 79.8181 7.85039C79.6778 7.70979 79.599 7.5191 79.599 7.32027C79.599 7.12143 79.6778 6.93074 79.8181 6.79014C79.9584 6.64954 80.1487 6.57056 80.3471 6.57056H90.446C90.6444 6.57056 90.8346 6.64954 90.9749 6.79014C91.1152 6.93074 91.194 7.12143 91.194 7.32027C91.194 7.5191 91.1152 7.70979 90.9749 7.85039C90.8346 7.99099 90.6444 8.06998 90.446 8.06998Z" fill="white"/>
<path d="M95.4955 8.06998C95.9086 8.06998 96.2436 7.73432 96.2436 7.32027C96.2436 6.90621 95.9086 6.57056 95.4955 6.57056C95.0824 6.57056 94.7474 6.90621 94.7474 7.32027C94.7474 7.73432 95.0824 8.06998 95.4955 8.06998Z" fill="white"/>
</g>
<defs>
<clipPath id="clip0_1522_1055">
<rect width="243" height="213" fill="white"/>
</clipPath>
</defs>
</svg>
