<svg width="304" height="217" viewBox="0 0 304 217" fill="none" xmlns="http://www.w3.org/2000/svg">
<g clip-path="url(#clip0_1516_564)">
<path d="M38.8025 34.5452C48.3561 34.5452 56.1009 26.812 56.1009 17.2726C56.1009 7.7332 48.3561 0 38.8025 0C29.2488 0 21.5041 7.7332 21.5041 17.2726C21.5041 26.812 29.2488 34.5452 38.8025 34.5452Z" fill="#FF6584"/>
<path d="M241.982 176.762C235.952 176.762 230.117 174.626 225.515 170.734C220.913 166.843 217.843 161.448 216.849 155.509L216.829 155.383L216.91 155.286C218.262 153.667 219.399 151.879 220.29 149.968C219.305 151.042 218.188 151.988 216.966 152.784L216.558 153.055L216.535 152.567C216.514 152.146 216.504 151.727 216.504 151.323C216.502 148.947 216.83 146.583 217.48 144.298C220.437 133.917 220.943 122.769 218.983 111.165C218.648 109.175 218.48 107.161 218.48 105.143C218.483 96.6168 221.526 88.3696 227.063 81.8786C232.601 75.3877 240.271 71.077 248.702 69.7183C257.132 68.3596 265.771 70.0417 273.073 74.4634C280.374 78.8851 285.861 85.7576 288.551 93.8503L288.632 94.0971L288.391 94.1945C286.58 94.9601 284.659 95.4359 282.699 95.6046C284.77 96.0803 286.895 96.284 289.019 96.2107L289.243 96.2029L289.298 96.4205C290.01 99.2736 290.37 102.203 290.369 105.143L290.368 105.462C290.361 107.714 290.83 109.941 291.743 112C292.657 114.059 293.994 115.903 295.669 117.41C298.391 119.883 300.544 122.915 301.98 126.298C303.416 129.681 304.101 133.334 303.988 137.006C303.875 140.679 302.967 144.283 301.325 147.572C299.684 150.86 297.349 153.754 294.48 156.055L294.348 156.163L294.192 156.092C290.911 154.606 288.521 152.986 286.773 151.053C287.938 153.534 289.507 155.804 291.416 157.772L291.663 158.026L291.356 158.205C287.461 160.473 283.032 161.667 278.522 161.665L278.394 161.665C278.349 161.664 278.303 161.664 278.257 161.664C271.36 161.664 264.822 164.328 260.3 168.984C257.919 171.433 255.072 173.383 251.927 174.718C248.781 176.054 245.4 176.749 241.982 176.762V176.762Z" fill="#F2F2F2"/>
<path d="M232.965 216.846C232.855 216.846 232.748 216.806 232.664 216.734C232.581 216.661 232.526 216.561 232.511 216.452C232.491 216.315 230.578 202.535 232.296 184.22C233.883 167.307 238.98 142.945 254.248 122.938C254.285 122.89 254.331 122.849 254.383 122.819C254.435 122.789 254.493 122.769 254.553 122.761C254.612 122.753 254.673 122.757 254.732 122.772C254.79 122.787 254.845 122.814 254.893 122.851C254.941 122.887 254.981 122.933 255.012 122.985C255.042 123.037 255.062 123.095 255.07 123.154C255.078 123.214 255.074 123.275 255.059 123.333C255.043 123.392 255.016 123.446 254.98 123.494C239.844 143.329 234.788 167.512 233.212 184.306C231.503 202.514 233.402 216.186 233.421 216.322C233.431 216.387 233.426 216.454 233.407 216.517C233.388 216.58 233.356 216.638 233.313 216.688C233.27 216.738 233.216 216.777 233.156 216.805C233.097 216.832 233.031 216.846 232.965 216.846V216.846Z" fill="#3F3D56"/>
<path d="M240.598 149.393C240.501 149.393 240.406 149.363 240.328 149.306C240.249 149.249 240.19 149.168 240.16 149.076C240.13 148.984 240.13 148.885 240.16 148.792C240.19 148.7 240.249 148.62 240.327 148.563C244.678 145.622 249.378 143.233 254.318 141.451C262.038 138.629 273.776 136.071 285.86 139.911C285.918 139.93 285.971 139.959 286.017 139.998C286.063 140.037 286.101 140.084 286.129 140.138C286.157 140.191 286.174 140.25 286.179 140.31C286.184 140.37 286.177 140.431 286.159 140.488C286.141 140.546 286.111 140.599 286.072 140.645C286.033 140.691 285.986 140.729 285.932 140.757C285.878 140.784 285.82 140.801 285.759 140.806C285.699 140.811 285.639 140.805 285.581 140.786C273.745 137.025 262.219 139.541 254.635 142.313C249.773 144.065 245.149 146.414 240.868 149.306C240.79 149.363 240.695 149.393 240.598 149.393V149.393Z" fill="#3F3D56"/>
<path d="M53.7805 182.748C49.4909 182.74 42.7373 183.086 39.0586 185.025C36.2318 186.516 33.6573 188.441 31.4297 190.731C30.5711 191.617 29.7579 192.546 28.9932 193.514C26.8776 186.287 26.6314 178.643 28.2775 171.295C28.3932 170.801 28.3552 170.283 28.1684 169.81C27.9817 169.338 27.6551 168.933 27.2323 168.651C26.8094 168.369 26.3104 168.222 25.8018 168.23C25.2932 168.238 24.7991 168.401 24.3855 168.696C18.4093 173.048 14.5886 180.423 13.6594 187.883C12.4755 197.389 15.2632 206.968 19.1378 215.734L19.1366 215.739C19.1294 215.778 19.1185 215.821 19.1079 215.864C19.0935 215.929 19.0756 215.993 19.0613 216.057C19.0361 216.168 19.0076 216.283 18.9823 216.394L19.6097 216.365C19.6456 216.383 19.6815 216.397 19.7172 216.415H35.4305C35.6387 216.189 35.8327 215.95 36.0113 215.699C37.7501 213.319 38.4706 210.094 39.349 207.183C39.9852 205.076 40.781 203.02 41.7296 201.033C44.1179 196.043 47.4134 191.538 51.4486 187.749C51.5776 187.627 51.7103 187.506 51.843 187.388C52.5188 186.767 53.5664 185.937 54.5901 185.158C54.8138 184.988 54.9786 184.752 55.0613 184.484C55.1439 184.216 55.1403 183.929 55.051 183.663C54.9616 183.397 54.791 183.166 54.5631 183.001C54.3352 182.837 54.0615 182.749 53.7805 182.748V182.748Z" fill="#F2F2F2"/>
<path d="M159.874 34.8109C160.244 35.8429 160.192 36.9785 159.731 37.973C159.27 38.9676 158.435 39.7412 157.408 40.1272C157.181 40.212 156.947 40.2765 156.708 40.32L154.333 54.8385L148.763 49.7028L151.872 36.7031C151.757 35.6077 152.078 34.5111 152.766 33.6503C153.455 32.7895 154.454 32.2338 155.55 32.1032C156.471 31.9977 157.401 32.2083 158.187 32.7004C158.973 33.1924 159.568 33.9367 159.874 34.8109L159.874 34.8109Z" fill="#9E616A"/>
<path d="M118.764 67.7081C118.764 67.7081 123.087 62.0044 138.776 62.1606L147.681 58.93L149.716 40.3027L156.839 41.9961L155.821 65.0263L140.558 73.8319L120.546 77.896L118.764 67.7081Z" fill="#449FE7"/>
<path d="M94.6569 208.133L98.7668 209.882L107.478 194.886L101.412 192.305L94.6569 208.133Z" fill="#9E616A"/>
<path d="M128.619 212.016L133.086 212.016L135.211 194.81L128.618 194.811L128.619 212.016Z" fill="#9E616A"/>
<path d="M128.461 216.669L142.199 216.669V216.495C142.199 215.079 141.635 213.722 140.633 212.72C139.63 211.719 138.27 211.157 136.852 211.156H136.852L134.342 209.256L129.66 211.157L128.461 211.157L128.461 216.669Z" fill="#2F2E41"/>
<path d="M92.158 211.112L104.796 216.489L104.864 216.33C105.42 215.027 105.435 213.557 104.905 212.244C104.376 210.93 103.346 209.88 102.041 209.325L102.041 209.325L100.479 206.594L95.4256 206.51L94.3224 206.04L92.158 211.112Z" fill="#2F2E41"/>
<path d="M133.001 110.188L139.79 151.468L137.942 157.619L140.367 161.976L136.806 200.236L138.252 203.413L134.214 205.9H125.997L125.56 171.262L123.531 166.177V163.374L119.399 142.253L118.638 166.413L117.436 171.507L118.446 175.133L117.126 177.674L105.821 201.913H96.6069L97.3196 196.432C95.6687 195.597 99.7981 193.158 100.195 191.353L98.8382 188.305L100.195 182.548L101.439 171.297L100.127 147.55L100.744 115.57L111.523 107.34L133.001 110.188Z" fill="#2F2E41"/>
<path d="M116.467 55.8255C121.609 55.8255 125.778 51.6628 125.778 46.5279C125.778 41.393 121.609 37.2303 116.467 37.2303C111.324 37.2303 107.155 41.393 107.155 46.5279C107.155 51.6628 111.324 55.8255 116.467 55.8255Z" fill="#9E616A"/>
<path d="M100.287 127.311C100.548 126.844 100.703 126.325 100.742 125.792C100.781 125.258 100.701 124.723 100.51 124.223C100.319 123.723 100.021 123.272 99.6358 122.9C99.2509 122.528 98.789 122.244 98.2826 122.07L98.2606 109.068L92.618 112.797L93.504 124.572C93.2668 125.441 93.357 126.367 93.7576 127.173C94.1581 127.98 94.8412 128.612 95.6773 128.95C96.5135 129.288 97.4446 129.307 98.2942 129.005C99.1439 128.703 99.853 128.1 100.287 127.311Z" fill="#9E616A"/>
<path d="M99.7657 69.7812L97.2448 67.3551L95.393 68.6897C95.393 68.6897 93.5711 70.8728 92.1135 77.422C90.6559 83.9713 92.1135 119.992 92.1135 119.992L100.13 118.901L99.0369 99.9805L102.316 83.9712L99.7657 69.7812Z" fill="#449FE7"/>
<path d="M96.0434 67.9468L104.536 63.896L110.302 58.5558L120.817 58.4772L124.209 62.88L133.164 65.9172L131.671 96.7478L132.689 99.1186C132.689 99.1186 131.98 99.758 131.656 100.116C131.332 100.473 132.103 103.467 132.103 103.467L132.538 106.725L131.332 107.586L132.9 109.435L133.29 112.351C133.29 112.351 105.912 105.557 100.739 116.813C100.466 117.407 101.139 111.595 101.139 111.595L101.812 107.34L101.145 103.521L100.127 102.505L101.834 100.801L100.739 92.7157L96.0434 67.9468Z" fill="#449FE7"/>
<path d="M184.691 207.95H179.651L177.253 188.539H184.691V207.95Z" fill="#FFB6B6"/>
<path d="M187.351 216.669H183.737L183.092 213.262L181.44 216.669H171.854C171.394 216.669 170.947 216.523 170.577 216.251C170.206 215.979 169.933 215.596 169.796 215.158C169.66 214.72 169.667 214.25 169.817 213.816C169.966 213.382 170.251 213.008 170.629 212.747L178.284 207.468V204.024L186.336 204.503L187.351 216.669Z" fill="#2F2E41"/>
<path d="M233.707 197.965L229.371 200.532L217.392 185.058L223.79 181.27L233.707 197.965Z" fill="#FFB6B6"/>
<path d="M240.449 204.11L237.34 205.951L235.044 203.349L235.364 207.121L227.119 212.004C226.724 212.238 226.264 212.34 225.807 212.294C225.349 212.249 224.919 212.059 224.577 211.752C224.236 211.445 224.002 211.037 223.909 210.587C223.816 210.138 223.87 209.671 224.062 209.254L227.949 200.814L226.19 197.851L233.36 194.163L240.449 204.11Z" fill="#2F2E41"/>
<path d="M182.442 83.8398L179.993 99.4299L203.26 99.7354L200.198 84.757L182.442 83.8398Z" fill="#FFB6B6"/>
<path d="M179.903 99.2327L173.258 115.326L172.774 158.362L178.445 199.452H184.72L187.292 159.032L193.616 131.374L199.854 160.301L219.249 188.615H228.779L211.257 157.414L209.23 123.426C209.23 123.426 210.494 109.008 204.025 100.5L202.451 95.9578L179.903 99.2327Z" fill="#2F2E41"/>
<path d="M212.455 110.982C211.807 110.806 211.206 110.49 210.693 110.057C210.181 109.623 209.77 109.083 209.489 108.474C209.209 107.865 209.066 107.202 209.069 106.531C209.073 105.861 209.224 105.199 209.512 104.593L199.614 72.3712L206.894 70.9302L215.947 102.515C216.934 103.064 217.685 103.957 218.058 105.023C218.43 106.088 218.398 107.254 217.967 108.297C217.537 109.341 216.738 110.191 215.722 110.686C214.706 111.181 213.543 111.286 212.455 110.982V110.982Z" fill="#FFB6B6"/>
<path d="M200.712 95.159L183.317 87.0602C182.859 87.0505 182.416 86.891 182.057 86.6061C181.698 86.3213 181.443 85.9268 181.33 85.4831C180.47 82.0839 178.578 78.3056 179.581 69.4825C179.779 67.7733 180.319 66.1211 181.168 64.6236C182.016 63.1262 183.157 61.8139 184.523 60.7645C185.888 59.7151 187.451 58.9498 189.118 58.5139C190.785 58.0781 192.522 57.9805 194.228 58.2269C196.027 58.4841 197.751 59.1182 199.288 60.0875C200.824 61.0569 202.138 62.3397 203.143 63.8517C204.147 65.3637 204.821 67.0708 205.119 68.8609C205.416 70.6511 205.332 72.4839 204.87 74.239C202.851 81.8944 203.067 90.0806 202.837 93.2269C202.803 93.6818 202.621 94.1131 202.318 94.4549C202.016 94.7966 201.609 95.0301 201.161 95.1196C201.028 95.146 200.893 95.1594 200.757 95.1595C200.742 95.1595 200.727 95.1593 200.712 95.159Z" fill="#449FE7"/>
<path d="M163.259 41.0422C163.162 41.2578 163.049 41.4655 162.919 41.6633L171.237 61.1377L176.35 61.7639L176.412 69.5919L167.253 69.3615C166.513 69.3429 165.799 69.0851 165.218 68.6269C164.638 68.1687 164.221 67.5347 164.032 66.8202L157.867 43.5337C156.994 43.2736 156.22 42.7541 155.65 42.0444C155.079 41.3347 154.739 40.4685 154.674 39.5608C154.608 38.6531 154.821 37.7471 155.284 36.9632C155.747 36.1794 156.438 35.5548 157.265 35.1726C158.092 34.7904 159.016 34.6687 159.914 34.8236C160.812 34.9786 161.642 35.4029 162.292 36.0401C162.943 36.6773 163.384 37.4972 163.557 38.3907C163.729 39.2843 163.625 40.2091 163.259 41.0422V41.0422Z" fill="#FFB6B6"/>
<path d="M172.075 60.4437C172.282 60.2606 172.526 60.1242 172.79 60.0439C173.055 59.9636 173.334 59.9412 173.608 59.9783L183.177 61.2718C184.591 61.2535 185.955 61.7959 186.97 62.7803C187.984 63.7646 188.566 65.1105 188.589 66.5228C188.611 67.9352 188.071 69.2986 187.088 70.3143C186.105 71.3299 184.759 71.9149 183.344 71.9408L173.78 73.4803C173.507 73.5242 173.228 73.5089 172.962 73.4353C172.695 73.3618 172.448 73.2317 172.236 73.0541C172.024 72.8764 171.854 72.6553 171.735 72.4058C171.617 72.1563 171.554 71.8843 171.55 71.6082L171.426 61.9066C171.423 61.6305 171.479 61.3569 171.591 61.1044C171.703 60.8519 171.868 60.6266 172.075 60.4437V60.4437Z" fill="#449FE7"/>
<path d="M199.17 80.5331C198.926 80.4046 198.711 80.2249 198.543 80.0063C198.374 79.7877 198.254 79.5352 198.192 79.2662L196.019 69.8719C195.502 68.5574 195.527 67.0917 196.091 65.7962C196.654 64.5007 197.709 63.481 199.024 62.9608C200.338 62.4405 201.806 62.4621 203.105 63.0208C204.405 63.5794 205.429 64.6296 205.954 65.9412L210.779 74.3288C210.917 74.5682 211.001 74.8344 211.026 75.1093C211.052 75.3842 211.018 75.6613 210.926 75.9218C210.834 76.1823 210.688 76.42 210.496 76.6188C210.304 76.8175 210.071 76.9727 209.814 77.0736L200.77 80.6213C200.513 80.7224 200.237 80.7669 199.961 80.7516C199.684 80.7364 199.415 80.6619 199.17 80.5331V80.5331Z" fill="#449FE7"/>
<path d="M198.785 54.914C203.552 52.3118 205.304 46.3433 202.698 41.583C200.092 36.8228 194.115 35.0733 189.347 37.6755C184.58 40.2777 182.828 46.2462 185.434 51.0064C188.04 55.7667 194.017 57.5162 198.785 54.914Z" fill="#FFB6B6"/>
<path d="M187.298 42.3459C185.188 42.334 183.077 42.3221 180.966 42.3103C180.816 40.8739 181.457 39.4449 182.389 38.3413C183.322 37.2377 184.53 36.4067 185.723 35.5896C186.933 34.76 188.188 33.9115 189.627 33.6216C190.833 33.3786 192.08 33.5472 193.299 33.7164C194.915 33.9408 196.532 34.1653 198.148 34.3897C199.922 34.636 201.778 34.9146 203.219 35.9771C205.168 37.4138 204.67 40.7302 206.54 42.2679C212.187 46.9119 209.9 50.9676 210.006 55.2007C203.182 55.9154 196.357 56.6302 189.533 57.3449C188.792 57.4723 188.034 57.4503 187.302 57.2802C186.585 57.0614 185.928 56.469 185.875 55.7226C185.816 54.8889 186.478 54.2065 187.016 53.5661C188.299 51.9786 189.07 50.0395 189.225 48.0053C189.38 45.9712 188.914 43.9378 187.886 42.1743L187.298 42.3459Z" fill="#2F2E41"/>
<path d="M114.085 55.3702C114.045 55.2827 114.005 55.195 113.966 55.1069C113.981 55.1074 113.996 55.1096 114.011 55.11L114.085 55.3702Z" fill="#2F2E41"/>
<path d="M106.896 37.6532C107.339 37.2367 107.913 36.9886 108.52 36.9523C109.122 36.9716 109.733 37.5147 109.608 38.1032C110.714 36.1479 112.474 34.644 114.58 33.8556C116.686 33.0671 119.002 33.0445 121.123 33.7916C122.62 34.3188 124.087 35.3735 124.431 36.9205C124.465 37.3266 124.586 37.7207 124.787 38.0755C124.961 38.2651 125.186 38.3998 125.436 38.463C125.686 38.5262 125.949 38.515 126.192 38.431L126.207 38.4266C126.29 38.3982 126.38 38.3954 126.465 38.4186C126.55 38.4418 126.626 38.4899 126.683 38.5567C126.74 38.6235 126.776 38.7059 126.786 38.7932C126.796 38.8806 126.779 38.9689 126.738 39.0467L126.315 39.8353C126.849 39.9541 127.403 39.9423 127.932 39.8009C128.019 39.778 128.112 39.7827 128.197 39.8144C128.282 39.8461 128.355 39.9033 128.406 39.9781C128.457 40.0529 128.484 40.1417 128.483 40.2323C128.481 40.3228 128.452 40.4108 128.398 40.484C127.695 41.4453 126.776 42.2293 125.715 42.7737C124.655 43.318 123.481 43.6077 122.289 43.6196C120.597 43.6093 118.888 43.027 117.241 43.4155C116.604 43.5658 116.009 43.8566 115.499 44.2665C114.99 44.6765 114.578 45.1952 114.295 45.7845C114.013 46.3739 113.866 47.0191 113.865 47.6726C113.864 48.3262 114.01 48.9716 114.292 49.5614C113.786 49.009 112.809 49.1398 112.291 49.6814C112.053 49.9714 111.877 50.3071 111.774 50.6678C111.671 51.0285 111.643 51.4064 111.692 51.7783C111.83 52.9172 112.169 54.0228 112.692 55.044C110.692 54.9825 108.758 54.3094 107.153 53.1156C105.547 51.9218 104.348 50.2648 103.716 48.3684C103.084 46.472 103.05 44.4276 103.619 42.5113C104.187 40.5951 105.332 38.8994 106.896 37.6531V37.6532Z" fill="#2F2E41"/>
<path d="M291.901 217H0.442183C0.335275 217 0.232854 216.957 0.157368 216.881C0.0818818 216.806 0.0394897 216.703 0.0394897 216.597C0.0394897 216.49 0.0818818 216.388 0.157368 216.312C0.232854 216.236 0.335275 216.194 0.442183 216.193H291.901C291.954 216.193 292.007 216.204 292.056 216.224C292.105 216.244 292.15 216.274 292.188 216.311C292.225 216.349 292.255 216.393 292.276 216.442C292.296 216.491 292.306 216.544 292.306 216.597C292.306 216.65 292.296 216.702 292.276 216.751C292.255 216.8 292.225 216.845 292.188 216.882C292.15 216.92 292.105 216.949 292.056 216.97C292.007 216.99 291.954 217 291.901 217V217Z" fill="#CCCCCC"/>
<path d="M70.0195 4.02023C61.6359 2.88873 52.0647 7.41334 49.8918 15.5771C49.3442 14.1256 48.3487 12.8855 47.049 12.0359C45.7493 11.1864 44.2128 10.7713 42.6615 10.8508C41.1101 10.9303 39.6242 11.5002 38.4184 12.4781C37.2127 13.4561 36.3495 14.7914 35.9536 16.2913L36.9133 16.9777C54.8791 20.857 73.4764 20.773 91.4063 16.7317C85.5748 10.6121 78.4031 5.15172 70.0195 4.02023Z" fill="#F0F0F0"/>
<path d="M34.0659 27.0504C25.6824 25.9189 16.1112 30.4435 13.9383 38.6073C13.3907 37.1558 12.3951 35.9156 11.0955 35.0661C9.79578 34.2165 8.25927 33.8015 6.7079 33.881C5.15653 33.9605 3.67063 34.5303 2.46487 35.5083C1.25911 36.4862 0.395918 37.8216 0 39.3215L0.959794 40.0078C18.9255 43.8872 37.5229 43.8032 55.4528 39.7618C49.6212 33.6423 42.4495 28.1819 34.0659 27.0504Z" fill="#F0F0F0"/>
</g>
<defs>
<clipPath id="clip0_1516_564">
<rect width="304" height="217" fill="white"/>
</clipPath>
</defs>
</svg>
