<svg width="345" height="226" viewBox="0 0 345 226" fill="none" xmlns="http://www.w3.org/2000/svg">
<g clip-path="url(#clip0_1545_636)">
<path d="M15.2324 208.18C16.6878 208.691 18.2504 208.819 19.7697 208.552C21.2889 208.285 22.7137 207.631 23.9067 206.654C26.9448 204.106 27.8975 199.911 28.6724 196.025L30.9649 184.531L26.1654 187.833C22.7137 190.207 19.1844 192.657 16.7947 196.096C14.405 199.534 13.3624 204.228 15.2819 207.949" fill="#E6E6E6"/>
<path d="M15.974 222.896C15.37 218.499 14.7484 214.046 15.1732 209.603C15.5496 205.656 16.7549 201.803 19.2087 198.642C20.5111 196.967 22.096 195.532 23.892 194.402C24.3602 194.107 24.7913 194.848 24.3251 195.142C21.2174 197.104 18.8137 200.001 17.4605 203.415C15.966 207.212 15.7261 211.351 15.9835 215.385C16.1391 217.824 16.4697 220.247 16.8018 222.667C16.828 222.777 16.8116 222.892 16.756 222.99C16.7004 223.088 16.6096 223.161 16.5021 223.194C16.3923 223.224 16.2754 223.209 16.1766 223.153C16.0778 223.097 16.0051 223.004 15.9743 222.895L15.974 222.896Z" fill="#F2F2F2"/>
<path d="M20.3223 215.841C20.9463 216.789 21.8043 217.56 22.8135 218.081C23.8226 218.601 24.9489 218.853 26.0839 218.813C29.0014 218.674 31.4326 216.641 33.6209 214.71L40.095 209L35.8104 208.796C32.7291 208.648 29.5682 208.51 26.6334 209.46C23.6985 210.41 20.9918 212.694 20.4553 215.728" fill="#E6E6E6"/>
<path d="M14.2664 225.423C17.1747 220.282 20.5477 214.57 26.5754 212.744C28.2512 212.238 30.0085 212.056 31.7524 212.21C32.3022 212.257 32.1649 213.103 31.6163 213.056C28.6929 212.814 25.7751 213.585 23.3542 215.24C21.0246 216.824 19.2106 219.026 17.6755 221.361C16.7351 222.792 15.8927 224.283 15.0504 225.772C14.7812 226.248 13.9941 225.904 14.2664 225.423Z" fill="#F2F2F2"/>
<path d="M217.24 116.903H89.627V225.479H217.24V116.903Z" fill="white"/>
<path d="M217.611 225.85H89.2559V116.532H217.611V225.85ZM89.9978 225.109H216.869V117.273H89.9978V225.109Z" fill="#3F3D56"/>
<path d="M169.385 138.025H137.481V225.479H169.385V138.025Z" fill="#449FE7"/>
<path d="M169.385 138.025H137.481V225.479H169.385V138.025Z" fill="#449FE7"/>
<path opacity="0.2" d="M89.9971 124.87V142.486L217.239 150.624L216.864 128.887L89.9971 124.87Z" fill="black"/>
<path d="M224.659 106.897H82.207V138.025H224.659V106.897Z" fill="white"/>
<path d="M225.029 138.396H81.8359V106.527H225.029V138.396ZM82.5779 137.654H224.288V107.268H82.5779V137.654Z" fill="#3F3D56"/>
<path d="M169.385 103.933H137.481V137.654H169.385V103.933Z" fill="#449FE7"/>
<path d="M150.018 74.5304C158.439 87.0006 150.505 107.057 150.505 107.057C150.505 107.057 128.916 106.896 120.495 94.4253C112.073 81.9551 120.008 61.8985 120.008 61.8985C120.008 61.8985 141.596 62.0602 150.018 74.5304Z" fill="#449FE7"/>
<path d="M153.881 74.5304C145.46 87.0006 153.394 107.057 153.394 107.057C153.394 107.057 174.983 106.896 183.404 94.4253C191.826 81.9551 183.891 61.8985 183.891 61.8985C183.891 61.8985 162.303 62.0602 153.881 74.5304Z" fill="#449FE7"/>
<path d="M131.175 83.922C133.019 83.922 134.513 82.4288 134.513 80.5869C134.513 78.7449 133.019 77.2517 131.175 77.2517C129.331 77.2517 127.836 78.7449 127.836 80.5869C127.836 82.4288 129.331 83.922 131.175 83.922Z" fill="#3F3D56"/>
<path d="M151.207 117.644C153.051 117.644 154.546 116.151 154.546 114.309C154.546 112.467 153.051 110.973 151.207 110.973C149.363 110.973 147.868 112.467 147.868 114.309C147.868 116.151 149.363 117.644 151.207 117.644Z" fill="#3F3D56"/>
<path d="M151.207 190.646C153.051 190.646 154.546 189.153 154.546 187.311C154.546 185.469 153.051 183.976 151.207 183.976C149.363 183.976 147.868 185.469 147.868 187.311C147.868 189.153 149.363 190.646 151.207 190.646Z" fill="#3F3D56"/>
<path d="M140.078 95.039C141.308 95.039 142.304 94.0436 142.304 92.8156C142.304 91.5877 141.308 90.5922 140.078 90.5922C138.849 90.5922 137.853 91.5877 137.853 92.8156C137.853 94.0436 138.849 95.039 140.078 95.039Z" fill="#3F3D56"/>
<path d="M173.465 76.14C174.694 76.14 175.691 75.1446 175.691 73.9166C175.691 72.6887 174.694 71.6932 173.465 71.6932C172.236 71.6932 171.239 72.6887 171.239 73.9166C171.239 75.1446 172.236 76.14 173.465 76.14Z" fill="#3F3D56"/>
<path d="M158.997 128.39C160.227 128.39 161.223 127.395 161.223 126.167C161.223 124.939 160.227 123.943 158.997 123.943C157.768 123.943 156.771 124.939 156.771 126.167C156.771 127.395 157.768 128.39 158.997 128.39Z" fill="#3F3D56"/>
<path d="M145.643 157.295C146.872 157.295 147.869 156.299 147.869 155.071C147.869 153.843 146.872 152.848 145.643 152.848C144.414 152.848 143.417 153.843 143.417 155.071C143.417 156.299 144.414 157.295 145.643 157.295Z" fill="#3F3D56"/>
<path d="M157.143 167.3C158.372 167.3 159.369 166.304 159.369 165.077C159.369 163.849 158.372 162.853 157.143 162.853C155.914 162.853 154.917 163.849 154.917 165.077C154.917 166.304 155.914 167.3 157.143 167.3Z" fill="#3F3D56"/>
<path d="M154.546 209.174C155.775 209.174 156.772 208.179 156.772 206.951C156.772 205.723 155.775 204.727 154.546 204.727C153.317 204.727 152.32 205.723 152.32 206.951C152.32 208.179 153.317 209.174 154.546 209.174Z" fill="#3F3D56"/>
<path d="M291.817 221.386L287.746 221.385L285.81 205.701L291.818 205.701L291.817 221.386Z" fill="#FFB7B7"/>
<path d="M292.854 225.328L279.729 225.327V225.161C279.729 223.808 280.267 222.51 281.225 221.553C282.183 220.596 283.483 220.058 284.837 220.058H284.838L292.855 220.058L292.854 225.328Z" fill="#2F2E41"/>
<path d="M301.759 221.386L305.83 221.385L307.766 205.701L301.758 205.701L301.759 221.386Z" fill="#FFB7B7"/>
<path d="M300.721 220.058L308.738 220.058H308.738C310.093 220.058 311.392 220.596 312.35 221.553C313.308 222.51 313.847 223.808 313.847 225.161V225.327L300.721 225.328L300.721 220.058Z" fill="#2F2E41"/>
<path d="M290.912 98.815C292.66 95.2996 291.225 91.0341 287.706 89.2875C284.186 87.5409 279.916 88.9748 278.168 92.4901C276.419 96.0054 277.855 100.271 281.374 102.018C284.893 103.764 289.163 102.33 290.912 98.815Z" fill="#FFB7B7"/>
<path d="M279.3 144.547C279.3 144.547 277.053 153.898 278.177 158.387C279.3 162.876 282.671 193.55 282.671 193.55L284.917 217.865L293.905 218.613L292.781 190.183L293.905 165.495L300.271 189.435V217.95L309.802 218.324L310.007 181.206C310.007 181.206 310.756 152.028 305.888 148.287C301.02 144.547 300.271 143.798 300.271 143.798L279.3 144.547Z" fill="#2F2E41"/>
<path d="M292.868 103.399L301.395 107.888L302.518 146.791C302.518 146.791 297.65 143.798 290.16 147.539C282.671 151.28 277.803 148.661 277.803 148.661L282.296 131.828L280.424 109.384L283.102 106.956L292.868 103.399Z" fill="#CBCBCB"/>
<path d="M283.103 106.248L281.547 107.513C281.547 107.513 271.811 112.376 271.437 115.743L278.177 134.073C278.177 134.073 280.049 138.187 278.552 139.684C277.054 141.18 275.556 144.921 275.93 146.791C276.305 148.661 273.683 156.517 276.679 156.517C279.675 156.517 286.79 138.561 286.416 131.454C286.041 124.347 285.782 105.73 283.103 106.248Z" fill="#2F2E41"/>
<path d="M289.649 103.82L293.079 103.25C293.079 103.25 305.811 106.617 307.684 112.228L302.441 125.32C302.441 125.32 306.186 149.261 305.062 149.261H303.939C303.939 149.261 306.935 151.505 305.062 152.254C303.19 153.002 298.696 158.987 297.573 156.368C296.45 153.75 289.709 122.702 290.458 115.969C291.207 109.235 288.984 104.526 289.649 103.82Z" fill="#2F2E41"/>
<path d="M291.138 88.6933L291.471 88.0234L289.794 87.1911C289.794 87.1911 287.944 84.1846 284.597 85.0295C281.25 85.8744 279.744 86.38 279.744 86.38L278.071 87.2207L278.911 88.055L277.405 88.5607L278.411 89.0601L277.24 89.7322L277.87 93.1777C277.87 93.1777 278.917 90.5644 280.929 91.5631C282.941 92.5617 286.622 91.0468 286.622 91.0468L289.82 97.2285C289.82 97.2285 290.479 95.0615 291.655 95.6393C291.655 95.6393 294.66 90.8592 291.138 88.6933Z" fill="#2F2E41"/>
<path d="M301.553 154.333C301.368 153.882 301.284 153.396 301.308 152.909C301.331 152.422 301.461 151.946 301.689 151.514C301.916 151.083 302.236 150.707 302.625 150.412C303.013 150.117 303.462 149.911 303.939 149.809L305.381 138.044L310.078 142.034L307.989 152.594C308.108 153.407 307.926 154.234 307.475 154.921C307.024 155.608 306.337 156.105 305.544 156.319C304.751 156.534 303.906 156.45 303.171 156.084C302.435 155.718 301.859 155.095 301.553 154.333Z" fill="#FFB7B7"/>
<path d="M281.464 153.524C281.6 153.055 281.632 152.563 281.557 152.081C281.482 151.599 281.302 151.14 281.03 150.735C280.758 150.33 280.4 149.99 279.982 149.738C279.564 149.486 279.096 149.329 278.611 149.277L275.929 137.731L271.682 142.197L274.88 152.476C274.847 153.297 275.117 154.1 275.638 154.735C276.159 155.37 276.895 155.792 277.706 155.921C278.518 156.051 279.349 155.878 280.041 155.436C280.734 154.994 281.24 154.314 281.464 153.524H281.464Z" fill="#FFB7B7"/>
<path d="M301.734 109.179C301.734 109.179 306.602 107.309 308.1 112.92C309.598 118.531 311.471 129.753 311.471 129.753C311.564 135.994 311.232 135.994 311.471 142.098L310.347 147.709L303.981 146.961L304.259 132.677L300.985 118.157L301.734 109.179Z" fill="#2F2E41"/>
<path d="M274.807 113.499L272.499 113.745C272.499 113.745 270.314 115.369 270.314 119.11C270.314 122.85 269.939 134.073 269.939 134.073C269.939 134.073 269.727 134.335 271.437 143.798C272.271 148.411 273.711 150.588 273.711 150.588L278.36 146.276L277.803 135.195L279.301 129.21L274.807 113.499Z" fill="#2F2E41"/>
<path d="M344.629 225.85H0.370968C0.272581 225.85 0.178224 225.811 0.108654 225.741C0.0390837 225.672 0 225.577 0 225.479C0 225.381 0.0390837 225.287 0.108654 225.217C0.178224 225.148 0.272581 225.109 0.370968 225.109H344.629C344.727 225.109 344.822 225.148 344.891 225.217C344.961 225.287 345 225.381 345 225.479C345 225.577 344.961 225.672 344.891 225.741C344.822 225.811 344.727 225.85 344.629 225.85Z" fill="#3F3D56"/>
<path d="M85.5632 115.704C90.0762 115.704 93.7348 112.049 93.7348 107.541C93.7348 103.033 90.0762 99.3781 85.5632 99.3781C81.0501 99.3781 77.3916 103.033 77.3916 107.541C77.3916 112.049 81.0501 115.704 85.5632 115.704Z" fill="#FFB8B8"/>
<path d="M82.6131 155.842C82.5102 155.842 82.4068 155.837 82.303 155.828C81.789 155.785 81.29 155.634 80.8384 155.385C80.3869 155.136 79.9932 154.795 79.683 154.383C79.3728 153.972 79.1532 153.499 79.0385 152.997C78.9238 152.495 78.9166 151.974 79.0175 151.469C79.0413 151.351 79.0713 151.235 79.1073 151.121L67.0468 136.873C66.6538 136.405 66.4223 135.823 66.3867 135.213C66.351 134.603 66.5132 133.998 66.849 133.488L66.8708 133.461L77.7268 122.768C78.3195 122.184 79.12 121.86 79.9522 121.866C80.7845 121.872 81.5803 122.207 82.1647 122.799C82.749 123.392 83.074 124.191 83.0681 125.022C83.0622 125.854 82.726 126.649 82.1333 127.233C82.1197 127.246 82.106 127.259 82.0921 127.272L74.2295 134.739L82.8371 148.539C83.0002 148.548 83.1624 148.568 83.3226 148.599C84.213 148.777 85.0056 149.278 85.5464 150.007C86.0873 150.735 86.3378 151.639 86.2494 152.541C86.161 153.444 85.7399 154.281 85.0679 154.891C84.3959 155.501 83.521 155.84 82.6131 155.842H82.6131Z" fill="#FFB8B8"/>
<path d="M99.0213 221.146H103.1L105.041 205.431L99.0205 205.431L99.0213 221.146Z" fill="#FFB8B8"/>
<path d="M97.9814 219.816L106.014 219.816H106.015C107.372 219.816 108.674 220.355 109.634 221.314C110.594 222.273 111.134 223.573 111.134 224.929V225.096L97.9817 225.096L97.9814 219.816Z" fill="#2F2E41"/>
<path d="M58.4795 215.513L61.9844 217.598L71.7008 205.086L66.5284 202.01L58.4795 215.513Z" fill="#FFB8B8"/>
<path d="M58.2675 213.838L65.1695 217.943L65.1698 217.944C66.3363 218.637 67.1791 219.766 67.5129 221.08C67.8466 222.395 67.6439 223.788 66.9493 224.953L66.9492 224.953L66.8641 225.096L55.5635 218.375L58.2675 213.838Z" fill="#2F2E41"/>
<path d="M104.063 215.596H99.4952C99.1254 215.596 98.7685 215.46 98.4935 215.213C98.2185 214.966 98.045 214.626 98.0065 214.258L93.4018 171.021C93.3902 170.912 93.3431 170.81 93.2677 170.731C93.1923 170.651 93.0928 170.599 92.9846 170.581C92.8764 170.564 92.7656 170.583 92.6691 170.635C92.5726 170.686 92.4958 170.769 92.4507 170.868L84.1438 189.243L69.4368 213.198C69.2465 213.505 68.9518 213.734 68.6066 213.841C68.2615 213.949 67.8891 213.929 67.5575 213.785L61.6822 211.203C61.488 211.117 61.3141 210.992 61.1722 210.834C61.0302 210.676 60.9235 210.49 60.8589 210.288C60.7944 210.086 60.7736 209.873 60.7979 209.662C60.8222 209.452 60.8911 209.249 60.9999 209.067L74.5197 186.453L78.6661 167.4C77.362 159.138 82.9526 146.854 83.0093 146.73L83.037 146.67L98.4365 140.658L98.5137 140.752C104.587 160.661 108.288 182.085 105.555 214.225C105.521 214.598 105.35 214.945 105.074 215.199C104.798 215.452 104.437 215.594 104.063 215.596Z" fill="#2F2E41"/>
<path d="M82.417 148.683L82.3453 148.533C82.311 148.461 78.8868 141.247 76.2472 133.536C75.7399 132.045 75.5481 130.465 75.684 128.896C75.8199 127.327 76.2805 125.803 77.0366 124.421C77.8026 123.025 78.8505 121.803 80.1139 120.833C81.3773 119.862 82.8288 119.164 84.3763 118.784C87.0628 118.14 89.8912 118.483 92.3463 119.748C94.8013 121.013 96.7196 123.118 97.7517 125.678C99.8455 130.908 99.1782 136.49 98.5502 140.881L98.5377 140.969L98.4576 141.007L82.417 148.683Z" fill="#449FE7"/>
<path d="M95.4706 102.93H82.4951V97.28C85.3431 96.1497 88.13 95.1885 89.8146 97.28C91.3147 97.28 92.7533 97.8752 93.814 98.9348C94.8747 99.9944 95.4706 101.431 95.4706 102.93H95.4706Z" fill="#2F2E41"/>
<path d="M81.7768 96.2829C74.0198 96.2829 71.8486 105.996 71.8486 111.475C71.8486 114.531 73.2321 115.624 75.406 115.994L76.1738 111.903L77.972 116.17C78.5827 116.173 79.2242 116.161 79.8893 116.148L80.499 114.894L81.8585 116.126C87.3038 116.134 91.7049 116.927 91.7049 111.475C91.7049 105.996 89.8008 96.2829 81.7768 96.2829Z" fill="#2F2E41"/>
<path d="M116.257 107.153C116.306 107.243 116.352 107.336 116.394 107.432C116.602 107.903 116.709 108.413 116.707 108.928C116.705 109.443 116.593 109.952 116.381 110.421C116.168 110.89 115.858 111.309 115.472 111.651C115.085 111.992 114.631 112.248 114.139 112.402C114.025 112.437 113.908 112.466 113.791 112.49L107.055 129.894C106.833 130.463 106.432 130.945 105.914 131.268C105.395 131.592 104.786 131.74 104.176 131.69L104.143 131.684L89.5438 127.293C88.7477 127.053 88.0795 126.507 87.6863 125.775C87.2931 125.043 87.2069 124.184 87.4468 123.389C87.6866 122.593 88.2328 121.925 88.9653 121.532C89.6979 121.138 90.5568 121.051 91.3535 121.29C91.3717 121.296 91.3899 121.301 91.408 121.307L101.737 124.62L109.734 110.458C109.664 110.311 109.603 110.159 109.554 110.004C109.283 109.138 109.344 108.203 109.725 107.379C110.105 106.556 110.779 105.903 111.614 105.548C112.449 105.193 113.387 105.16 114.245 105.457C115.103 105.754 115.82 106.358 116.257 107.153L116.257 107.153Z" fill="#FFB8B8"/>
<path d="M246.033 62.9479C240.575 55.6525 230.587 53.8918 225.624 57.5967C220.66 61.3017 219.52 71.3692 224.977 78.6646C230.029 85.4175 239.181 87.2592 244.222 84.7292C244.206 84.8082 244.205 84.8896 244.219 84.9689L244.503 86.3725C244.525 86.4795 244.574 86.5791 244.645 86.662C244.716 86.745 244.807 86.8083 244.909 86.8462C245.012 86.884 245.122 86.8951 245.23 86.8783C245.338 86.8614 245.44 86.8173 245.526 86.7501L247.933 84.872C248.019 84.8048 248.086 84.7167 248.129 84.6161C248.171 84.5156 248.187 84.4058 248.175 84.2973C248.164 84.1888 248.124 84.0851 248.061 83.9962C247.997 83.9072 247.912 83.8359 247.814 83.789L246.519 83.174C246.473 83.1535 246.426 83.1385 246.377 83.1293C250.262 79.0259 251.095 69.7154 246.033 62.9479Z" fill="#CCCCCC"/>
<path d="M234.095 60.1935C236.764 60.6171 239.169 62.0484 240.813 64.1919C242.457 66.3354 243.214 69.0275 242.928 71.7125C242.87 72.3275 243.832 72.3235 243.89 71.7125C244.165 68.8185 243.335 65.9275 241.566 63.6194C239.797 61.3113 237.219 59.7566 234.35 59.2672C233.745 59.1645 233.485 60.09 234.095 60.1935Z" fill="white"/>
<path d="M63.8799 72.0982C68.6511 64.3376 66.6 54.4152 61.3201 51.176C56.0402 47.9369 46.2533 50.5969 41.4821 58.3575C37.0657 65.5408 38.7326 74.7168 42.948 78.4619C42.8685 78.4759 42.7925 78.5051 42.7239 78.5477L41.5232 79.3299C41.4317 79.3895 41.3569 79.4715 41.306 79.5681C41.2552 79.6647 41.2299 79.7727 41.2325 79.8819C41.2352 79.991 41.2657 80.0976 41.3212 80.1917C41.3767 80.2857 41.4554 80.364 41.5497 80.4191L44.1858 81.9595C44.2801 82.0146 44.387 82.0447 44.4962 82.047C44.6055 82.0492 44.7135 82.0236 44.8101 81.9724C44.9066 81.9212 44.9884 81.8463 45.0478 81.7546C45.1072 81.663 45.1421 81.5577 45.1493 81.4487L45.2433 80.0198C45.2455 79.97 45.2418 79.9201 45.2322 79.8711C50.4847 81.9625 59.4539 79.2972 63.8799 72.0982Z" fill="#CCCCCC"/>
<path d="M62.0334 59.9994C62.6253 62.634 62.182 65.3951 60.7951 67.7127C59.4081 70.0303 57.1833 71.7275 54.5799 72.454C53.9861 72.6267 54.3451 73.5183 54.9351 73.3467C57.729 72.5333 60.1118 70.6948 61.6056 68.1999C63.0994 65.7051 63.5937 62.7383 62.9895 59.8946C62.8615 59.2947 61.9045 59.3951 62.0334 59.9994Z" fill="white"/>
<path d="M302.437 15.9074C302.038 6.80885 294.775 -0.263329 288.585 0.00752681C282.394 0.278383 275.778 7.95784 276.177 17.0564C276.547 25.4782 283.073 32.1471 288.665 32.8909C288.607 32.947 288.56 33.0137 288.527 33.0874L287.971 34.4072C287.929 34.5078 287.913 34.6176 287.925 34.7261C287.937 34.8346 287.976 34.9382 288.04 35.0271C288.103 35.116 288.188 35.1873 288.287 35.2341C288.386 35.2809 288.495 35.3018 288.604 35.2947L291.651 35.0958C291.76 35.0887 291.866 35.0539 291.958 34.9946C292.049 34.9353 292.124 34.8536 292.176 34.7572C292.227 34.6608 292.253 34.553 292.251 34.4438C292.248 34.3347 292.218 34.2279 292.163 34.1337L291.44 32.8973C291.414 32.8548 291.383 32.8155 291.347 32.7803C296.871 31.574 302.807 24.3476 302.437 15.9074Z" fill="#449FE7"/>
<path d="M294.124 6.91787C296.091 8.76922 297.272 11.3045 297.423 14.0005C297.573 16.6964 296.682 19.3472 294.933 21.4057C294.537 21.881 295.335 22.4187 295.727 21.9465C297.586 19.7094 298.529 16.8532 298.367 13.9506C298.206 11.048 296.952 8.31373 294.857 6.29607C294.414 5.87072 293.678 6.48937 294.124 6.91787Z" fill="white"/>
<path d="M245.497 42.1741C243.111 42.0239 240.794 41.3111 238.737 40.0939C236.68 38.8768 234.942 37.19 233.663 35.1719C233.305 34.5998 232.837 33.9711 233.085 33.2669C233.172 32.9969 233.347 32.7641 233.583 32.6067C233.819 32.4493 234.102 32.3764 234.384 32.4001C235.116 32.489 235.587 33.2036 235.678 33.8883C235.78 34.665 235.231 35.2747 234.554 35.5633C232.899 36.2684 231.23 35.1786 229.882 34.3089C226.81 32.3272 223.432 30.535 219.71 30.3092C216.266 30.1002 212.573 31.449 210.658 34.432C210.323 34.9539 211.155 35.4361 211.488 34.9168C213.388 31.9584 217.228 30.8959 220.567 31.3531C222.557 31.6668 224.478 32.3184 226.248 33.2797C227.166 33.7555 228.056 34.2829 228.928 34.8373C229.758 35.4157 230.637 35.9194 231.556 36.3425C233.089 36.9714 235.118 36.9222 236.188 35.4742C237.187 34.1234 236.415 31.8743 234.745 31.4946C234.378 31.4224 234 31.4422 233.643 31.5522C233.286 31.6622 232.962 31.8589 232.7 32.1248C232.438 32.3907 232.246 32.7173 232.141 33.0755C232.037 33.4337 232.023 33.8122 232.101 34.1771C232.267 34.9726 232.867 35.7511 233.331 36.4013C234.726 38.3611 236.543 39.9834 238.648 41.1488C240.754 42.3141 243.094 42.9927 245.497 43.1347C246.116 43.1653 246.114 42.2046 245.497 42.1741H245.497Z" fill="#CCCCCC"/>
</g>
<defs>
<clipPath id="clip0_1545_636">
<rect width="345" height="226" fill="white"/>
</clipPath>
</defs>
</svg>
