<svg width="234" height="236" viewBox="0 0 234 236" fill="none" xmlns="http://www.w3.org/2000/svg">
<g clip-path="url(#clip0_1516_651)">
<path d="M59.0277 226.468C58.7695 226.48 58.5139 226.412 58.2955 226.274C58.0771 226.135 57.9065 225.933 57.8068 225.694C57.7071 225.456 57.6831 225.192 57.738 224.939C57.793 224.686 57.9243 224.456 58.1141 224.281C58.1458 224.154 58.1686 224.063 58.2004 223.937C57.9533 223.309 57.5244 222.768 56.9686 222.386C56.4129 222.003 55.7556 221.795 55.081 221.789C54.4064 221.782 53.7453 221.978 53.1825 222.35C52.6196 222.722 52.1805 223.254 51.9216 223.878C50.4276 227.379 48.494 231.003 49.4557 234.859C43.1039 221.382 45.264 204.618 54.651 193.094C57.2457 191.663 59.3487 189.12 59.8962 186.169C58.6121 186.604 57.011 185.558 57.9766 184.204C58.3951 183.687 58.8176 183.173 59.2361 182.656C54.3581 177.455 48.5461 185.629 53.9153 192.648C52.1589 194.853 50.6375 197.235 49.3759 199.756C49.6673 197.079 49.3195 194.371 48.3614 191.854C47.3903 189.509 45.5701 187.534 43.9672 185.506C42.0183 183.036 38.0072 184.176 37.745 187.311C39.5436 187.903 39.7772 190.503 37.7199 190.859C38.2587 196.691 42.0646 202.051 47.3065 204.609C45.3708 210.046 44.6149 215.834 45.0893 221.587C44.164 214.864 36.9548 213.232 31.9159 210.56C31.5952 210.354 31.2216 210.246 30.8406 210.249C30.4597 210.252 30.0878 210.366 29.7704 210.577C29.4531 210.788 29.2039 211.087 29.0533 211.437C28.9028 211.788 28.8573 212.174 28.9225 212.55C29.618 212.833 30.2836 213.185 30.9097 213.6C31.203 213.797 31.4282 214.081 31.5543 214.411C31.6804 214.742 31.7013 215.103 31.6142 215.446C31.527 215.789 31.336 216.097 31.0674 216.327C30.7987 216.557 30.4656 216.698 30.1137 216.731C32.6536 223.024 39.2203 227.25 45.9647 227.226C46.6128 230.046 47.5519 232.79 48.7668 235.415H58.7768C58.8127 235.304 58.845 235.189 58.8773 235.078C57.9508 235.136 57.0206 235.081 56.1075 234.913C58.5589 232.007 60.4547 230.525 59.028 226.468L59.0277 226.468Z" fill="#F2F2F2"/>
<path d="M148.269 226.468C148.527 226.48 148.783 226.412 149.001 226.274C149.22 226.135 149.39 225.933 149.49 225.694C149.59 225.456 149.614 225.192 149.559 224.939C149.504 224.686 149.372 224.456 149.183 224.281C149.151 224.154 149.128 224.063 149.096 223.937C149.343 223.309 149.772 222.768 150.328 222.386C150.884 222.003 151.541 221.795 152.216 221.789C152.89 221.782 153.551 221.978 154.114 222.35C154.677 222.722 155.116 223.254 155.375 223.878C156.869 227.379 158.803 231.003 157.841 234.859C164.193 221.382 162.033 204.618 152.646 193.094C150.051 191.663 147.948 189.12 147.4 186.169C148.685 186.604 150.286 185.558 149.32 184.204C148.902 183.687 148.479 183.173 148.061 182.656C152.939 177.455 158.751 185.629 153.381 192.648C155.138 194.853 156.659 197.235 157.921 199.756C157.629 197.079 157.977 194.371 158.935 191.854C159.906 189.509 161.727 187.534 163.329 185.506C165.278 183.036 169.289 184.176 169.552 187.311C167.753 187.903 167.519 190.503 169.577 190.859C169.038 196.691 165.232 202.051 159.99 204.609C161.926 210.046 162.682 215.834 162.207 221.587C163.133 214.864 170.342 213.232 175.381 210.56C175.701 210.354 176.075 210.246 176.456 210.249C176.837 210.252 177.209 210.366 177.526 210.577C177.844 210.788 178.093 211.087 178.243 211.437C178.394 211.788 178.439 212.174 178.374 212.55C177.679 212.833 177.013 213.185 176.387 213.6C176.094 213.797 175.868 214.081 175.742 214.411C175.616 214.742 175.595 215.103 175.682 215.446C175.77 215.789 175.961 216.097 176.229 216.327C176.498 216.557 176.831 216.698 177.183 216.731C174.643 223.024 168.076 227.25 161.332 227.226C160.684 230.046 159.745 232.79 158.53 235.415H148.52C148.484 235.304 148.452 235.189 148.419 235.078C149.346 235.136 150.276 235.081 151.189 234.913C148.738 232.007 146.842 230.525 148.269 226.468L148.269 226.468Z" fill="#F2F2F2"/>
<path d="M151.98 227.956L147.67 228.938L141.835 212.759L148.198 211.31L151.98 227.956Z" fill="#FFB6B6"/>
<path d="M153.156 232.423L139.9 235.443L139.861 235.275C139.55 233.905 139.795 232.468 140.542 231.278C141.29 230.089 142.479 229.246 143.847 228.934L143.847 228.934L145.851 226.543L150.787 227.354L151.944 227.09L153.156 232.423Z" fill="#2F2E41"/>
<path d="M221.522 149.095L223.892 152.831L210.624 163.761L207.126 158.246L221.522 149.095Z" fill="#FFB6B6"/>
<path d="M225.331 146.488L232.62 157.977L232.475 158.069C231.29 158.823 229.855 159.074 228.485 158.768C227.115 158.462 225.923 157.624 225.171 156.438L225.171 156.437L222.249 155.35L221.355 150.423L220.719 149.42L225.331 146.488Z" fill="#2F2E41"/>
<path d="M84.1067 109.15L83.042 102.972L99.2292 95.6544L102.725 89.4583C102.612 88.9146 102.652 88.3503 102.839 87.8276C103.026 87.3049 103.354 86.8442 103.787 86.4965C104.219 86.1487 104.739 85.9274 105.29 85.857C105.84 85.7865 106.399 85.8698 106.905 86.0974C107.411 86.325 107.844 86.6883 108.157 87.1469C108.47 87.6056 108.65 88.1419 108.677 88.6966C108.704 89.2512 108.578 89.8027 108.312 90.29C108.046 90.7773 107.651 91.1815 107.169 91.458L101.419 100.358L84.1067 109.15Z" fill="#A0616A"/>
<path d="M79.186 104.1L86.4756 100.372L88.4053 107.625L83.3419 111.383L79.186 104.1Z" fill="#449FE7"/>
<path d="M62.8287 227.394L67.2361 227.394L69.3329 210.374L62.8276 210.375L62.8287 227.394Z" fill="#A0616A"/>
<path d="M68.7029 227.791V224.8L67.5441 224.871L62.8274 225.151L61.7357 225.218L60.9012 235.236L60.8564 235.773H63.9861L64.0867 235.24L64.5412 232.815L65.7148 235.24L65.9719 235.773H74.2691C74.7629 235.77 75.2355 235.572 75.5842 235.222C75.933 234.872 76.1299 234.399 76.132 233.905C76.4822 232.267 69.5821 228.728 68.7029 227.791Z" fill="#2F2E41"/>
<path d="M10.5094 159.851L9.48193 164.142L25.5253 170.152L27.0415 163.819L10.5094 159.851Z" fill="#A0616A"/>
<path d="M9.10257 165.477L12.0083 166.175L12.2096 165.03L13.0376 160.373L13.2269 159.295L3.69 156.146L3.1787 155.978L2.44899 159.024L2.94363 159.247L5.19264 160.254L2.56401 160.832L1.98597 160.957L0.05139 169.035C-0.0606916 169.516 0.0214419 170.022 0.279972 170.444C0.538501 170.865 0.952543 171.167 1.43218 171.284C2.94105 172.007 7.98816 166.115 9.10257 165.477Z" fill="#2F2E41"/>
<path d="M69.6436 117.245L63.9704 114.59L52.6568 128.297L45.7655 130.042C45.2713 129.789 44.717 129.679 44.164 129.722C43.611 129.766 43.0807 129.961 42.6317 130.287C42.1827 130.613 41.8325 131.058 41.6197 131.57C41.407 132.083 41.34 132.645 41.4262 133.194C41.5123 133.742 41.7483 134.256 42.1079 134.679C42.4676 135.102 42.937 135.417 43.4643 135.589C43.9916 135.762 44.5562 135.785 45.0959 135.656C45.6355 135.528 46.1292 135.252 46.5222 134.861L56.6133 131.65L69.6436 117.245Z" fill="#A0616A"/>
<path d="M150.075 66.5055C148.872 66.5055 147.697 66.1485 146.697 65.4796C145.697 64.8108 144.918 63.8601 144.457 62.7479C143.997 61.6357 143.877 60.4118 144.111 59.231C144.346 58.0503 144.925 56.9657 145.775 56.1144C146.626 55.2631 147.709 54.6834 148.889 54.4486C150.068 54.2137 151.291 54.3342 152.402 54.7949C153.513 55.2556 154.462 56.0358 155.13 57.0368C155.799 58.0378 156.155 59.2146 156.155 60.4185C156.153 62.0323 155.512 63.5795 154.372 64.7206C153.232 65.8618 151.687 66.5037 150.075 66.5055ZM150.075 55.0301C149.01 55.0301 147.97 55.3462 147.085 55.9382C146.199 56.5303 145.509 57.3719 145.102 58.3565C144.695 59.3411 144.588 60.4245 144.796 61.4698C145.003 62.515 145.516 63.4751 146.269 64.2287C147.022 64.9823 147.981 65.4955 149.025 65.7034C150.069 65.9113 151.151 65.8046 152.135 65.3968C153.118 64.9889 153.959 64.2983 154.55 63.4122C155.142 62.526 155.457 61.4842 155.457 60.4185C155.456 58.9899 154.888 57.6203 153.879 56.6101C152.87 55.6 151.502 55.0318 150.075 55.0301Z" fill="#E6E6E6"/>
<path d="M149.646 62.7117C149.633 62.7117 149.621 62.7113 149.609 62.7107C149.501 62.7055 149.395 62.6769 149.3 62.627C149.204 62.5772 149.12 62.5071 149.053 62.4217L148.096 61.1889C148.035 61.1111 147.991 61.0222 147.964 60.9271C147.938 60.832 147.931 60.7328 147.943 60.6349C147.955 60.5371 147.987 60.4426 148.036 60.3569C148.084 60.2712 148.149 60.1959 148.227 60.1354L148.261 60.1086C148.339 60.048 148.428 60.0033 148.523 59.9771C148.618 59.951 148.717 59.9438 148.815 59.956C148.913 59.9682 149.007 59.9996 149.093 60.0484C149.178 60.0972 149.254 60.1624 149.314 60.2402C149.362 60.3024 149.424 60.3534 149.494 60.3897C149.563 60.426 149.64 60.4468 149.719 60.4507C149.798 60.4545 149.876 60.4413 149.949 60.4119C150.022 60.3826 150.088 60.3378 150.142 60.2806L152.087 58.2253C152.224 58.0809 152.412 57.9968 152.611 57.9914C152.81 57.986 153.003 58.0597 153.147 58.1964L153.179 58.2268C153.251 58.2946 153.308 58.3759 153.348 58.4659C153.388 58.5559 153.41 58.653 153.413 58.7516C153.416 58.8501 153.399 58.9482 153.364 59.0403C153.329 59.1324 153.276 59.2166 153.208 59.2881L150.19 62.4772C150.12 62.5513 150.035 62.6102 149.942 62.6506C149.848 62.6909 149.747 62.7117 149.646 62.7117Z" fill="#E6E6E6"/>
<path d="M119.722 140.201C118.519 140.201 117.344 139.844 116.344 139.175C115.344 138.506 114.565 137.555 114.104 136.443C113.644 135.331 113.524 134.107 113.758 132.926C113.993 131.746 114.572 130.661 115.422 129.81C116.273 128.958 117.356 128.379 118.536 128.144C119.715 127.909 120.938 128.029 122.049 128.49C123.16 128.951 124.109 129.731 124.777 130.732C125.445 131.733 125.802 132.91 125.802 134.114C125.8 135.728 125.159 137.275 124.019 138.416C122.879 139.557 121.334 140.199 119.722 140.201ZM119.722 128.725C118.657 128.725 117.617 129.041 116.731 129.634C115.846 130.226 115.156 131.067 114.749 132.052C114.342 133.036 114.235 134.12 114.443 135.165C114.65 136.21 115.163 137.17 115.916 137.924C116.669 138.678 117.628 139.191 118.672 139.399C119.716 139.607 120.798 139.5 121.782 139.092C122.765 138.684 123.606 137.994 124.197 137.107C124.789 136.221 125.104 135.18 125.104 134.114C125.103 132.685 124.535 131.316 123.526 130.305C122.517 129.295 121.149 128.727 119.722 128.725Z" fill="#E6E6E6"/>
<path d="M119.293 136.407C119.281 136.407 119.269 136.407 119.256 136.406C119.148 136.401 119.043 136.372 118.947 136.322C118.851 136.272 118.767 136.202 118.701 136.117L117.743 134.884C117.683 134.806 117.638 134.717 117.612 134.622C117.586 134.527 117.579 134.428 117.591 134.33C117.603 134.232 117.634 134.138 117.683 134.052C117.732 133.966 117.797 133.891 117.874 133.831L117.909 133.804C117.987 133.743 118.076 133.699 118.171 133.672C118.266 133.646 118.365 133.639 118.462 133.651C118.56 133.664 118.655 133.695 118.74 133.744C118.826 133.792 118.901 133.858 118.962 133.935C119.01 133.998 119.071 134.049 119.141 134.085C119.211 134.121 119.288 134.142 119.366 134.146C119.445 134.15 119.524 134.137 119.597 134.107C119.67 134.078 119.736 134.033 119.79 133.976L121.734 131.921C121.871 131.776 122.06 131.692 122.259 131.687C122.457 131.681 122.65 131.755 122.795 131.892L122.827 131.922C122.898 131.99 122.956 132.071 122.996 132.161C123.036 132.251 123.058 132.348 123.061 132.447C123.063 132.545 123.046 132.643 123.011 132.736C122.976 132.828 122.923 132.912 122.855 132.983L119.837 136.172C119.767 136.247 119.683 136.306 119.589 136.346C119.496 136.386 119.395 136.407 119.293 136.407Z" fill="#E6E6E6"/>
<path d="M53.0856 58.1231C51.883 58.1231 50.7075 57.7661 49.7076 57.0972C48.7077 56.4284 47.9284 55.4777 47.4682 54.3655C47.008 53.2533 46.8876 52.0294 47.1222 50.8486C47.3568 49.6679 47.9359 48.5833 48.7862 47.732C49.6366 46.8807 50.72 46.301 51.8994 46.0662C53.0789 45.8313 54.3014 45.9518 55.4124 46.4125C56.5234 46.8732 57.473 47.6534 58.1411 48.6544C58.8092 49.6554 59.1658 50.8322 59.1658 52.0361C59.164 53.6499 58.5229 55.1971 57.383 56.3382C56.2431 57.4794 54.6976 58.1213 53.0856 58.1231ZM53.0856 46.6477C52.0211 46.6477 50.9804 46.9638 50.0953 47.5558C49.2101 48.1479 48.5202 48.9895 48.1129 49.9741C47.7055 50.9587 47.5989 52.0421 47.8066 53.0874C48.0142 54.1326 48.5269 55.0927 49.2796 55.8463C50.0324 56.5999 50.9914 57.1131 52.0355 57.321C53.0796 57.5289 54.1619 57.4222 55.1454 57.0144C56.1289 56.6065 56.9695 55.9159 57.561 55.0298C58.1524 54.1436 58.4681 53.1018 58.4681 52.0361C58.4665 50.6075 57.8989 49.2379 56.8898 48.2278C55.8807 47.2176 54.5126 46.6494 53.0856 46.6477Z" fill="#E6E6E6"/>
<path d="M52.6564 54.3293C52.6442 54.3293 52.6319 54.3289 52.6197 54.3283C52.5118 54.3231 52.4062 54.2945 52.3103 54.2446C52.2144 54.1948 52.1304 54.1247 52.0641 54.0393L51.1063 52.8065C51.0458 52.7287 51.0012 52.6398 50.9751 52.5447C50.949 52.4496 50.9418 52.3504 50.954 52.2525C50.9662 52.1547 50.9976 52.0602 51.0462 51.9745C51.0949 51.8888 51.16 51.8135 51.2377 51.753L51.2722 51.7262C51.3499 51.6656 51.4388 51.6209 51.5338 51.5947C51.6288 51.5686 51.728 51.5614 51.8258 51.5736C51.9235 51.5858 52.0179 51.6172 52.1035 51.666C52.1892 51.7148 52.2643 51.78 52.3248 51.8578C52.3732 51.92 52.4344 51.971 52.5043 52.0073C52.5741 52.0436 52.651 52.0644 52.7297 52.0683C52.8083 52.0721 52.8869 52.0589 52.9599 52.0295C53.033 52.0002 53.0989 51.9554 53.1531 51.8982L55.0978 49.8429C55.2347 49.6985 55.4232 49.6144 55.6219 49.609C55.8207 49.6036 56.0135 49.6773 56.158 49.814L56.1899 49.8444C56.2614 49.9122 56.3189 49.9935 56.359 50.0835C56.3991 50.1735 56.4212 50.2706 56.4238 50.3692C56.4265 50.4677 56.4097 50.5658 56.3745 50.6579C56.3393 50.75 56.2863 50.8342 56.2185 50.9057L53.2005 54.0948C53.1305 54.1689 53.0462 54.2279 52.9526 54.2682C52.859 54.3085 52.7582 54.3293 52.6564 54.3293Z" fill="#E6E6E6"/>
<path d="M101.764 162.833C87.6644 162.833 71.4607 147.169 57.1245 154.611C13.7183 177.144 19.6934 139.439 7.22314 125.417L7.63254 124.594C21.392 136.946 38.5712 146.995 57.313 153.655C74.2497 159.675 91.3134 162.464 106.653 161.728L106.68 162.716C105.06 162.794 103.421 162.833 101.764 162.833Z" fill="#F2F2F2"/>
<path d="M82.4232 56.9315C84.0509 56.9315 85.3704 55.1602 85.3704 52.9752C85.3704 50.7902 84.0509 49.0189 82.4232 49.0189C80.7955 49.0189 79.4761 50.7902 79.4761 52.9752C79.4761 55.1602 80.7955 56.9315 82.4232 56.9315Z" fill="#E6E6E6"/>
<path d="M116.462 118.651C115.115 119.549 113.736 117.41 115.109 116.551C116.457 115.653 117.836 117.792 116.462 118.651Z" fill="#E6E6E6"/>
<path d="M108.707 46.6376C110.826 46.6376 112.545 44.9175 112.545 42.7956C112.545 40.6738 110.826 38.9537 108.707 38.9537C106.587 38.9537 104.869 40.6738 104.869 42.7956C104.869 44.9175 106.587 46.6376 108.707 46.6376Z" fill="#FF6584"/>
<path opacity="0.3" d="M122.13 63.8491L143.968 0L119.988 63.0848C119.87 63.2345 119.789 63.4104 119.751 63.5978C119.714 63.7853 119.722 63.9789 119.775 64.1626C119.827 64.3463 119.923 64.5148 120.054 64.6542C120.184 64.7935 120.346 64.8997 120.526 64.9638C120.706 65.028 120.898 65.0483 121.088 65.0232C121.277 64.998 121.457 64.928 121.614 64.819C121.771 64.71 121.899 64.5652 121.989 64.3965C122.079 64.2278 122.127 64.0402 122.13 63.8491H122.13Z" fill="#F0F0F0"/>
<path d="M100.087 141.636C102.15 141.636 103.821 139.962 103.821 137.898C103.821 135.833 102.15 134.16 100.087 134.16C98.0252 134.16 96.3535 135.833 96.3535 137.898C96.3535 139.962 98.0252 141.636 100.087 141.636Z" fill="#F2F2F2"/>
<path d="M63.9239 139.324C63.9239 139.324 54.6155 145.392 57.0769 149.424C57.1618 149.563 45.9581 164.376 45.9581 164.376L24.8081 163.032L24.063 170.119L42.8921 175.578C42.8921 175.578 47.4985 178.966 51.057 175.233C54.6156 171.501 66.4686 160.07 66.4686 160.07L67.0403 183.148L61.0902 215.128L69.9745 214.564L78.6217 182.48L81.8135 146.138L63.9239 139.324Z" fill="#2F2E41"/>
<path d="M70.5546 102.906L66.6403 105.876L62.1787 115.409L66.4689 121.242C66.4689 121.242 70.0777 127.503 64.3013 133.566C58.5249 139.63 54.0892 146.106 58.7127 145.875C63.3361 145.644 82.0616 155.178 82.1848 147.367C82.3081 139.555 82.5574 133.566 82.5574 133.566L87.4668 121.101C87.4668 121.101 90.3917 113.664 88.3382 111.438C86.2846 109.212 83.535 106.368 83.535 106.368L78.5348 101.362H74.02L70.5546 102.906Z" fill="#449FE7"/>
<path d="M77.8617 84.5901C86.6432 89.5927 79.434 102.792 70.4887 98.0917C61.7075 93.0894 68.9167 79.8901 77.8617 84.5901Z" fill="#A0616A"/>
<path d="M82.5574 87.3639C81.942 88.165 80.6565 87.7894 78.139 88.3611C78.1445 87.5068 78.0459 86.655 77.8455 85.8247C77.6581 86.8528 77.2477 87.8272 76.643 88.6791C74.457 88.9218 77.1367 95.5701 76.0175 100.458C74.5754 90.146 71.5421 92.8476 73.0745 94.893C74.0555 96.2024 73.4015 100.131 70.4585 98.1666C65.6028 100.477 58.6867 89.0006 66.3518 83.6185C66.2149 80.7092 69.4484 80.2497 71.4395 81.1441C76.2718 77.5404 81.7926 82.158 82.5574 87.3639Z" fill="#2F2E41"/>
<path d="M60.0261 79.8393C58.071 91.8731 47.5918 77.6261 42.6646 89.4686C41.1154 93.7572 43.7734 96.8252 45.4547 100.385C45.8384 103.31 42.0368 104.795 41.6386 107.488C41.5278 113.661 51.4771 113.284 54.2585 109.388C57.1164 105.311 53.7036 99.8404 55.4214 95.4638C57.8358 89.3874 67.6545 89.3423 68.5099 82.273C66.8533 79.9113 62.3988 77.2065 60.0261 79.8393Z" fill="#2F2E41"/>
<path d="M67.9458 81.0152C67.8819 81.0421 67.8179 81.0691 67.7607 81.0994H67.7573C67.7035 81.1264 67.6496 81.1533 67.5958 81.1837C67.589 81.187 67.5857 81.1904 67.5789 81.1938C67.5082 81.1264 67.4376 81.059 67.3635 80.9916C67.3443 81.1014 67.3489 81.214 67.3769 81.3218L67.3871 81.3623C67.4544 81.433 67.5251 81.5005 67.5991 81.5712C67.6665 81.5207 67.7304 81.4668 67.7977 81.4162C67.8381 81.3825 67.8785 81.3488 67.9223 81.3151C67.929 81.2275 67.9391 81.1264 67.9492 81.0152L67.9458 81.0152ZM69.9724 77.2677C68.471 76.924 67.9862 78.8887 67.8415 79.8357C67.2961 76.3983 65.0273 77.48 65.8116 79.8255C66.0616 80.52 66.4551 81.1538 66.9663 81.6858C67.037 81.7667 67.1144 81.8475 67.1952 81.9284C67.1043 82.4002 67.5621 82.2789 68.1815 81.8442C68.6389 81.5186 69.0618 81.1471 69.4439 80.7354C70.6793 79.438 71.6421 77.7024 69.9724 77.2677ZM70.0195 79.2021C69.5563 79.8001 69.0366 80.3519 68.4676 80.8501C68.2892 81.0118 68.1074 81.1668 67.9223 81.3151C67.9189 81.3454 67.9189 81.3724 67.9156 81.396C67.9026 81.4287 67.8868 81.4603 67.8684 81.4903C67.6799 81.8307 67.4678 81.6454 67.387 81.3623C67.3803 81.3522 67.3702 81.342 67.3635 81.332C67.0945 81.0538 66.8605 80.7437 66.6667 80.4086C65.2764 77.9956 67.515 76.3544 67.4039 80.8601C67.3834 80.9015 67.3698 80.9459 67.3635 80.9916C67.3443 81.1014 67.3489 81.214 67.3769 81.3218L67.3871 81.3623C67.4544 81.4331 67.5251 81.5005 67.5991 81.5712C67.6665 81.5207 67.7304 81.4668 67.7977 81.4162C67.8381 81.3825 67.8785 81.3488 67.9223 81.3151C67.929 81.2275 67.9391 81.1264 67.9492 81.0152V81.0118C68.0367 80.1086 68.2758 78.4843 68.7168 78.0428C69.6862 77.298 70.9419 78.1035 70.0195 79.2021ZM67.9458 81.0152C67.8819 81.0421 67.8179 81.0691 67.7607 81.0994H67.7573C67.7035 81.1264 67.6496 81.1533 67.5958 81.1837C67.589 81.187 67.5857 81.1904 67.5789 81.1938C67.5082 81.1264 67.4376 81.059 67.3635 80.9916C67.3443 81.1014 67.3489 81.214 67.3769 81.3218L67.3871 81.3623C67.4544 81.433 67.5251 81.5005 67.5991 81.5712C67.6665 81.5207 67.7304 81.4668 67.7977 81.4162C67.8381 81.3825 67.8785 81.3488 67.9223 81.3151C67.929 81.2275 67.9391 81.1264 67.9492 81.0152L67.9458 81.0152Z" fill="#2F2E41"/>
<path d="M149.111 147.362L145.868 155.829L130.654 185.873L144.022 220.823L150.922 219L145.235 185.873L161.55 166.028L180.926 179.184C180.926 179.184 189.519 185.899 192.788 179.533C196.057 173.166 217.21 159.625 217.21 159.625L211.976 154.036L187.618 165.448L170.806 141.758L149.111 147.362Z" fill="#2F2E41"/>
<path d="M165.476 107.422L160.137 101.679L150.979 100.418L139.758 108.282L139.871 116.987L145.418 137.499C145.418 137.499 143.305 152.236 149.207 152.089C155.109 151.941 158.326 148.995 160.729 149.595C163.133 150.194 173.351 152.746 173.998 150.073C174.646 147.4 178.088 149.314 177.937 146.785C177.786 144.257 168.619 126.03 168.619 126.03L170.898 107.801L165.476 107.422Z" fill="#449FE7"/>
<path d="M199.28 80.9889C199.328 81.4651 199.27 81.946 199.113 82.3977C198.955 82.8495 198.7 83.261 198.366 83.6034C198.031 83.9458 197.627 84.2107 197.179 84.3795C196.732 84.5483 196.253 84.6168 195.776 84.5803L183.499 107.955L180.203 102.89L192.752 80.8287C192.866 80.0311 193.269 79.3032 193.884 78.783C194.498 78.2628 195.282 77.9863 196.087 78.006C196.891 78.0258 197.661 78.3403 198.249 78.8901C198.838 79.4399 199.205 80.1866 199.28 80.9889Z" fill="#FFB6B6"/>
<path d="M160.629 111.768C160.629 111.768 160.142 115.926 164.818 116.955C169.494 117.985 182.448 110.574 184.572 109.443C185.237 109.088 186.139 107.351 187.065 105.132C187.481 104.136 187.901 103.042 188.307 101.933C188.542 101.291 189.666 101.116 189.887 100.48C190.107 99.8466 189.424 98.7521 189.624 98.1556C190.57 95.3238 191.24 93.0772 191.24 93.0772L188.141 87.2495C183.806 89.5434 181.583 94.5962 179.948 100.417L160.629 111.768Z" fill="#449FE7"/>
<path d="M106.022 86.3568C106.094 86.8299 106.27 87.2811 106.536 87.6789C106.802 88.0767 107.151 88.4113 107.56 88.6591C107.969 88.9069 108.428 89.062 108.903 89.1133C109.378 89.1646 109.859 89.111 110.311 88.9562L128.042 108.512L129.967 102.781L112.302 84.5663C111.992 83.8227 111.42 83.2189 110.695 82.8692C109.97 82.5195 109.141 82.4483 108.367 82.669C107.593 82.8897 106.927 83.387 106.495 84.0667C106.062 84.7464 105.894 85.5612 106.022 86.3568Z" fill="#FFB6B6"/>
<path d="M151.137 106.473C151.137 106.473 152.648 110.377 148.378 112.545C144.109 114.713 129.714 110.784 127.375 110.22C126.643 110.044 125.335 108.588 123.884 106.671C123.232 105.811 122.552 104.858 121.882 103.885C121.494 103.323 120.361 103.435 119.988 102.874C119.617 102.316 120.004 101.086 119.662 100.558C118.039 98.0533 116.828 96.0462 116.828 96.0462L118.372 89.6275C123.141 90.7625 126.557 95.0976 129.595 100.324L151.137 106.473Z" fill="#449FE7"/>
<path d="M155.741 98.9573C160.554 98.9573 164.455 95.0517 164.455 90.234C164.455 85.4162 160.554 81.5106 155.741 81.5106C150.929 81.5106 147.027 85.4162 147.027 90.234C147.027 95.0517 150.929 98.9573 155.741 98.9573Z" fill="#FFB6B6"/>
<path d="M165.688 85.2392C164.771 83.8196 163.051 82.8735 161.384 83.1393C161.229 82.074 160.784 81.0717 160.1 80.2416C159.415 79.4115 158.516 78.7854 157.5 78.4315C156.484 78.0775 155.391 78.0093 154.339 78.2343C153.288 78.4592 152.318 78.9687 151.535 79.7073C151.278 79.5259 150.978 79.4141 150.665 79.3828C150.352 79.3514 150.036 79.4015 149.748 79.5282C149.174 79.7894 148.675 80.1906 148.296 80.6951C147.339 81.8896 146.724 83.3215 146.515 84.8384C146.307 86.3552 146.513 87.9003 147.113 89.3091C146.909 88.5674 147.651 87.8697 148.401 87.7033C149.151 87.5368 149.938 87.6943 150.699 87.5859C151.674 87.447 152.55 86.8808 153.527 86.7534C154.355 86.6995 155.186 86.8063 155.973 87.0681C156.761 87.3298 157.59 87.4413 158.419 87.3968C159.24 87.2991 160.299 90.4172 160.285 92.6134C160.282 93.0296 160.368 93.564 160.774 93.6523C161.274 93.761 161.564 93.0697 162.041 92.8813C162.26 92.8184 162.495 92.8431 162.697 92.9505C162.899 93.0578 163.051 93.2393 163.121 93.4566C163.181 93.6776 163.188 93.9098 163.14 94.1338C163.092 94.3577 162.992 94.5671 162.847 94.7444C162.554 95.0958 162.207 95.3976 161.818 95.6381L162.014 95.8014C162.2 95.9983 162.449 96.1243 162.718 96.1577C162.987 96.1911 163.259 96.1299 163.487 95.9846C163.937 95.6797 164.301 95.2646 164.545 94.7788C165.464 93.3559 166.121 91.7796 166.485 90.1246C166.792 88.4625 166.604 86.6588 165.688 85.2392Z" fill="#2F2E41"/>
<path d="M230.152 119.644C218.912 128.166 196.549 125.474 189.609 140.072C168.596 184.27 150.62 150.602 132.222 146.961L132.052 146.058C150.47 147.587 170.225 145.214 189.182 139.196C206.314 133.757 221.598 125.667 233.383 115.808L234 116.58C232.756 117.621 231.473 118.643 230.152 119.644Z" fill="#F2F2F2"/>
<path d="M182.632 235.404C182.364 236.198 29.5276 236.198 29.2388 235.406C29.5061 234.611 182.342 234.611 182.632 235.404Z" fill="#CCCCCC"/>
</g>
<defs>
<clipPath id="clip0_1516_651">
<rect width="234" height="236" fill="white"/>
</clipPath>
</defs>
</svg>
