<svg width="283" height="226" viewBox="0 0 283 226" fill="none" xmlns="http://www.w3.org/2000/svg">
<g clip-path="url(#clip0_1522_1001)">
<path d="M226.426 222.716L221.852 222.716L219.676 205.059L226.427 205.06L226.426 222.716Z" fill="#FFB6B6"/>
<path d="M210.754 222.612C210.611 222.852 210.536 223.627 210.536 223.906C210.536 224.764 211.231 225.46 212.089 225.46H226.255C226.84 225.46 227.315 224.985 227.315 224.4V223.81C227.315 223.81 228.015 222.036 226.572 219.85C226.572 219.85 224.779 221.561 222.1 218.88L221.309 217.448L215.59 221.634L212.419 222.024C211.725 222.11 211.111 222.011 210.754 222.612Z" fill="#2F2E41"/>
<path d="M205.628 222.716L201.053 222.716L198.877 205.059L205.628 205.06L205.628 222.716Z" fill="#FFB6B6"/>
<path d="M189.955 222.612C189.812 222.852 189.737 223.627 189.737 223.906C189.737 224.764 190.432 225.46 191.29 225.46H205.457C206.041 225.46 206.516 224.985 206.516 224.4V223.81C206.516 223.81 207.217 222.036 205.774 219.85C205.774 219.85 203.98 221.561 201.301 218.88L200.511 217.448L194.791 221.634L191.62 222.024C190.927 222.11 190.312 222.011 189.955 222.612Z" fill="#2F2E41"/>
<path d="M233.768 112.483L201.934 113.333L198.688 120.978L194.718 170.672L198.113 214.42H208.026V173.13L215.516 147.736L218.487 213.146L228.721 214.42L232.919 169.398L236.739 126.5L233.768 112.483Z" fill="#2F2E41"/>
<path d="M222.457 55.5686L211.421 55.9933L210.148 61.0901C210.148 61.0901 196.565 64.9128 197.414 70.0096C198.263 75.1065 202.508 97.6175 202.508 97.6175C202.508 97.6175 197.839 112.059 200.81 113.757C203.781 115.456 234.399 113.757 234.399 113.757C234.399 113.757 236.888 107.386 235.615 106.537C234.342 105.688 239.435 64.9128 238.586 64.0633C237.737 63.2138 223.73 58.9665 223.73 58.9665L222.457 55.5686Z" fill="#449FE7"/>
<path d="M244.105 98.0423L244.954 103.989L235.616 125.225L230.947 122.677L236.041 102.714L236.89 95.0691L244.105 98.0423Z" fill="#FFB6B6"/>
<path d="M235.191 64.488C235.191 64.488 239.86 62.3644 243.256 70.0096C246.652 77.6549 245.803 94.2196 245.803 94.2196C245.803 94.2196 247.076 95.4938 246.227 96.3433C245.378 97.1928 243.765 95.1939 245.378 97.8951C246.227 99.3165 248.774 98.8917 246.227 99.3165C243.68 99.7412 244.573 98.5542 245.378 100.166C245.803 101.015 247.501 101.015 245.803 101.44C244.105 101.865 235.562 101.136 235.562 101.136C235.562 101.136 232.645 99.7412 234.342 98.8917C236.04 98.0422 236.889 97.875 236.04 97.5339C235.191 97.1928 233.069 97.1928 234.342 95.9186C235.616 94.6444 236.465 94.6444 235.616 94.6444C234.767 94.6444 233.812 92.5976 233.812 92.5976L235.191 64.488Z" fill="#449FE7"/>
<path d="M235.084 128.789C236.118 125.692 235.467 122.682 233.628 122.068C231.79 121.453 229.462 123.466 228.427 126.564C227.393 129.662 228.045 132.672 229.883 133.286C231.721 133.901 234.05 131.887 235.084 128.789Z" fill="#FFB6B6"/>
<path d="M184.975 96.0304L181.599 100.997L160.399 110.393L158.665 105.362L175.87 94.0454L181.645 88.9684L184.975 96.0304Z" fill="#FFB6B6"/>
<path d="M200.982 65.2263C200.982 65.2263 205.862 66.805 203.223 74.7437C200.585 82.6825 188.804 94.3504 188.804 94.3504C188.804 94.3504 188.887 96.1505 187.687 96.2059C186.488 96.2612 186.642 93.6965 186.015 96.7802C185.686 98.4028 187.853 99.806 185.686 98.4028C183.518 96.9996 184.976 96.7242 184.486 98.4582C184.228 99.3721 185.482 100.517 183.942 99.6859C182.401 98.8551 176.58 92.5565 176.58 92.5565C176.58 92.5565 175.363 89.559 177.189 90.076C179.016 90.593 179.756 91.0418 179.358 90.2174C178.961 89.393 177.392 87.9621 179.191 87.879C180.99 87.796 181.618 88.3684 180.99 87.796C180.363 87.2237 181.035 85.0671 181.035 85.0671L200.982 65.2263Z" fill="#449FE7"/>
<path d="M157.607 112.668C160.457 111.077 162.002 108.413 161.057 106.72C160.112 105.027 157.036 104.944 154.186 106.536C151.336 108.128 149.791 110.791 150.736 112.485C151.68 114.178 154.756 114.26 157.607 112.668Z" fill="#FFB6B6"/>
<path d="M217.421 53.4924C223.051 53.4924 227.615 48.9256 227.615 43.2922C227.615 37.6587 223.051 33.0919 217.421 33.0919C211.791 33.0919 207.228 37.6587 207.228 43.2922C207.228 48.9256 211.791 53.4924 217.421 53.4924Z" fill="#FFB6B6"/>
<path d="M209.278 35.0878C209.797 33.6158 211.236 32.7227 212.795 32.7575C212.861 32.759 212.927 32.7583 212.993 32.7557C213.778 32.7235 214.532 32.4551 215.302 32.2976C216.737 32.0041 218.25 32.1024 219.636 32.579C220.066 32.7272 220.497 32.9135 220.953 32.9135C221.408 32.9136 221.904 32.6638 222.015 32.2219C222.042 32.6219 222.068 33.022 222.094 33.422C222.242 33.0982 222.39 32.7744 222.539 32.4506L222.835 33.7419L223.786 32.6627C223.701 33.1384 223.978 33.6178 224.353 33.9219C224.729 34.226 225.192 34.3942 225.636 34.5837C227.553 35.4015 229.354 36.8493 229.906 38.8603C230.255 40.1308 230.073 41.4792 229.888 42.7838C229.724 43.9371 229.546 45.1302 228.92 46.112C228.518 46.7413 227.94 47.2709 227.695 47.9764C227.467 48.634 227.553 49.3869 227.229 50.0027C226.903 50.6212 226.231 50.9711 225.573 51.2061C224.915 51.4412 224.216 51.6074 223.649 52.0164C223.083 52.4255 222.425 53.6036 221.19 53.5402L220.792 52.7912C220.382 52.457 221.899 52.7219 221.915 52.1931C221.931 51.6643 220.09 51.3376 220.351 50.8774C220.751 50.1718 221.292 49.5577 221.743 48.8834C222.27 48.0948 222.685 47.1734 222.503 46.2108C222.432 45.8364 222.257 45.4827 221.99 45.2108C221.221 44.4267 220.364 44.7713 219.531 44.8835C218.956 44.9609 218.271 44.8715 217.972 44.3743C217.623 43.7926 218.012 43.0525 217.965 42.3758C217.914 41.6587 217.371 41.0706 216.781 40.6618C216.19 40.253 215.519 39.9551 214.987 39.4716C214.456 38.988 214.54 39.2388 214.771 38.5584C210.819 41.5245 211.403 36.4032 208.75 37.0433C208.876 36.3794 209.054 35.7252 209.278 35.0878L209.278 35.0878Z" fill="#2F2E41"/>
<path d="M160.803 217.471C159.764 218.014 158.725 218.749 157.938 220.049C157.79 220.294 157.658 220.561 157.534 220.837C157.883 218.351 158.579 216.012 159.583 214.063C159.953 213.345 159.331 212.291 158.958 213.015V213.015C157.367 213.842 156.697 215.776 156.441 218.065C156.125 217.245 155.736 216.505 155.282 215.89C155.097 215.638 154.839 215.585 154.658 215.89C154.503 216.15 154.472 216.685 154.658 216.938C153.974 220.536 155.74 221.651 156.351 223.443C156.364 223.84 156.379 224.232 156.392 224.615C156.406 224.995 156.55 225.221 156.718 225.299C156.799 225.51 156.946 225.656 157.095 225.656C157.345 225.656 157.523 225.316 157.536 224.915C157.585 223.442 157.736 220.885 158.61 221.02C160.471 221.309 160.558 219.803 161.038 218.901C161.416 218.192 161.348 217.187 160.803 217.471H160.803Z" fill="#E6E6E6"/>
<path d="M254.415 217.471C255.454 218.014 256.493 218.749 257.28 220.049C257.428 220.294 257.56 220.561 257.684 220.837C257.335 218.351 256.639 216.012 255.635 214.063C255.265 213.345 255.887 212.291 256.26 213.015V213.015C257.851 213.842 258.521 215.776 258.777 218.065C259.093 217.245 259.482 216.505 259.936 215.89C260.121 215.638 260.379 215.585 260.56 215.89C260.715 216.15 260.746 216.685 260.56 216.938C261.244 220.536 259.478 221.651 258.867 223.443C258.854 223.84 258.839 224.232 258.826 224.615C258.812 224.995 258.668 225.221 258.5 225.299C258.419 225.51 258.272 225.656 258.123 225.656C257.873 225.656 257.695 225.316 257.682 224.915C257.633 223.442 257.482 220.885 256.608 221.02C254.747 221.309 254.66 219.803 254.18 218.901C253.803 218.192 253.87 217.187 254.415 217.471Z" fill="#E6E6E6"/>
<path d="M82.5947 225.412C82.5947 225.738 82.8566 226 83.1826 226H282.412C282.738 226 283 225.738 283 225.412C283 225.085 282.738 224.823 282.412 224.823H83.1826C82.8566 224.823 82.5947 225.085 82.5947 225.412Z" fill="#CCCCCC"/>
<path d="M107.651 226H20.4957C9.86855 226 1.22266 217.348 1.22266 206.714V19.2858C1.22265 8.65163 9.86854 0 20.4957 0H107.651C118.278 0 126.924 8.65163 126.924 19.2858V206.714C126.924 217.348 118.278 226 107.651 226Z" fill="#3F3D56"/>
<path d="M126.925 68.9422C126.475 68.9422 126.109 69.3082 126.109 69.7581V95.8664C126.109 96.3164 126.475 96.6823 126.925 96.6823C127.374 96.6823 127.74 96.3164 127.74 95.8664V69.7581C127.74 69.3082 127.374 68.9422 126.925 68.9422Z" fill="#3F3D56"/>
<path d="M125.09 19.286V206.711C125.09 215.967 117.891 223.538 108.787 224.126H108.783C108.649 224.134 108.514 224.142 108.376 224.146C108.135 224.158 107.895 224.163 107.65 224.163C107.65 224.163 106.753 224.097 105.114 223.975C103.459 223.853 101.05 223.669 98.0452 223.428C97.1443 223.359 96.1944 223.281 95.1915 223.2C93.194 223.037 91.0007 222.857 88.6484 222.653C87.7108 222.576 86.7405 222.49 85.7499 222.404C80.6866 221.968 75.0159 221.458 69.0354 220.879C68.0244 220.785 67.0052 220.687 65.9778 220.585C65.7088 220.556 65.4356 220.532 65.1625 220.503C60.8983 220.083 3.05762 208.897 3.05762 206.711V19.286C3.05761 9.64631 10.8645 1.83421 20.4978 1.83421H30.9097C32.573 1.83421 33.9102 3.13147 34.0529 4.79179C34.0651 4.90195 34.0773 5.01207 34.0977 5.12223C34.3994 6.79072 35.9281 7.95334 37.624 7.95334H90.5237C92.2196 7.95334 93.7484 6.79072 94.0501 5.12223C94.0704 5.01207 94.0827 4.90195 94.0949 4.79179C94.2376 3.13147 95.5747 1.83421 97.2381 1.83421H107.65C117.283 1.83421 125.09 9.64631 125.09 19.286H125.09Z" fill="white"/>
<path d="M0.81534 49.361C0.365667 49.361 0 49.7269 0 50.1769V56.704C0 57.1539 0.365672 57.5199 0.81534 57.5199C1.26501 57.5199 1.63068 57.1539 1.63068 56.704V50.1769C1.63068 49.7269 1.26501 49.361 0.81534 49.361Z" fill="#3F3D56"/>
<path d="M0.81534 68.9422C0.365667 68.9422 0 69.3082 0 69.7581V82.4043C0 82.8543 0.365672 83.2202 0.81534 83.2202C1.26501 83.2202 1.63068 82.8543 1.63068 82.4043V69.7581C1.63068 69.3082 1.26501 68.9422 0.81534 68.9422Z" fill="#3F3D56"/>
<path d="M0.81534 86.8917C0.365667 86.8917 0 87.2576 0 87.7076V100.354C0 100.804 0.365672 101.17 0.81534 101.17C1.26501 101.17 1.63068 100.804 1.63068 100.354V87.7076C1.63068 87.2576 1.26501 86.8917 0.81534 86.8917Z" fill="#3F3D56"/>
<path d="M30.6258 4.69139H15.0331C14.9485 4.69139 14.8799 4.76005 14.8799 4.84474V6.57775C14.8799 6.66245 14.9485 6.7311 15.0331 6.7311H30.6258C30.7104 6.7311 30.7791 6.66245 30.7791 6.57775V4.84474C30.7791 4.76005 30.7104 4.69139 30.6258 4.69139Z" fill="#E6E6E6"/>
<path d="M99.8143 6.73111C100.715 6.73111 101.445 6.00054 101.445 5.09934C101.445 4.19814 100.715 3.46758 99.8143 3.46758C98.9137 3.46758 98.1836 4.19814 98.1836 5.09934C98.1836 6.00054 98.9137 6.73111 99.8143 6.73111Z" fill="#E6E6E6"/>
<path d="M104.299 6.73111C105.199 6.73111 105.929 6.00054 105.929 5.09934C105.929 4.19814 105.199 3.46758 104.299 3.46758C103.398 3.46758 102.668 4.19814 102.668 5.09934C102.668 6.00054 103.398 6.73111 104.299 6.73111Z" fill="#E6E6E6"/>
<path d="M108.783 6.73111C109.684 6.73111 110.414 6.00054 110.414 5.09934C110.414 4.19814 109.684 3.46758 108.783 3.46758C107.882 3.46758 107.152 4.19814 107.152 5.09934C107.152 6.00054 107.882 6.73111 108.783 6.73111Z" fill="#E6E6E6"/>
<path d="M120.681 215.322L124.444 214.374L121.874 196.99L116.321 198.389L120.681 215.322Z" fill="#FFB6B6"/>
<path d="M135.668 219.57C135.843 220.202 135.536 220.839 134.984 220.992L127.563 223.05C127.563 223.05 126.02 220.315 122.692 219.876L123.65 224.134L119.822 225.196L118.416 218.312C118.416 218.312 116.391 214.981 118.006 212.544C119.621 210.107 117.97 210.842 117.97 210.842L117.649 206.429L123.621 205.506L125.481 212.057L130.092 217.794L134.773 218.688C135.19 218.767 135.541 219.114 135.668 219.57H135.668Z" fill="#2F2E41"/>
<path d="M84.6426 212.301L88.2703 213.679L96.1079 197.953L90.7544 195.919L84.6426 212.301Z" fill="#FFB6B6"/>
<path d="M94.5005 224.369C94.2824 224.988 93.6671 225.334 93.1261 225.143L85.8649 222.58C85.8649 222.58 86.1637 219.453 83.6865 217.188L82.0358 221.228L78.29 219.905L81.0747 213.455C81.0747 213.455 81.3196 209.565 84.038 208.491C86.7565 207.418 84.9822 207.075 84.9822 207.075L87.2434 203.272L92.6689 205.937L90.446 212.374L90.9452 219.719L94.2721 223.133C94.5682 223.437 94.6579 223.923 94.5005 224.369L94.5005 224.369Z" fill="#2F2E41"/>
<path d="M100.393 56.8276H81.1407C81.1689 55.9236 80.976 55.0196 80.5808 54.2099C80.5714 55.1091 80.3691 56.0084 79.9974 56.8276H79.1223C77.7861 56.8276 76.6992 55.74 76.6992 54.4029V41.8841C76.6992 35.7542 81.5124 30.7024 87.6288 30.4105C87.8123 30.4011 87.9911 30.3964 88.1746 30.3964C93.1572 30.3964 97.6081 33.6309 99.123 38.4237C101.349 37.3973 102.68 43.2306 103.565 52.4962C104.237 54.643 102.638 56.8276 100.393 56.8276Z" fill="#2F2E41"/>
<path d="M138.174 128.401C139.128 130.665 138.734 132.993 137.295 133.6C135.855 134.208 133.914 132.865 132.96 130.601C132.542 129.61 132.382 128.607 132.456 127.741L128.532 118.097L133.094 116.35L136.478 126.043C137.149 126.595 137.756 127.409 138.174 128.401Z" fill="#FFB6B6"/>
<path d="M95.99 52.5903L86.7875 54.5167L88.199 58.7539L85.376 91.1619L90.0809 101.597L118.781 99.2435L111.724 85.1192C111.724 85.1192 114.547 73.349 110.783 70.9949C107.019 68.6409 100.902 56.8707 100.902 56.8707L95.99 52.5903V52.5903Z" fill="#449FE7"/>
<path d="M87.4115 56.3906L79.2593 59.6956L82.0823 101.127L75.9658 136.908L95.7267 140.204C95.7267 140.204 93.3742 61.108 91.9627 59.6956C90.5512 58.2831 87.4115 56.3906 87.4115 56.3906V56.3906Z" fill="#2F2E41"/>
<path d="M103.378 61.5592C103.378 61.5592 108.683 58.2007 111.548 60.6874C114.414 63.174 136.48 123.284 136.48 123.284L130.528 125.872L116.879 97.2339L103.378 61.5592H103.378Z" fill="#2F2E41"/>
<path d="M118.574 162.836L123.956 204.234L116.428 204.705C116.428 204.705 112.514 194.017 108.049 181.428C107.098 178.758 106.124 176.004 105.16 173.245C104.115 170.251 103.075 167.256 102.087 164.366C99.6455 157.238 97.5047 150.75 96.2814 146.513C96.0697 145.769 95.8815 145.095 95.7262 144.502C92.4328 131.847 90.5508 98.7726 90.5508 98.7726L117.84 96.4186L118.131 96.7811L123.956 104.065L123.683 105.604L116.428 146.324L118.574 162.836L118.574 162.836Z" fill="#2F2E41"/>
<path d="M116.428 146.324L118.573 162.836L108.924 179.836L108.048 181.428L94.7617 205.59L88.1982 201.866C88.1982 201.866 96.7378 182.228 102.087 164.366C102.68 162.402 103.231 160.458 103.725 158.565C105.178 153.024 102.798 142.911 103.729 140.124C106.877 130.717 117.134 111.899 121.895 103.372L123.683 105.604L116.428 146.324Z" fill="#2F2E41"/>
<path d="M100.782 56.5126L110.311 60.1664L135.248 133.142L120.192 135.496L113.134 93.1229L100.782 56.5126Z" fill="#2F2E41"/>
<path d="M76.9577 135.284C76.7152 137.729 75.258 139.586 73.7029 139.432C72.1479 139.277 71.0839 137.17 71.3264 134.724C71.4326 133.654 71.7716 132.696 72.2496 131.971L73.4072 121.622L78.2486 122.269L76.5936 132.402C76.9197 133.208 77.0639 134.213 76.9577 135.284V135.284Z" fill="#FFB6B6"/>
<path d="M82.5528 59.6956C82.5528 59.6956 76.4364 58.2831 74.5544 61.5788C72.6724 64.8744 71.7314 128.904 71.7314 128.904L78.2035 129.375L81.6119 97.831L82.5528 59.6956V59.6956Z" fill="#2F2E41"/>
<path d="M90.3585 51.4485C95.7601 51.4485 100.139 47.0668 100.139 41.6616C100.139 36.2565 95.7601 31.8748 90.3585 31.8748C84.9569 31.8748 80.5781 36.2565 80.5781 41.6616C80.5781 47.0668 84.9569 51.4485 90.3585 51.4485Z" fill="#FFB6B6"/>
<path d="M102.636 40.8201C102.636 40.8201 97.8714 39.4077 95.0188 40.8201C91.0546 42.783 80.9336 40.8201 80.9336 40.8201V36.3959C80.9336 33.813 82.8556 31.6343 85.4168 31.314L92.7205 30.4004C98.4536 29.6833 103.517 34.1565 103.517 39.938V39.938C103.517 40.4252 103.123 40.8201 102.636 40.8201Z" fill="#2F2E41"/>
<path d="M92.2258 56.8276H81.141C81.1692 55.9236 80.9763 55.0197 80.5811 54.2099C80.5717 55.1091 80.3693 56.0084 79.9977 56.8276H79.5225V37.0536H87.9914L92.2258 56.8276Z" fill="#2F2E41"/>
</g>
<defs>
<clipPath id="clip0_1522_1001">
<rect width="283" height="226" fill="white"/>
</clipPath>
</defs>
</svg>
