<?xml version="1.0" encoding="UTF-8"?>
<svg xmlns="http://www.w3.org/2000/svg" xmlns:xlink="http://www.w3.org/1999/xlink" viewBox="0 0 512 512">
  <defs>
    <style>.n{fill:url(#i);}.o{fill:url(#h);}.p{fill:url(#k);}.q{fill:url(#j);}.r{fill:url(#m);}.s{fill:url(#l);}.t{fill:#4e9ed7;}.u{fill:url(#g);}.u,.v,.w,.x{isolation:isolate;}.v{fill:url(#f);}.w{fill:url(#e);}.x{fill:url(#d);}</style>
    <linearGradient id="d" x1="512" y1="160.81" x2="16.3" y2="160.81" gradientTransform="matrix(1, 0, 0, 1, 0, 0)" gradientUnits="userSpaceOnUse">
      <stop offset="0" stop-color="#fff" />
      <stop offset=".3" stop-color="#fff" />
      <stop offset=".52" stop-color="#fff" />
      <stop offset=".71" stop-color="#fff" />
      <stop offset=".88" stop-color="#fff" />
      <stop offset="1" stop-color="#fff" />
    </linearGradient>
    <linearGradient id="e" x1="42.06" y1="108.89" x2="325.49" y2="108.89" xlink:href="#d">
      <stop offset="0" stop-color="#fff" />
      <stop offset=".13" stop-color="#fff" />
      <stop offset=".28" stop-color="#fff" />
      <stop offset=".46" stop-color="#fff" />
      <stop offset=".67" stop-color="#fff" />
      <stop offset="1" stop-color="#fff" />
    </linearGradient>
    <linearGradient id="f" x1="138.44" y1="149.61" x2="278.06" y2="149.61" xlink:href="#d">
      <stop offset="0" stop-color="#fff" />
      <stop offset=".13" stop-color="#fff" />
      <stop offset=".28" stop-color="#fff" />
      <stop offset=".46" stop-color="#fff" />
      <stop offset=".67" stop-color="#fff" />
      <stop offset="1" stop-color="#fff" />
    </linearGradient>
    <linearGradient id="g" x1="217.41" y1="172.64" x2="277.84" y2="172.64" xlink:href="#d">
      <stop offset="0" stop-color="#fff" />
      <stop offset=".13" stop-color="#fff" />
      <stop offset=".28" stop-color="#fff" />
      <stop offset=".46" stop-color="#fff" />
      <stop offset=".67" stop-color="#fff" />
      <stop offset="1" stop-color="#fff" />
    </linearGradient>
    <linearGradient id="h" x1="219.11" y1="160.81" x2="522.85" y2="160.81" gradientTransform="matrix(1, 0, 0, 1, 0, 0)" gradientUnits="userSpaceOnUse">
      <stop offset="0" stop-color="#fff" />
      <stop offset=".13" stop-color="#fff" />
      <stop offset=".28" stop-color="#fff" />
      <stop offset=".46" stop-color="#fff" />
      <stop offset=".67" stop-color="#fff" />
      <stop offset="1" stop-color="#fff" />
    </linearGradient>
    <linearGradient id="i" x1="0" y1="351.19" x2="495.7" y2="351.19" gradientTransform="matrix(1, 0, 0, 1, 0, 0)" gradientUnits="userSpaceOnUse">
      <stop offset="0" stop-color="#fff" />
      <stop offset=".24" stop-color="#fff" />
      <stop offset=".58" stop-color="#fff" />
      <stop offset=".97" stop-color="#fff" />
      <stop offset="1" stop-color="#fff" />
    </linearGradient>
    <linearGradient id="j" x1="186.51" y1="403.11" x2="469.94" y2="403.11" xlink:href="#i">
      <stop offset="0" stop-color="#fff" />
      <stop offset=".21" stop-color="#fff" />
      <stop offset=".46" stop-color="#fff" />
      <stop offset=".73" stop-color="#fff" />
      <stop offset="1" stop-color="#fff" />
    </linearGradient>
    <linearGradient id="k" x1="233.94" y1="362.39" x2="373.56" y2="362.39" xlink:href="#i">
      <stop offset="0" stop-color="#fff" />
      <stop offset=".21" stop-color="#fff" />
      <stop offset=".46" stop-color="#fff" />
      <stop offset=".73" stop-color="#fff" />
      <stop offset="1" stop-color="#fff" />
    </linearGradient>
    <linearGradient id="l" x1="234.16" y1="339.36" x2="294.59" y2="339.36" xlink:href="#i">
      <stop offset="0" stop-color="#fff" />
      <stop offset=".21" stop-color="#fff" />
      <stop offset=".46" stop-color="#fff" />
      <stop offset=".73" stop-color="#fff" />
      <stop offset="1" stop-color="#fff" />
    </linearGradient>
    <linearGradient id="m" x1="-2741.01" y1="2903.69" x2="-2437.26" y2="2903.69" gradientTransform="translate(-2448.07 3254.8) rotate(-180)" gradientUnits="userSpaceOnUse">
      <stop offset="0" stop-color="#fff" />
      <stop offset=".21" stop-color="#fff" />
      <stop offset=".46" stop-color="#fff" />
      <stop offset=".73" stop-color="#fff" />
      <stop offset="1" stop-color="#fff" />
    </linearGradient>
  </defs>
  <g id="a" />
  <g id="b">
    <g id="c">
      <g>
        <path class="t" d="M23.68,54.32C42.84,46.66,206.6-22.88,332.22,7.75c54.85,13.36,102.43,45.83,127.54,110.87,5.91,15.34,11.77,31.51,17.48,48.24,5,14.62,9.91,29.68,14.66,44.96,0,0,0,.01,0,.02,4.67,15.04,9.2,30.32,13.54,45.66,2.23,7.88,4.41,15.78,6.55,23.67h0c-8.37,24.11-24.56,40.44-43.16,40.44-8.53,0-16.56-3.44-23.56-9.5-4.98-25.35-10.63-51.69-17.12-77.62-1.64-6.56-3.33-13.09-5.09-19.57-2.17-8.07-4.45-16.06-6.81-23.93-4.13-13.74-8.54-27.11-13.28-39.9-19.59-52.86-44.66-95.57-77.49-111.78-19.77-9.77-42.35-9.93-68.23,3.06-61.65,30.97-109.32,46.23-145.37,51.96C20.71,108.81,3.94,62.22,23.68,54.32Z" />
        <path class="x" d="M512,281.18h0c-8.37,24.11-24.56,40.44-43.16,40.44-8.53,0-16.56-3.44-23.56-9.5-4.98-25.35-10.63-51.69-17.12-77.62-1.64-6.56-3.33-13.09-5.09-19.57-2.17-8.07-4.45-16.06-6.81-23.93-4.13-13.74-8.54-27.11-13.28-39.9-14.63-39.46-32.3-73.26-53.99-94.6,0-.01-.02-.03-.03-.04-7.35-7.23-15.16-13.03-23.47-17.13-19.77-9.77-42.35-9.93-68.23,3.06-61.65,30.97-109.32,46.23-145.37,51.96C20.71,108.81,3.94,62.23,23.68,54.33,36.82,49.07,118.01,14.69,208.25,3.51c41.32-5.12,84.52-5.38,123.97,4.23,54.85,13.36,102.43,45.83,127.54,110.87,5.91,15.34,11.77,31.51,17.48,48.24,5,14.62,9.91,29.68,14.66,44.96,0,0,0,.01,0,.02,4.67,15.04,9.2,30.32,13.54,45.66,2.23,7.88,4.41,15.78,6.55,23.67Z" />
        <path class="w" d="M46.65,148.68c6.25-4.97,30.48-24.87,65.24-47.91,32.19-5.11,73.66-17.84,126.08-42.55,6.27-2.97,12.7-6.1,19.29-9.41,9.75-4.9,19.04-7.93,27.89-9.28,14.62-2.23,28.02,.13,40.34,6.21-15.85-1.1-31.73,3.37-47.43,14.85-3.5,2.54-7,5.46-10.48,8.73-40.86,38.35-75.78,64.29-105.08,81.29-99.19,57.52-133.94,12.41-115.85-1.94Z" />
        <path class="v" d="M139.36,213.34c2.4-6.16,10.23-27.17,23.14-55.38,23.07-13.38,49.61-32.3,79.79-58.45,8.16-7.07,16.59-14.67,25.29-22.84,1.6-1.51,3.2-2.94,4.81-4.29,1.89-1.59,3.78-3.07,5.66-4.44-1.49,4.25-2.99,8.39-4.49,12.43-18.76,50.48-38.14,85.21-56.16,108.51-47.43,61.35-85.43,43.36-78.04,24.45Z" />
        <path class="u" d="M217.41,202.94c18.02-23.3,37.4-58.04,56.16-108.51,21.46,154.89-44.56,172.31-49.38,146.76-.93-4.91-3.72-18.59-6.78-38.25Z" />
        <path class="o" d="M512,281.18h0c-8.37,24.11-24.56,40.44-43.16,40.44-8.53,0-16.56-3.44-23.56-9.5-4.98-25.35-10.63-51.69-17.12-77.62-1.64-6.56-3.33-13.09-5.09-19.57-2.17-8.07-4.45-16.06-6.81-23.93-4.13-13.74-8.54-27.11-13.28-39.9-14.63-39.46-32.3-73.26-53.99-94.6,0-.01-.02-.03-.03-.04C313.56,17.33,208.25,3.51,208.25,3.51c41.32-5.12,84.52-5.38,123.97,4.23,54.85,13.36,102.43,45.83,127.54,110.87,5.91,15.34,11.77,31.51,17.48,48.24,5,14.62,9.91,29.68,14.66,44.96,0,0,0,.01,0,.02,4.67,15.04,9.2,30.32,13.54,45.66,2.23,7.88,4.41,15.78,6.55,23.67Z" />
        <g>
          <path class="n" d="M488.32,457.68c-19.16,7.67-182.93,77.2-308.55,46.58-54.85-13.36-102.43-45.83-127.54-110.87-5.91-15.34-11.77-31.51-17.48-48.24-5-14.62-9.91-29.68-14.66-44.96,0,0,0-.01,0-.02-4.67-15.04-9.2-30.32-13.54-45.66-2.23-7.88-4.41-15.78-6.55-23.67H0c8.37-24.11,24.56-40.44,43.16-40.44,8.53,0,16.56,3.44,23.56,9.5,4.98,25.35,10.63,51.69,17.12,77.62,1.64,6.56,3.33,13.09,5.09,19.57,2.17,8.07,4.45,16.06,6.81,23.93,4.13,13.74,8.54,27.11,13.28,39.9,19.59,52.86,44.66,95.57,77.49,111.78,19.77,9.77,42.35,9.93,68.23-3.06,61.65-30.97,109.32-46.23,145.37-51.96,91.19-14.47,107.96,32.11,88.22,40.01Z" />
          <path class="q" d="M465.35,363.32c-6.25,4.97-30.48,24.87-65.24,47.91-32.19,5.11-73.66,17.84-126.08,42.55-6.27,2.97-12.7,6.1-19.29,9.41-9.75,4.9-19.04,7.93-27.89,9.28-14.62,2.23-28.02-.13-40.34-6.21,15.85,1.1,31.73-3.37,47.43-14.85,3.5-2.54,7-5.46,10.48-8.73,40.86-38.35,75.78-64.29,105.08-81.29,99.19-57.52,133.94-12.41,115.85,1.94Z" />
          <path class="p" d="M372.64,298.66c-2.4,6.16-10.23,27.17-23.14,55.38-23.07,13.38-49.61,32.3-79.79,58.45-8.16,7.07-16.59,14.67-25.29,22.84-1.6,1.51-3.2,2.94-4.81,4.29-1.89,1.59-3.78,3.07-5.66,4.44,1.49-4.25,2.99-8.39,4.49-12.43,18.76-50.48,38.14-85.21,56.16-108.51,47.43-61.35,85.43-43.36,78.04-24.45Z" />
          <path class="s" d="M294.59,309.06c-18.02,23.3-37.4,58.04-56.16,108.51-21.46-154.89,44.56-172.31,49.38-146.76,.93,4.91,3.72,18.59,6.78,38.25Z" />
          <path class="r" d="M.04,230.75H.04c8.37-24.11,24.56-40.44,43.16-40.44,8.53,0,16.56,3.44,23.56,9.5,4.98,25.35,10.63,51.69,17.12,77.62,1.64,6.56,3.33,13.09,5.09,19.57,2.17,8.07,4.45,16.06,6.81,23.93,4.13,13.74,8.54,27.11,13.28,39.9,14.63,39.46,32.3,73.26,53.99,94.6,0,.01,.02,.03,.03,.04,35.4,39.12,140.71,52.94,140.71,52.94-41.32,5.12-84.52,5.38-123.97-4.23-54.85-13.36-102.43-45.83-127.54-110.87-5.91-15.34-11.77-31.51-17.48-48.24-5-14.62-9.91-29.68-14.66-44.96,0,0,0-.01,0-.02-4.67-15.04-9.2-30.32-13.54-45.66-2.23-7.88-4.41-15.78-6.55-23.67Z" />
        </g>
      </g>
    </g>
  </g>
</svg>
