<svg xmlns="http://www.w3.org/2000/svg" width="36.962" height="24.653" viewBox="0 0 36.962 24.653">
  <path id="Caminho_189" data-name="Caminho 189" d="M38.667-74.48a5.082,5.082,0,0,1-1-.1,10.146,10.146,0,0,0,.234-2.21,2.313,2.313,0,0,0-2.31-2.31,2.313,2.313,0,0,0-2.31,2.31,3.876,3.876,0,0,0,2.466,3.173,6.69,6.69,0,0,1-.761,1.322c-1.879-3.109-5.535-5.481-10-6.391a22.073,22.073,0,0,0-3.259-.413,23.173,23.173,0,0,0-3.532.19,18,18,0,0,0-7.052,2.468,5.349,5.349,0,0,0-3.279-1.118.768.768,0,0,0-.769.771A5.331,5.331,0,0,0,8.02-73.8a10.215,10.215,0,0,0-2.14,3.941H5.552a3.082,3.082,0,0,0-3.079,3.079A4.908,4.908,0,0,0,4.8-62.594l5.379,3.35v4.015a.768.768,0,0,0,.769.769h3.081a.77.77,0,0,0,.689-.425l.91-1.823a20.5,20.5,0,0,0,10.662,0l.91,1.823a.77.77,0,0,0,.689.425h3.081a.768.768,0,0,0,.769-.769v-4.079a10.4,10.4,0,0,0,4.622-8.242,8.874,8.874,0,0,0-.625-3.231A8.138,8.138,0,0,0,37.2-73.1a6.706,6.706,0,0,0,1.468.164.769.769,0,0,0,.769-.771A.768.768,0,0,0,38.667-74.48ZM21.525-63.592l-.058.016v.621a.4.4,0,0,1-.4.4H20.9a.4.4,0,0,1-.405-.389v-.6l-.062-.016a3.432,3.432,0,0,1-1.08-.541.4.4,0,0,1-.094-.555v-.012l.13-.188a.394.394,0,0,1,.549-.112l.018.012a1.976,1.976,0,0,0,.984.407.682.682,0,0,0,.557-.206.61.61,0,0,0,.114-.391c0-.459-.353-.661-.928-.956a3.528,3.528,0,0,1-.887-.567,1.472,1.472,0,0,1-.343-.447,1.52,1.52,0,0,1-.126-.629,1.538,1.538,0,0,1,1.122-1.531L20.5-69.3v-.621a.4.4,0,0,1,.393-.4h.174a.4.4,0,0,1,.4.4v.6l.064.014a1.8,1.8,0,0,1,.91.471l.022.022a.4.4,0,0,1,.016.541l-.17.188a.4.4,0,0,1-.541.044,1.233,1.233,0,0,0-.739-.3.515.515,0,0,0-.577.445.492.492,0,0,0,0,.094c0,.367.319.541.837.795a3.591,3.591,0,0,1,.942.593,1.63,1.63,0,0,1,.357.511,1.778,1.778,0,0,1,.134.7A1.583,1.583,0,0,1,21.525-63.592ZM27.076-74.24a.769.769,0,0,1-.731.529.761.761,0,0,1-.24-.038,18.819,18.819,0,0,0-10.3,0,.769.769,0,0,1-.97-.491.768.768,0,0,1,.491-.972,18.678,18.678,0,0,1,5.631-.793,18.678,18.678,0,0,1,5.631.793A.768.768,0,0,1,27.076-74.24Zm9.125-.879a2.382,2.382,0,0,1-1.386-1.671.771.771,0,0,1,.771-.771.771.771,0,0,1,.771.771A8.809,8.809,0,0,1,36.2-75.119Z" transform="translate(-2.473 79.112)" fill="#000"/>
</svg>
