<svg xmlns="http://www.w3.org/2000/svg" width="177.423" height="237.018" viewBox="0 0 177.423 237.018">
  <g id="Grupo_56" data-name="Grupo 56" transform="translate(41.747 -10.76) rotate(14)">
    <g id="Grupo_46" data-name="Grupo 46" transform="translate(74.414 17.807)">
      <path id="Caminho_137" data-name="Caminho 137" d="M23.786,2.447q-2.756.979-5.148,2.02a40.07,40.07,0,0,0-4.373,2.4A34.011,34.011,0,0,0,7.5,12.287a32.983,32.983,0,0,0-4.572,6.089,35.62,35.62,0,0,0-2.889,6.6.781.781,0,0,0,.846,1C3.257,25.7,5.46,25.285,7.736,25c1.123-.172,2.229-.378,3.329-.63,1.128-.18,2.257-.386,3.39-.654,2.24-.617,4.617-1.057,7.08-1.908,1.244-.378,2.547-.7,3.889-1.155l2.062-.7,2.176-.641a173.467,173.467,0,0,1,20.347-5.367c7.08-1.269,14.289-1.967,19.845-2.859C65.8,6.611,58.249,2.7,49.628.969A52.464,52.464,0,0,0,23.786,2.447Z" fill="#b7a9eb"/>
    </g>
    <g id="Grupo_47" data-name="Grupo 47" transform="translate(59.739 47.966)">
      <path id="Caminho_138" data-name="Caminho 138" d="M26.681.983Q24.615.467,22.6.17A36.013,36.013,0,0,0,18.778,0a25.507,25.507,0,0,0-7.025,1.008A28.4,28.4,0,0,0,5.607,3.619,40.9,40.9,0,0,0,.224,7.556.765.765,0,0,0,.464,8.8a125.57,125.57,0,0,0,12.372,4.506q3.206,1.029,6.509,1.837c2.218.556,4.621,1.215,6.991,1.723,5.148,1.312,10.113,2.724,14.142,3.977,4.08,1.3,7.1,2.5,9.243,2.362A30.349,30.349,0,0,0,42.076,9.86a24.909,24.909,0,0,0-3.284-2.921,43.115,43.115,0,0,0-3.753-2.564A42.892,42.892,0,0,0,30.965,2.41c-.7-.295-1.421-.577-2.144-.836Q27.761,1.251,26.681.983Z" fill="#b7a9eb"/>
    </g>
    <g id="Grupo_48" data-name="Grupo 48" transform="translate(39.164 70.854)">
      <path id="Caminho_139" data-name="Caminho 139" d="M19.705.779c-1.266.276-2.483.605-3.65.976a32.894,32.894,0,0,0-3.2,1.352,30.985,30.985,0,0,0-2.9,1.586q-1.31.888-2.493,1.871a27.877,27.877,0,0,0-2.252,2.05q-1,1.1-1.917,2.279A29.37,29.37,0,0,0,.076,15.966a.661.661,0,0,0,.56.966,71.41,71.41,0,0,0,11.95-.5c2.026-.253,4.076-.61,6.173-1.082,2.141-.443,4.4-.946,6.689-1.571,4.956-1.185,9.778-2.47,13.982-3.336,2.058-.61,3.876-.678,5.308-1.1A12.617,12.617,0,0,0,48.527,8.1a31.311,31.311,0,0,0-5.5-3.845A34.163,34.163,0,0,0,35.983,1.31,32.684,32.684,0,0,0,19.705.779Z" fill="#b7a9eb"/>
    </g>
    <g id="Grupo_49" data-name="Grupo 49" transform="translate(32.3 93.4)">
      <path id="Caminho_140" data-name="Caminho 140" d="M15.364,6.544q-1.838,1.181-3.458,2.443c-1.037.855-1.984,1.736-2.878,2.633a29.834,29.834,0,0,0-4.437,5.63A35.623,35.623,0,0,0,.015,29.769a.742.742,0,0,0,.931.836A70.517,70.517,0,0,0,13.5,25.957a96.058,96.058,0,0,0,12.751-7.635c4.493-3.122,9.245-6.425,13.572-9.43,4.088-2.8,7.247-5.16,9-7.2A36.631,36.631,0,0,0,41.364.148,43.612,43.612,0,0,0,32.733.3a45.443,45.443,0,0,0-9.009,2.149A42.374,42.374,0,0,0,15.364,6.544Z" fill="#b7a9eb"/>
    </g>
    <g id="Grupo_50" data-name="Grupo 50" transform="translate(34.641 119.679)">
      <path id="Caminho_141" data-name="Caminho 141" d="M7.7,15.617A32.032,32.032,0,0,0,.064,39.174a.66.66,0,0,0,.968.529c7.038-3.771,12.684-8.442,18.8-16.431,3.179-4.108,6.391-8.567,8.948-12.618C31.42,6.6,33.4,2.937,34.2,0A36.976,36.976,0,0,0,20.479,4.842,51.675,51.675,0,0,0,13.608,9.66,50.01,50.01,0,0,0,7.7,15.617Z" fill="#b7a9eb"/>
    </g>
    <g id="Grupo_51" data-name="Grupo 51" transform="translate(44.478 0)">
      <path id="Caminho_142" data-name="Caminho 142" d="M20.824,38.375c-1.483,2.977-2.626,5.9-3.9,8.313-1.188,2.527-2.313,4.83-3.506,6.907a134.987,134.987,0,0,1-7.1,11.768.746.746,0,0,1-1.254-.012,38.749,38.749,0,0,1-3.058-6.113,32.224,32.224,0,0,1-1.73-6.844A27.778,27.778,0,0,1,.33,44.23a35.828,35.828,0,0,1,.914-4.73c.45-1.608,1.01-3.3,1.694-5.1a60.215,60.215,0,0,1,14.81-21.539C24.407,6.654,32.279,1.849,39.263,0A52.577,52.577,0,0,1,35.75,8.318c-1.462,3.11-3.2,6.367-4.968,9.693C27.313,24.872,23.707,31.856,20.824,38.375Z" fill="#b7a9eb"/>
    </g>
    <g id="Grupo_52" data-name="Grupo 52" transform="translate(16.201 28.122)">
      <path id="Caminho_143" data-name="Caminho 143" d="M18.369,41.571c.219,1.671.4,3.245.539,4.739.187,1.514.361,2.96.475,4.337.185,2.738.4,5.3.408,7.7a91.667,91.667,0,0,1-.912,13.7.74.74,0,0,1-1.123.544C10.2,67.656,3.811,61.475.953,47.387a60.628,60.628,0,0,1,.738-24.934,51.009,51.009,0,0,1,1.858-6.333A46.64,46.64,0,0,1,5.99,10.152C6.917,8.26,7.9,6.451,8.91,4.759A53.246,53.246,0,0,1,12.474,0a45.658,45.658,0,0,1,1.794,8.746c.538,3.3,1.017,6.912,1.392,10.6.435,3.737.878,7.547,1.315,11.295C17.529,34.442,17.841,38.053,18.369,41.571Z" fill="#b7a9eb"/>
    </g>
    <g id="Grupo_53" data-name="Grupo 53" transform="translate(3.051 82.679)">
      <path id="Caminho_144" data-name="Caminho 144" d="M20.427,28.431c5.479,9.745,7.428,16.5,8.5,24.292a.632.632,0,0,1-.806.7c-7.431-2.347-13.967-5.966-20.086-15.98A58.17,58.17,0,0,1,1.02,18.859,57.208,57.208,0,0,1,0,8.886,38.879,38.879,0,0,1,.924,0c3.149,2.78,6.645,7.478,9.923,12.6,1.726,2.569,3.4,5.258,4.978,7.928C17.5,23.21,19.016,25.872,20.427,28.431Z" fill="#b7a9eb"/>
    </g>
    <g id="Grupo_54" data-name="Grupo 54" transform="translate(0 134.134)">
      <path id="Caminho_145" data-name="Caminho 145" d="M24.211,18.424C31.258,25.416,34.4,31,36.787,37.659a.576.576,0,0,1-.59.769,33.211,33.211,0,0,1-10.234-2.453A34.995,34.995,0,0,1,15.4,28.785,57.159,57.159,0,0,1,5.056,15.157C2.291,9.951.415,4.491,0,0,3.493,1.357,7.765,4.209,11.962,7.567A147.287,147.287,0,0,1,24.211,18.424Z" fill="#b7a9eb"/>
    </g>
    <g id="Grupo_55" data-name="Grupo 55" transform="translate(31.03 42.721)">
      <path id="Caminho_146" data-name="Caminho 146" d="M27.1,193.6l1.686-.664-5.605-14.253c-5.61-14.5-11.374-30.2-15.511-46.676A186.087,186.087,0,0,1,2,95.877a133.4,133.4,0,0,1,.27-18.267A120.372,120.372,0,0,1,5.011,59.569a109.574,109.574,0,0,1,5.481-17.38,99.977,99.977,0,0,1,8.523-16.076A81.323,81.323,0,0,1,30.688,12.237,72.415,72.415,0,0,1,45.331,1.575L44.434,0a74.119,74.119,0,0,0-15,10.927A83.207,83.207,0,0,0,17.5,25.113,101.727,101.727,0,0,0,8.82,41.487,111.422,111.422,0,0,0,3.246,59.153,122.381,122.381,0,0,0,.467,77.458a135.336,135.336,0,0,0-.273,18.51,187.772,187.772,0,0,0,5.72,36.48c4.161,16.58,9.948,32.337,15.582,46.9Z" fill="#b7a9eb"/>
    </g>
  </g>
</svg>
