<svg id="Grupo_23" data-name="Grupo 23" xmlns="http://www.w3.org/2000/svg" width="180.147" height="319.916" viewBox="0 0 180.147 319.916">
  <path id="Caminho_54" data-name="Caminho 54" d="M434.639,313.354c12.424,13.561,23.446,19.54,36.578,23.669a1.124,1.124,0,0,0,1.447-1.216c-1.928-13.572-6.175-25.816-18.979-39.782-13.289-14.644-33.393-27.6-47.4-29.251C409.614,280.082,421.714,299.121,434.639,313.354Z" transform="translate(-406.288 -265.561)" fill="#a8a7db"/>
  <path id="Caminho_55" data-name="Caminho 55" d="M446.32,319.145c-1.312,18.146,1.966,29.8,7.737,41.665a1.082,1.082,0,0,0,1.8.2c8.207-10.334,13.778-21.256,15.206-39.6,1.478-19.1-2.419-42.6-10.11-55.3C453.237,277.78,447.7,300.254,446.32,319.145Z" transform="translate(-373.802 -266.107)" fill="#a8a7db"/>
  <path id="Caminho_56" data-name="Caminho 56" d="M463.128,344.625c-3.108,15.938-1.378,26.668,2.586,37.78a.967.967,0,0,0,1.585.353c8.287-8.356,14.415-17.527,17.56-33.54,3.4-16.742,2.573-37.661-2.5-49.531C473.944,308.914,466.405,328,463.128,344.625Z" transform="translate(-361.133 -238.659)" fill="#a8a7db"/>
  <path id="Caminho_57" data-name="Caminho 57" d="M477.215,370.673a83.53,83.53,0,0,0-2.257,23.084,77.529,77.529,0,0,0,3.793,19.228,1.08,1.08,0,0,0,1.756.454c9.607-9.043,16.709-19.035,20.833-36.847,4.325-18.581,4.254-42.034-1.08-55.425C490.6,331.144,481.441,352.214,477.215,370.673Z" transform="translate(-350.237 -221.101)" fill="#a8a7db"/>
  <path id="Caminho_58" data-name="Caminho 58" d="M489.711,396.611c-4.051,15.371-3.111,26.019.08,37.136a.944.944,0,0,0,1.523.453c8.723-7.662,15.166-16.18,19.371-31.681a114.448,114.448,0,0,0,3.649-25.865c.144-8.6-.7-16.713-2.779-22.634C502.707,362.432,494.008,380.553,489.711,396.611Z" transform="translate(-340.298 -194.248)" fill="#a8a7db"/>
  <path id="Caminho_59" data-name="Caminho 59" d="M461.581,317.21c16.164,7.775,24.313,16.967,30.919,28.337a1.076,1.076,0,0,1-.84,1.6c-13.154,1.083-25.2-.284-41.147-8.06-16.658-8.135-34.161-21.187-41.267-32.113,6.748-1.181,15.608-.714,24.922,1.111A117.556,117.556,0,0,1,461.581,317.21Z" transform="translate(-403.87 -233.232)" fill="#a8a7db"/>
  <path id="Caminho_60" data-name="Caminho 60" d="M474.9,344.584c16.416,7.23,24.923,16.06,31.96,27.173a1.075,1.075,0,0,1-.778,1.634c-13.127,1.6-25.18.663-41.476-6.562-16.932-7.611-35.046-20.189-42.53-31.112,6.784-1.334,15.689-1.029,25.053.587A119.806,119.806,0,0,1,474.9,344.584Z" transform="translate(-393.38 -209.894)" fill="#a8a7db"/>
  <path id="Caminho_61" data-name="Caminho 61" d="M486.52,371.726c13.885,6.741,20.976,14.548,26.694,24.311a.929.929,0,0,1-.716,1.385c-11.28.992-21.674-.116-35.466-6.851-14.348-7.066-29.59-18.561-35.679-28.344C453.048,360.465,472.048,364.658,486.52,371.726Z" transform="translate(-377.627 -187.869)" fill="#a8a7db"/>
  <path id="Caminho_62" data-name="Caminho 62" d="M497.42,399.833c12.322,6.5,18.37,13.783,23.253,22.732a.838.838,0,0,1-.691,1.225c-10.157.52-19.542-.783-31.7-7.3-12.709-6.81-26.03-17.679-31.221-26.7C467.659,388.592,484.626,393,497.42,399.833Z" transform="translate(-364.79 -165.175)" fill="#a8a7db"/>
  <g id="Grupo_22" data-name="Grupo 22" transform="translate(65.168 68.917)">
    <path id="Caminho_63" data-name="Caminho 63" d="M555.4,555.028q-1.21-3.577-2.45-7.142c-5.783-16.787-12.033-33.656-18.579-50.138-12.375-31.446-26.374-63.5-42.8-98-16.287-34.047-32.458-65.064-49.431-94.82l1.577-.9c17,29.794,33.185,60.848,49.494,94.936,16.442,34.539,30.457,66.632,42.847,98.117,6.555,16.505,12.814,33.4,18.6,50.21q1.243,3.566,2.457,7.153Z" transform="translate(-442.146 -304.028)" fill="#b2c0e8"/>
  </g>
</svg>
