<svg id="home_black_24dp" xmlns="http://www.w3.org/2000/svg" xmlns:xlink="http://www.w3.org/1999/xlink" width="36.324" height="36.324" viewBox="0 0 36.324 36.324">
  <path id="Caminho_195" data-name="Caminho 195" d="M0,0H36.324V36.324H0Z" fill="none"/>
  <path id="Caminho_196" data-name="Caminho 196" d="M13.7,27.039V19.472H19.75v7.568a1.518,1.518,0,0,0,1.514,1.514H25.8a1.518,1.518,0,0,0,1.514-1.514V16.445h2.573a.751.751,0,0,0,.5-1.317L17.737,3.731a1.525,1.525,0,0,0-2.028,0L3.056,15.128a.754.754,0,0,0,.5,1.317H6.129V27.039a1.518,1.518,0,0,0,1.514,1.514h4.541A1.518,1.518,0,0,0,13.7,27.039Z" transform="translate(1.439 1.718)" fill="#000"/>
</svg>
