<svg xmlns="http://www.w3.org/2000/svg" xmlns:xlink="http://www.w3.org/1999/xlink" width="128" height="216.029" viewBox="0 0 128 216.029">
  <defs>
    <linearGradient id="linear-gradient" x1="86.065" y1="-32.053" x2="85.215" y2="-32.074" gradientUnits="objectBoundingBox">
      <stop offset="0" stop-color="#dcb624"/>
      <stop offset="0.844" stop-color="#e1c24f"/>
    </linearGradient>
  </defs>
  <g id="Grupo_176" data-name="Grupo 176" transform="translate(-904.864 419.785)">
    <g id="graphic" transform="translate(904.864 -419.785)">
      <g id="Grupo_62" data-name="Grupo 62" transform="translate(0 34.646)">
        <g id="Grupo_60" data-name="Grupo 60" transform="translate(51.83)">
          <path id="Caminho_158" data-name="Caminho 158" d="M869.56,352.57h-7.424a47.115,47.115,0,0,0-1,7.75c0,3.1.634,5.658.634,8.525,0,3.256-4.164,12.4-3.712,21h1.992C866.844,376.672,869.455,366.088,869.56,352.57Z" transform="translate(-850.664 -321.251)" fill="#45409c"/>
          <path id="Caminho_159" data-name="Caminho 159" d="M878.434,352.57c5.066,15.97.362,22.629-1.63,37.277h-2.354c-1.81-12.632,2.987-23.715-4.708-37.277Z" transform="translate(-853.836 -321.251)" fill="#45409c"/>
          <path id="Caminho_160" data-name="Caminho 160" d="M876.19,403.683l-.021.665a1.63,1.63,0,0,0,2.518,0l-.144-.665Z" transform="translate(-855.575 -335.087)" fill="#45409c"/>
          <path id="Caminho_161" data-name="Caminho 161" d="M862.548,405.924c.051-.017.008-.231-.006-.271a.436.436,0,0,0-.141-.19,3.218,3.218,0,0,0-.576-.307,2.926,2.926,0,0,1-.78-.567,2.182,2.182,0,0,1-.368-.471,2.235,2.235,0,0,0-.293-.578.975.975,0,0,0-.715-.332,1.206,1.206,0,0,0-.491.149,1.8,1.8,0,0,1-.467.163.835.835,0,0,1-.478-.042c-.094-.044-.214-.19-.33-.181s-.256.217-.3.286a1.991,1.991,0,0,0-.2.971.353.353,0,0,0,.188.3c.386.242,1.235.768,1.6.941A5.828,5.828,0,0,0,862.548,405.924Z" transform="translate(-850.496 -334.958)" fill="#2d3069"/>
          <path id="Caminho_162" data-name="Caminho 162" d="M883.093,405.214c-.34-.923-1.933.253-4.525-1.762a.178.178,0,0,0-.272.067c-.238.686-1.1.847-2.254.756-.353.387-.537,1.328-.023,1.557l3.844.1A6.154,6.154,0,0,0,883.093,405.214Z" transform="translate(-855.449 -335.015)" fill="#2d3069"/>
          <path id="Caminho_163" data-name="Caminho 163" d="M875.895,346.413c1-5.052,3.2-16.589-2.177-16.589l-7.479.621c-10.746,0-3.472,8.725-3.472,15.968Z" transform="translate(-851.296 -315.094)" fill="#de4b6f"/>
          <g id="Grupo_59" data-name="Grupo 59">
            <path id="Caminho_164" data-name="Caminho 164" d="M851.325,337.883c-.1.118-.208.235-.311.353l-.6.684-.314.362c-.139.163-.278.327-.4.5a8.979,8.979,0,0,0-1.234,2.247,8.724,8.724,0,0,0-.5,3.77l.033.315.034.244.068.463c.093.616.189,1.23.3,1.838.447,2.436.971,4.831,1.609,7.2l.637,2.506c-.013.027-.03.05-.042.078a4.546,4.546,0,0,0,.292,3.135.393.393,0,0,0,.719.021l.78-1.641.026.157a.363.363,0,0,0,.718-.1c-.038-.35-.1-.9-.15-1.362a.982.982,0,0,0-.286-1.046,15.928,15.928,0,0,0,.089-2.23c-.1-2.429-.279-4.835-.386-7.225l-.079-1.786-.016-.444c0-.07-.007-.157-.006-.213l0-.16a4.029,4.029,0,0,1,.07-.63,4.461,4.461,0,0,1,1.075-2.183c.066-.076.139-.145.21-.215l.311-.3.65-.635c.152-.149.3-.3.452-.448Z" transform="translate(-847.931 -317.275)" fill="#f8d1b5"/>
            <path id="Caminho_165" data-name="Caminho 165" d="M903.159,309.678l-2.312,1.3.161-.791a.363.363,0,0,0-.706-.164c-.1.373-.255.986-.374,1.451a.965.965,0,0,0-.217.163.6.6,0,0,0-.106.109c-.01.01-.018.016-.028.028a17.677,17.677,0,0,0-1.534,2.432c-1.258,2.269-2.489,4.527-3.816,6.722l-.49.826-.249.411-.062.1-.031.052-.1.131a2.5,2.5,0,0,1-1.693.917l-.843.065c-.316.027-.633.044-.95.066-.907.05-1.816.1-2.725.145l.594,5.083c.89-.085,1.779-.18,2.666-.314.333-.05.666-.095,1-.15l.5-.08.249-.039.352-.064a7.031,7.031,0,0,0,2.672-1.157,6.927,6.927,0,0,0,1.93-2.152c.059-.105.114-.212.17-.319l.04-.077.026-.057.052-.114.211-.456.413-.915a62.218,62.218,0,0,0,2.749-7.523l.872-2.232a1.728,1.728,0,0,0,.583-.234,4.551,4.551,0,0,0,1.569-2.73A.393.393,0,0,0,903.159,309.678Z" transform="translate(-858.531 -309.626)" fill="#f8d1b5"/>
            <path id="Caminho_166" data-name="Caminho 166" d="M869.621,336.3l.113,0,.092-.007Z" transform="translate(-853.803 -316.847)" fill="#de4b6f"/>
            <path id="Caminho_167" data-name="Caminho 167" d="M876.664,328.892c-1.273.049-2.549.056-3.827.075s-2.558.016-3.84,0l-3.852-.082-.129,0-.1.006a16.89,16.89,0,0,0-4.282.807,16.367,16.367,0,0,0-2.027.811,17.458,17.458,0,0,0-1.889,1.09,16.662,16.662,0,0,0-1.727,1.327c-.279.233-.534.492-.8.742-.129.128-.251.261-.377.392l-.187.2-.158.174c-.3.332-.6.672-.891,1.009l3.757,3.251c.281-.276.565-.549.839-.831.112-.117.2-.2.293-.286s.181-.176.275-.26c.194-.162.377-.334.58-.484a11.513,11.513,0,0,1,1.239-.853,12.125,12.125,0,0,1,1.333-.678,11.61,11.61,0,0,1,1.394-.524,11.459,11.459,0,0,1,2.828-.484l-.113,0,.2,0-.092.007c.626.023,1.251.053,1.878.061.665.008,1.33.015,2,.012q2,0,4-.059c1.335-.042,2.671-.144,4.007-.251.446-.039.893-.082,1.34-.125l-.594-5.083C877.386,328.861,877.025,328.88,876.664,328.892Z" transform="translate(-849.191 -314.828)" fill="#de4b6f"/>
          </g>
          <path id="Caminho_168" data-name="Caminho 168" d="M869.471,320.185l.208-.034a2.535,2.535,0,0,1,2.926-2.9,3.041,3.041,0,0,1,2.733,2.7c.308,1.166.3,3.612-1.2,3.98a3.565,3.565,0,0,1-4.191-2.386,1.3,1.3,0,0,1-.8-.765A.435.435,0,0,1,869.471,320.185Z" transform="translate(-853.663 -311.686)" fill="#f8d1b5"/>
          <path id="Caminho_169" data-name="Caminho 169" d="M873.882,324.5a23.352,23.352,0,0,0,.388,3.808c.1.674-2.97.61-2.819-.1a19.1,19.1,0,0,0,.449-4.069Z" transform="translate(-854.297 -313.556)" fill="#f8d1b5"/>
          <path id="Caminho_170" data-name="Caminho 170" d="M875.295,319.4c-1.1-1.7-3.5.572-4.269-.84a2.9,2.9,0,0,0,.017,2.622l-.4.113c-.3-.76-.618-1.329-.965-1.426-.832-.519-.761-2.347.161-2.371C870.716,315.346,875.853,315.818,875.295,319.4Z" transform="translate(-853.661 -311.408)" fill="#2d3069"/>
        </g>
        <path id="Caminho_171" data-name="Caminho 171" d="M939.55,403.818c-4.888-2.407-23.9,7.775-23.9,7.775.961-.724,7.227,4.792,12.845,10.85C929.28,414.516,932.794,407.219,939.55,403.818Z" transform="translate(-814.433 -335.024)" fill="#9dcbf2"/>
        <path id="Caminho_172" data-name="Caminho 172" d="M944.318,403.955c-6.756,3.4-10.27,10.7-11.055,18.625,4.8,5.169,9.118,10.732,9.264,13.146,3.773-6.5,6.182-27.872,2.305-31.435A2.164,2.164,0,0,0,944.318,403.955Z" transform="translate(-819.201 -335.161)" fill="#7f96d4"/>
        <path id="Caminho_173" data-name="Caminho 173" d="M901.706,470.114a2.888,2.888,0,0,1-.109.277c-.431,1.1-.89,2.2-1.4,3.267q-.931,2.2-1.788,4.332a147.231,147.231,0,0,0-6.607,19.866,89.5,89.5,0,0,0-2.516,16.409,2.089,2.089,0,0,1-2.086,1.976H877.1a2.117,2.117,0,0,1-2.093-1.911c-1.064-10.269-10.655-11.837-10.655-11.837s-2.29-.547-13.747-.357c-11.3.2-16.979,10.028-18.153,13.149a1.431,1.431,0,0,1-1.363.955h-9.9a1.469,1.469,0,0,1-1.459-1.393c-.555-9.51-6.893-14.309-16.972-19.925-1.057-.54-2.107-1.109-3.122-1.721a.245.245,0,0,1-.065-.029,46.973,46.973,0,0,1-7.695-74.564,43,43,0,0,1,4-3.333c9.43-6.994,21.967-10.225,33.453-11.654a102.642,102.642,0,0,1,36.8,2.108,54.268,54.268,0,0,1,6.782,2.122c18.649,7.213,31.951,24.308,31.951,45.129A47.9,47.9,0,0,1,901.706,470.114Z" transform="translate(-776.864 -334.859)" fill="#bfdbf2"/>
        <path id="Caminho_174" data-name="Caminho 174" d="M805.123,525.5c-1.063-.537-2.109-1.1-3.126-1.717a.369.369,0,0,1-.064-.03,47.174,47.174,0,0,1-9.869-7.961c-.171,10.316-2.228,19.291-6.291,26.841A1.4,1.4,0,0,0,787,544.7h9.926a2.749,2.749,0,0,0,2.481-1.544,84.868,84.868,0,0,1,9.85-15.253C807.959,527.107,806.582,526.311,805.123,525.5Z" transform="translate(-779.229 -365.434)" fill="#7f96d4"/>
        <path id="Caminho_175" data-name="Caminho 175" d="M884.816,539c-2.067-.062-4.988-.088-9.087-.019a18.275,18.275,0,0,0-6.06,1.126,72.337,72.337,0,0,1,5.476,9.316,2.749,2.749,0,0,0,2.481,1.544h9.927a1.4,1.4,0,0,0,1.223-2.068A48.874,48.874,0,0,1,884.816,539Z" transform="translate(-801.986 -371.7)" fill="#7f96d4"/>
        <ellipse id="Elipse_47" data-name="Elipse 47" cx="2.556" cy="3.789" rx="2.556" ry="3.789" transform="translate(66.693 105.242)" fill="#6975a8"/>
        <ellipse id="Elipse_48" data-name="Elipse 48" cx="2.556" cy="3.789" rx="2.556" ry="3.789" transform="translate(109.52 105.242)" fill="#6975a8"/>
        <path id="Caminho_176" data-name="Caminho 176" d="M847.5,395.4a4.955,4.955,0,0,0-3.534-.777c-7.334,1.257-14.883,14.815-17.08,21.271-1.44,4.229,2.515,7.964,7.649,8.173C833.2,413.462,836.917,396.426,847.5,395.4Z" transform="translate(-790.325 -332.615)" fill="#9dcbf2"/>
        <path id="Caminho_177" data-name="Caminho 177" d="M858.02,408.747c-.993-3.177-3.658-10.542-7.663-13.036-10.586,1.029-14.3,18.065-12.965,28.667,5.223-5.124,12.06-9.481,19.709-13.451A1.841,1.841,0,0,0,858.02,408.747Z" transform="translate(-793.178 -332.929)" fill="#7f96d4"/>
        <g id="Grupo_61" data-name="Grupo 61" transform="translate(70.509 103.899)">
          <circle id="Elipse_49" data-name="Elipse 49" cx="15.157" cy="15.157" r="15.157" transform="translate(0 21.435) rotate(-45)" fill="#bac9f2"/>
          <circle id="Elipse_50" data-name="Elipse 50" cx="15.157" cy="15.157" r="15.157" transform="translate(2.917 21.435) rotate(-45)" fill="#fff"/>
          <path id="Caminho_178" data-name="Caminho 178" d="M900.754,481.29a2.468,2.468,0,1,0-2.468,2.467A2.467,2.467,0,0,0,900.754,481.29Z" transform="translate(-879.574 -459.326)" fill="#abb9df"/>
          <path id="Caminho_179" data-name="Caminho 179" d="M917.187,481.29a2.468,2.468,0,1,0-2.468,2.467A2.467,2.467,0,0,0,917.187,481.29Z" transform="translate(-884.022 -459.326)" fill="#abb9df"/>
        </g>
      </g>
      <g id="Grupo_63" data-name="Grupo 63" transform="translate(82.05)">
        <path id="Caminho_180" data-name="Caminho 180" d="M899.626,262.12h5.182c4.136,0,7.48,5.691,7.48,12.72s-3.345,12.719-7.48,12.719h-5.182a4.824,4.824,0,0,0,2.591-.782,8.273,8.273,0,0,0,2.591-2.76,19.468,19.468,0,0,0,0-18.354,8.259,8.259,0,0,0-2.591-2.76A4.818,4.818,0,0,0,899.626,262.12Z" transform="translate(-892.146 -262.12)" fill="url(#linear-gradient)"/>
        <path id="Caminho_181" data-name="Caminho 181" d="M896.85,262.12a4.818,4.818,0,0,1,2.591.783,8.259,8.259,0,0,1,2.591,2.76,19.467,19.467,0,0,1,0,18.354,8.272,8.272,0,0,1-2.591,2.76,4.823,4.823,0,0,1-2.591.782c-4.136,0-7.481-5.691-7.481-12.719S892.714,262.12,896.85,262.12Z" transform="translate(-889.369 -262.12)" fill="#ebd586"/>
      </g>
    </g>
  </g>
</svg>
