<?xml version="1.0" encoding="UTF-8"?><svg xmlns="http://www.w3.org/2000/svg" xmlns:xlink="http://www.w3.org/1999/xlink" viewBox="0 0 1022.77 988.94"><defs><style>.n{fill:url(#i);}.o{fill:url(#h);}.p{fill:url(#k);}.q{fill:url(#j);}.r{fill:url(#m);}.s{fill:url(#l);}.t{fill:#4e9ed7;}.u{fill:url(#g);}.u,.v,.w,.x{isolation:isolate;}.v{fill:url(#f);}.w{fill:url(#e);}.x{fill:url(#d);}</style><linearGradient id="d" x1="1022.77" y1="310.61" x2="32.56" y2="310.61" gradientTransform="matrix(1, 0, 0, 1, 0, 0)" gradientUnits="userSpaceOnUse"><stop offset="0" stop-color="#5ec3da"/><stop offset=".3" stop-color="#5cc0d8"/><stop offset=".52" stop-color="#57b6d3"/><stop offset=".71" stop-color="#4ea7cb"/><stop offset=".88" stop-color="#4191bf"/><stop offset="1" stop-color="#367db5"/></linearGradient><linearGradient id="e" x1="84.03" y1="210.32" x2="650.2" y2="210.32" xlink:href="#d"/><linearGradient id="f" x1="276.55" y1="288.97" x2="555.45" y2="288.97" xlink:href="#d"/><linearGradient id="g" x1="434.29" y1="333.45" x2="555.02" y2="333.45" xlink:href="#d"/><linearGradient id="h" x1="437.69" y1="310.61" x2="1044.45" y2="310.61" gradientTransform="matrix(1, 0, 0, 1, 0, 0)" gradientUnits="userSpaceOnUse"><stop offset="0" stop-color="#5ec3da"/><stop offset=".13" stop-color="#50abcd"/><stop offset=".28" stop-color="#4496c2"/><stop offset=".46" stop-color="#3c88ba"/><stop offset=".67" stop-color="#377fb6"/><stop offset="1" stop-color="#367db5"/></linearGradient><linearGradient id="i" x1="0" y1="678.33" x2="990.21" y2="678.33" gradientTransform="matrix(1, 0, 0, 1, 0, 0)" gradientUnits="userSpaceOnUse"><stop offset="0" stop-color="#f6b1a1"/><stop offset=".24" stop-color="#f5aaa1"/><stop offset=".58" stop-color="#f298a3"/><stop offset=".97" stop-color="#ee7ba6"/><stop offset="1" stop-color="#ee79a7"/></linearGradient><linearGradient id="j" x1="372.57" y1="778.61" x2="938.74" y2="778.61" xlink:href="#i"/><linearGradient id="k" x1="467.32" y1="699.97" x2="746.22" y2="699.97" xlink:href="#i"/><linearGradient id="l" x1="467.75" y1="655.49" x2="588.48" y2="655.49" xlink:href="#i"/><linearGradient id="m" x1="4105.98" y1="2210.01" x2="4712.74" y2="2210.01" gradientTransform="translate(4691.14 2888.19) rotate(-180)" gradientUnits="userSpaceOnUse"><stop offset="0" stop-color="#f6b1a1"/><stop offset=".21" stop-color="#f29ba3"/><stop offset=".46" stop-color="#f088a5"/><stop offset=".73" stop-color="#ee7ca6"/><stop offset="1" stop-color="#ee79a7"/></linearGradient></defs><g id="a"/><g id="b"><g id="c"><g><path d="M47.3,104.93C85.57,90.12,412.71-44.19,663.65,14.96c109.57,25.81,204.62,88.53,254.78,214.15,11.81,29.62,23.51,60.86,34.93,93.18,10,28.24,19.79,57.32,29.28,86.85,0,.01,.01,.03,.01,.04,9.33,29.05,18.38,58.57,27.05,88.19,4.46,15.22,8.82,30.48,13.08,45.72h0c-16.72,46.56-49.06,78.11-86.21,78.11-17.05,0-33.08-6.65-47.07-18.35-9.96-48.96-21.23-99.84-34.19-149.92-3.27-12.67-6.66-25.28-10.17-37.8-4.34-15.58-8.88-31.02-13.6-46.22-8.25-26.53-17.06-52.37-26.53-77.07-39.13-102.09-89.22-184.59-154.8-215.9-39.48-18.87-84.6-19.18-136.29,5.91-123.16,59.81-218.39,89.3-290.38,100.36C41.37,210.17,7.87,120.19,47.3,104.93Z" style="fill:#4e9ed7;"/><path d="M1022.77,543.1h0c-16.72,46.56-49.06,78.11-86.21,78.11-17.05,0-33.08-6.65-47.07-18.35-9.96-48.96-21.23-99.84-34.19-149.92-3.27-12.67-6.66-25.28-10.17-37.8-4.34-15.58-8.88-31.02-13.6-46.22-8.25-26.53-17.06-52.37-26.53-77.07-29.22-76.21-64.52-141.49-107.84-182.73-.01-.03-.04-.05-.07-.08-14.69-13.97-30.29-25.17-46.89-33.1-39.48-18.87-84.6-19.18-136.29,5.91-123.16,59.81-218.39,89.3-290.38,100.36C41.37,210.17,7.87,120.19,47.3,104.93,73.55,94.77,235.73,28.38,416.01,6.79c82.53-9.89,168.84-10.39,247.64,8.18,109.57,25.81,204.62,88.53,254.78,214.15,11.81,29.62,23.51,60.86,34.93,93.18,10,28.24,19.79,57.32,29.28,86.85,0,.01,.01,.03,.01,.04,9.33,29.05,18.38,58.57,27.05,88.19,4.46,15.22,8.82,30.48,13.08,45.72Z" style="fill:url(#d); isolation:isolate;"/><path d="M93.19,287.18c12.49-9.6,60.89-48.03,130.33-92.54,64.3-9.86,147.13-34.45,251.85-82.18,12.53-5.73,25.37-11.78,38.54-18.17,19.48-9.47,38.04-15.31,55.71-17.92,29.2-4.31,55.98,.25,80.58,11.99-31.67-2.13-63.37,6.51-94.74,28.69-6.99,4.91-13.98,10.54-20.94,16.85-81.61,74.07-151.37,124.18-209.91,157.02-198.14,111.1-267.55,23.97-231.43-3.74Z" style="fill:url(#e); isolation:isolate;"/><path d="M278.39,412.08c4.8-11.9,20.44-52.48,46.22-106.96,46.08-25.85,99.11-62.39,159.4-112.9,16.3-13.66,33.14-28.33,50.51-44.11,3.2-2.92,6.4-5.67,9.62-8.29,3.77-3.07,7.54-5.93,11.31-8.57-2.98,8.21-5.98,16.21-8.98,24.01-37.48,97.49-76.19,164.59-112.18,209.6-94.74,118.49-170.66,83.75-155.9,47.23Z" style="fill:url(#f); isolation:isolate;"/><path d="M434.29,391.97c36-45,74.71-112.1,112.18-209.6,42.86,299.17-89,332.82-98.65,283.48-1.86-9.48-7.43-35.92-13.54-73.88Z" style="fill:url(#g); isolation:isolate;"/><path d="M1022.77,543.1h0c-16.72,46.56-49.06,78.11-86.21,78.11-17.05,0-33.08-6.65-47.07-18.35-9.96-48.96-21.23-99.84-34.19-149.92-3.27-12.67-6.66-25.28-10.17-37.8-4.34-15.58-8.88-31.02-13.6-46.22-8.25-26.53-17.06-52.37-26.53-77.07-29.22-76.21-64.52-141.49-107.84-182.73-.01-.03-.04-.05-.07-.08C626.38,33.48,416.01,6.79,416.01,6.79c82.53-9.89,168.84-10.39,247.64,8.18,109.57,25.81,204.62,88.53,254.78,214.15,11.81,29.62,23.51,60.86,34.93,93.18,10,28.24,19.79,57.32,29.28,86.85,0,.01,.01,.03,.01,.04,9.33,29.05,18.38,58.57,27.05,88.19,4.46,15.22,8.82,30.48,13.08,45.72Z" style="fill:url(#h);"/><g><path d="M975.47,884.01c-38.28,14.81-365.41,149.12-616.35,89.97-109.57-25.81-204.62-88.53-254.78-214.15-11.81-29.62-23.51-60.86-34.93-93.18-10-28.24-19.79-57.32-29.28-86.85,0-.01-.01-.03-.01-.04-9.33-29.05-18.38-58.57-27.05-88.19-4.46-15.22-8.82-30.48-13.08-45.72H0c16.72-46.56,49.06-78.11,86.21-78.11,17.05,0,33.08,6.65,47.07,18.35,9.96,48.96,21.23,99.84,34.19,149.92,3.27,12.67,6.66,25.28,10.17,37.8,4.34,15.58,8.88,31.02,13.6,46.22,8.25,26.53,17.06,52.37,26.53,77.07,39.13,102.09,89.22,184.59,154.8,215.9,39.48,18.87,84.6,19.18,136.29-5.91,123.16-59.81,218.39-89.3,290.38-100.36,182.16-27.95,215.66,62.03,176.23,77.29Z" style="fill:url(#i);"/><path d="M929.58,701.76c-12.49,9.6-60.89,48.03-130.33,92.54-64.3,9.86-147.13,34.45-251.85,82.18-12.53,5.73-25.37,11.78-38.54,18.17-19.48,9.47-38.04,15.31-55.71,17.92-29.2,4.31-55.98-.25-80.58-11.99,31.67,2.13,63.37-6.51,94.74-28.69,6.99-4.91,13.98-10.54,20.94-16.85,81.61-74.07,151.37-124.18,209.91-157.02,198.14-111.1,267.55-23.97,231.43,3.74Z" style="fill:url(#j);"/><path d="M744.38,576.86c-4.8,11.9-20.44,52.48-46.22,106.96-46.08,25.85-99.11,62.39-159.4,112.9-16.3,13.66-33.14,28.33-50.51,44.11-3.2,2.92-6.4,5.67-9.62,8.29-3.77,3.07-7.54,5.93-11.31,8.57,2.98-8.21,5.98-16.21,8.98-24.01,37.48-97.49,76.19-164.59,112.18-209.6,94.74-118.49,170.66-83.75,155.9-47.23Z" style="fill:url(#k);"/><path d="M588.48,596.96c-36,45-74.71,112.1-112.18,209.6-42.86-299.17,89-332.82,98.65-283.48,1.86,9.48,7.43,35.92,13.54,73.88Z" style="fill:url(#l);"/><path d="M.08,445.69H.08c16.72-46.56,49.06-78.11,86.21-78.11,17.05,0,33.08,6.65,47.07,18.35,9.96,48.96,21.23,99.84,34.19,149.92,3.27,12.67,6.66,25.28,10.17,37.8,4.34,15.58,8.88,31.02,13.6,46.22,8.25,26.53,17.06,52.37,26.53,77.07,29.22,76.21,64.52,141.49,107.84,182.73,.01,.03,.04,.05,.07,.08,70.71,75.56,281.08,102.26,281.08,102.26-82.53,9.89-168.84,10.39-247.64-8.18-109.57-25.81-204.62-88.53-254.78-214.15-11.81-29.62-23.51-60.86-34.93-93.18-10-28.24-19.79-57.32-29.28-86.85,0-.01-.01-.03-.01-.04-9.33-29.05-18.38-58.57-27.05-88.19-4.46-15.22-8.82-30.48-13.08-45.72Z" style="fill:url(#m);"/></g></g></g></g></svg>
