<?xml version="1.0" encoding="utf-8"?>
<!-- Generator: Adobe Illustrator 26.1.0, SVG Export Plug-In . SVG Version: 6.00 Build 0)  -->
<svg version="1.1" id="Camada_1" xmlns="http://www.w3.org/2000/svg" xmlns:xlink="http://www.w3.org/1999/xlink" x="0px" y="0px"
	 viewBox="0 0 1417.1 853" style="enable-background:new 0 0 1417.1 853;" xml:space="preserve">
<style type="text/css">
	.st0{fill:#43A0E7;}
	.st1{fill:url(#SVGID_1_);}
	.st2{fill:url(#SVGID_00000011735189820470424140000010839914163604945051_);}
	.st3{fill:url(#SVGID_00000144330510859010856830000007351782182448796588_);}
	.st4{fill:url(#SVGID_00000157291907878584332220000011747258732907746959_);}
	.st5{fill:url(#SVGID_00000158732158805258117020000003930490934370874537_);}
	.st6{fill:url(#SVGID_00000039115119638226194130000004121233085491793825_);}
	.st7{fill:url(#SVGID_00000005962266450061564500000002797515704758710197_);}
	.st8{fill:url(#SVGID_00000167363411331492656400000004320789786735645568_);}
	.st9{fill:url(#SVGID_00000125596918396225457200000012492971783227573176_);}
	.st10{fill:url(#SVGID_00000178190857886483360060000002918803456153887421_);}
	.st11{fill:url(#SVGID_00000005952072430311870230000009936517028578828974_);}
	.st12{fill:url(#SVGID_00000031900222855845851070000006888269486704817329_);}
	.st13{fill:url(#SVGID_00000079458254187505548370000012798825498330330245_);}
	.st14{fill:url(#SVGID_00000154415976508256671430000009289991627211491737_);}
	.st15{fill:url(#SVGID_00000083801104007762286780000015972991609779846560_);}
	.st16{fill:url(#SVGID_00000154387552847856507570000006392680014363244434_);}
	.st17{fill:url(#SVGID_00000074431005823779514170000014493947624137062786_);}
	.st18{fill:url(#SVGID_00000118395253498967832020000014473524531780259745_);}
	.st19{fill:url(#SVGID_00000170959482649900431020000017514069608626378939_);}
	.st20{fill:url(#SVGID_00000177475690249965790270000004743510422406769850_);}
	.st21{fill:url(#SVGID_00000061468913093452594120000008496614453620190616_);}
	.st22{fill:url(#SVGID_00000018213780059397780430000017289494207925570710_);}
	.st23{fill:url(#SVGID_00000087372621500089893800000001056267365549982896_);}
	.st24{fill:url(#SVGID_00000134230332189291960360000003786126892366730380_);}
	.st25{fill:url(#SVGID_00000015343461087374380940000006354910761256949378_);}
	.st26{fill:url(#SVGID_00000045588010418553298400000006048796504601368480_);}
	.st27{fill:url(#SVGID_00000118366256082212700380000002084820009302964640_);}
	.st28{fill:url(#SVGID_00000011022542163517301830000017348830472941232792_);}
	.st29{fill:url(#SVGID_00000078023418672840541860000013144944839024844934_);}
	.st30{fill:url(#SVGID_00000016770658747017764010000002077677730373980576_);}
	.st31{fill:url(#SVGID_00000183961856528584103300000001045485126154881674_);}
	.st32{fill:url(#SVGID_00000149370702208825089420000015037635354663982765_);}
	.st33{fill:url(#SVGID_00000012445516706787535410000013745857379769102524_);}
	.st34{fill:url(#SVGID_00000087410424573918206910000011117824325198260399_);}
	.st35{fill:url(#SVGID_00000023246555583732900890000013938719683702391941_);}
	.st36{fill:url(#SVGID_00000057130700986120622830000001817713503008950708_);}
</style>
<g id="a">
</g>
<g id="b">
	<g id="c">
		<g>
			<g>
				<path class="st0" d="M472.5,53.4C492,45.8,658.3-22.5,786,7.6c55.7,13.1,104.1,45,129.6,108.9c6,15.1,12,30.9,17.8,47.4
					c5.1,14.4,10.1,29.1,14.9,44.2c0,0,0,0,0,0c4.8,14.8,9.3,29.8,13.8,44.9c2.3,7.7,4.5,15.5,6.7,23.3l0,0
					c-8.5,23.7-25,39.7-43.8,39.7c-8.7,0-16.8-3.4-23.9-9.3c-5.1-24.9-10.8-50.8-17.4-76.2c-1.7-6.4-3.4-12.9-5.2-19.2
					c-2.2-7.9-4.5-15.8-6.9-23.5c-4.2-13.5-8.7-26.6-13.5-39.2C838,96.5,812.5,54.6,779.1,38.6c-20.1-9.6-43-9.8-69.3,3
					c-62.6,30.4-111.1,45.4-147.7,51C469.5,106.9,452.4,61.1,472.5,53.4L472.5,53.4z"/>
				
					<linearGradient id="SVGID_1_" gradientUnits="userSpaceOnUse" x1="968.6401" y1="693.284" x2="464.9957" y2="693.284" gradientTransform="matrix(1 0 0 -1 0 851.2756)">
					<stop  offset="0" style="stop-color:#44D4E7"/>
					<stop  offset="0.28" style="stop-color:#43D1E5"/>
					<stop  offset="0.48" style="stop-color:#41C7E0"/>
					<stop  offset="0.65" style="stop-color:#3FB8D6"/>
					<stop  offset="0.81" style="stop-color:#3BA2CA"/>
					<stop  offset="0.96" style="stop-color:#3686B9"/>
					<stop  offset="1" style="stop-color:#357CB4"/>
				</linearGradient>
				<path class="st1" d="M968.6,276.2L968.6,276.2c-8.5,23.7-25,39.7-43.8,39.7c-8.7,0-16.8-3.4-23.9-9.3
					c-5.1-24.9-10.8-50.8-17.4-76.2c-1.7-6.4-3.4-12.9-5.2-19.2c-2.2-7.9-4.5-15.8-6.9-23.5c-4.2-13.5-8.7-26.6-13.5-39.2
					c-14.9-38.8-32.8-72-54.8-92.9c0,0,0,0,0,0c-7.5-7.1-15.4-12.8-23.8-16.8c-20.1-9.6-43-9.8-69.3,3
					c-62.6,30.4-111.1,45.4-147.7,51c-92.6,14.2-109.7-31.5-89.6-39.3c13.4-5.2,95.8-38.9,187.5-49.9c42-5,85.9-5.3,126,4.2
					c55.7,13.1,104.1,45,129.6,108.9c6,15.1,12,31,17.8,47.4c5.1,14.4,10.1,29.1,14.9,44.2c0,0,0,0,0,0c4.8,14.8,9.3,29.8,13.8,44.9
					C964.3,260.7,966.5,268.5,968.6,276.2L968.6,276.2z"/>
				
					<linearGradient id="SVGID_00000065065754291036258900000008528229247895137703_" gradientUnits="userSpaceOnUse" x1="491.1818" y1="744.2936" x2="779.15" y2="744.2936" gradientTransform="matrix(1 0 0 -1 0 851.2756)">
					<stop  offset="0" style="stop-color:#44D4E7"/>
					<stop  offset="0.28" style="stop-color:#43D1E5"/>
					<stop  offset="0.48" style="stop-color:#41C7E0"/>
					<stop  offset="0.65" style="stop-color:#3FB8D6"/>
					<stop  offset="0.81" style="stop-color:#3BA2CA"/>
					<stop  offset="0.96" style="stop-color:#3686B9"/>
					<stop  offset="1" style="stop-color:#357CB4"/>
				</linearGradient>
				<path style="fill:url(#SVGID_00000065065754291036258900000008528229247895137703_);" d="M495.8,146.1
					c6.4-4.9,31-24.4,66.3-47.1c32.7-5,74.8-17.5,128.1-41.8c6.4-2.9,12.9-6,19.6-9.2c9.9-4.8,19.3-7.8,28.3-9.1
					c14.8-2.2,28.5,0.1,41,6.1c-16.1-1.1-32.2,3.3-48.2,14.6c-3.6,2.5-7.1,5.4-10.7,8.6c-41.5,37.7-77,63.2-106.8,79.9
					C512.8,204.5,477.5,160.2,495.8,146.1L495.8,146.1z"/>
				
					<linearGradient id="SVGID_00000142882374647205911820000012056392150282707895_" gradientUnits="userSpaceOnUse" x1="589.0822" y1="704.3019" x2="730.9401" y2="704.3019" gradientTransform="matrix(1 0 0 -1 0 851.2756)">
					<stop  offset="0" style="stop-color:#44D4E7"/>
					<stop  offset="0.28" style="stop-color:#43D1E5"/>
					<stop  offset="0.48" style="stop-color:#41C7E0"/>
					<stop  offset="0.65" style="stop-color:#3FB8D6"/>
					<stop  offset="0.81" style="stop-color:#3BA2CA"/>
					<stop  offset="0.96" style="stop-color:#3686B9"/>
					<stop  offset="1" style="stop-color:#357CB4"/>
				</linearGradient>
				<path style="fill:url(#SVGID_00000142882374647205911820000012056392150282707895_);" d="M590,209.6
					c2.4-6.1,10.4-26.7,23.5-54.4C637,142,664,123.5,694.6,97.8c8.3-6.9,16.8-14.4,25.7-22.4c1.6-1.5,3.3-2.9,4.9-4.2
					c1.9-1.6,3.8-3,5.8-4.4c-1.5,4.2-3,8.2-4.6,12.2c-19.1,49.6-38.8,83.7-57.1,106.6C621.1,245.8,582.5,228.2,590,209.6L590,209.6z
					"/>
				
					<linearGradient id="SVGID_00000075853566932216283800000003758810730778843056_" gradientUnits="userSpaceOnUse" x1="669.33" y1="681.6768" x2="730.735" y2="681.6768" gradientTransform="matrix(1 0 0 -1 0 851.2756)">
					<stop  offset="0" style="stop-color:#44D4E7"/>
					<stop  offset="0.28" style="stop-color:#43D1E5"/>
					<stop  offset="0.48" style="stop-color:#41C7E0"/>
					<stop  offset="0.65" style="stop-color:#3FB8D6"/>
					<stop  offset="0.81" style="stop-color:#3BA2CA"/>
					<stop  offset="0.96" style="stop-color:#3686B9"/>
					<stop  offset="1" style="stop-color:#357CB4"/>
				</linearGradient>
				<path style="fill:url(#SVGID_00000075853566932216283800000003758810730778843056_);" d="M669.3,199.4
					c18.3-22.9,38-57,57.1-106.6c21.8,152.2-45.3,169.3-50.2,144.2C675.3,232.1,672.4,218.7,669.3,199.4L669.3,199.4z"/>
				
					<linearGradient id="SVGID_00000048460823850555213490000009080538080763386786_" gradientUnits="userSpaceOnUse" x1="671.06" y1="693.289" x2="979.6701" y2="693.289" gradientTransform="matrix(1 0 0 -1 0 851.2756)">
					<stop  offset="0" style="stop-color:#44D4E7"/>
					<stop  offset="6.000000e-02" style="stop-color:#41C4DE"/>
					<stop  offset="0.19" style="stop-color:#3CAACE"/>
					<stop  offset="0.34" style="stop-color:#3995C2"/>
					<stop  offset="0.5" style="stop-color:#3687BA"/>
					<stop  offset="0.69" style="stop-color:#357EB5"/>
					<stop  offset="1" style="stop-color:#357CB4"/>
				</linearGradient>
				<path style="fill:url(#SVGID_00000048460823850555213490000009080538080763386786_);" d="M968.6,276.2L968.6,276.2
					c-8.5,23.7-25,39.7-43.8,39.7c-8.7,0-16.8-3.4-23.9-9.3c-5.1-24.9-10.8-50.8-17.4-76.2c-1.7-6.4-3.4-12.9-5.2-19.2
					c-2.2-7.9-4.5-15.8-6.9-23.5c-4.2-13.5-8.7-26.6-13.5-39.2c-14.9-38.8-32.8-72-54.8-92.9c0,0,0,0,0,0c-36-38.4-143-52-143-52
					c42-5,85.9-5.3,126,4.2c55.7,13.1,104.1,45,129.6,108.9c6,15.1,12,30.9,17.8,47.4c5.1,14.4,10.1,29.1,14.9,44.2c0,0,0,0,0,0
					c4.8,14.8,9.3,29.8,13.8,44.9C964.3,260.7,966.5,268.5,968.6,276.2L968.6,276.2z"/>
				<g>
					
						<linearGradient id="SVGID_00000017512768373482191750000017240373132757144753_" gradientUnits="userSpaceOnUse" x1="448.45" y1="506.2564" x2="952.1044" y2="506.2564" gradientTransform="matrix(1 0 0 -1 0 851.2756)">
						<stop  offset="0" style="stop-color:#FAB1A0"/>
						<stop  offset="0.24" style="stop-color:#FAAAA0"/>
						<stop  offset="0.58" style="stop-color:#FB98A3"/>
						<stop  offset="0.97" style="stop-color:#FC7BA7"/>
						<stop  offset="1" style="stop-color:#FD79A8"/>
					</linearGradient>
					<path style="fill:url(#SVGID_00000017512768373482191750000017240373132757144753_);" d="M944.6,449.6
						c-19.5,7.5-185.9,75.8-313.5,45.8c-55.7-13.1-104.1-45-129.6-108.9c-6-15.1-12-31-17.8-47.4c-5.1-14.4-10.1-29.1-14.9-44.2
						c0,0,0,0,0,0c-4.8-14.8-9.4-29.8-13.8-44.9c-2.3-7.7-4.5-15.5-6.6-23.3l0,0c8.5-23.7,25-39.7,43.9-39.7
						c8.7,0,16.8,3.4,23.9,9.3c5.1,24.9,10.8,50.8,17.4,76.2c1.7,6.4,3.4,12.9,5.2,19.2c2.2,7.9,4.5,15.8,6.9,23.5
						c4.2,13.5,8.7,26.6,13.5,39.2c19.9,51.9,45.4,93.9,78.7,109.8c20.1,9.6,43,9.8,69.3-3c62.6-30.4,111.1-45.4,147.7-51
						C947.6,396.1,964.7,441.9,944.6,449.6L944.6,449.6z"/>
					
						<linearGradient id="SVGID_00000129900598183764316390000001208958142569411210_" gradientUnits="userSpaceOnUse" x1="637.93" y1="455.2575" x2="925.8982" y2="455.2575" gradientTransform="matrix(1 0 0 -1 0 851.2756)">
						<stop  offset="0" style="stop-color:#FAB1A0"/>
						<stop  offset="0.24" style="stop-color:#FAAAA0"/>
						<stop  offset="0.58" style="stop-color:#FB98A3"/>
						<stop  offset="0.97" style="stop-color:#FC7BA7"/>
						<stop  offset="1" style="stop-color:#FD79A8"/>
					</linearGradient>
					<path style="fill:url(#SVGID_00000129900598183764316390000001208958142569411210_);" d="M921.2,356.9
						c-6.3,4.9-31,24.4-66.3,47.1c-32.7,5-74.8,17.5-128.1,41.8c-6.4,2.9-12.9,6-19.6,9.2c-9.9,4.8-19.3,7.8-28.3,9.1
						c-14.8,2.2-28.5-0.1-41-6.1c16.1,1.1,32.2-3.3,48.2-14.6c3.6-2.5,7.1-5.4,10.7-8.6c41.5-37.7,77-63.2,106.8-79.9
						C904.3,298.5,939.6,342.8,921.2,356.9L921.2,356.9z"/>
					
						<linearGradient id="SVGID_00000124138411180481362720000009131578755163585708_" gradientUnits="userSpaceOnUse" x1="686.14" y1="495.2493" x2="827.9979" y2="495.2493" gradientTransform="matrix(1 0 0 -1 0 851.2756)">
						<stop  offset="0" style="stop-color:#FAB1A0"/>
						<stop  offset="0.24" style="stop-color:#FAAAA0"/>
						<stop  offset="0.58" style="stop-color:#FB98A3"/>
						<stop  offset="0.97" style="stop-color:#FC7BA7"/>
						<stop  offset="1" style="stop-color:#FD79A8"/>
					</linearGradient>
					<path style="fill:url(#SVGID_00000124138411180481362720000009131578755163585708_);" d="M827,293.4
						c-2.4,6-10.4,26.7-23.5,54.4c-23.4,13.1-50.4,31.7-81.1,57.4c-8.3,7-16.8,14.4-25.7,22.4c-1.6,1.5-3.3,2.9-4.9,4.2
						c-1.9,1.6-3.8,3-5.8,4.4c1.5-4.2,3-8.2,4.6-12.2c19.1-49.6,38.8-83.7,57.1-106.6C796,257.2,834.6,274.8,827,293.4L827,293.4z"
						/>
					
						<linearGradient id="SVGID_00000035513433550224386500000009541100164646723006_" gradientUnits="userSpaceOnUse" x1="686.345" y1="517.8744" x2="747.75" y2="517.8744" gradientTransform="matrix(1 0 0 -1 0 851.2756)">
						<stop  offset="0" style="stop-color:#FAB1A0"/>
						<stop  offset="0.24" style="stop-color:#FAAAA0"/>
						<stop  offset="0.58" style="stop-color:#FB98A3"/>
						<stop  offset="0.97" style="stop-color:#FC7BA7"/>
						<stop  offset="1" style="stop-color:#FD79A8"/>
					</linearGradient>
					<path style="fill:url(#SVGID_00000035513433550224386500000009541100164646723006_);" d="M747.8,303.6
						c-18.3,22.9-38,57-57.1,106.6C668.9,258.1,736,241,740.9,266.1C741.8,270.9,744.6,284.3,747.8,303.6L747.8,303.6z"/>
					
						<linearGradient id="SVGID_00000050635800602985692030000018412577526813701796_" gradientUnits="userSpaceOnUse" x1="448.47" y1="344.9385" x2="757.08" y2="344.9385">
						<stop  offset="0" style="stop-color:#F178A7"/>
						<stop  offset="0.3839" style="stop-color:#FAAAA0"/>
						<stop  offset="0.58" style="stop-color:#FB98A3"/>
						<stop  offset="0.7285" style="stop-color:#FC7BA7"/>
						<stop  offset="1" style="stop-color:#FD79A8"/>
					</linearGradient>
					<path style="fill:url(#SVGID_00000050635800602985692030000018412577526813701796_);" d="M448.5,226.7L448.5,226.7
						c8.5-23.7,25-39.7,43.9-39.7c8.7,0,16.8,3.4,23.9,9.3c5.1,24.9,10.8,50.8,17.4,76.2c1.7,6.4,3.4,12.9,5.2,19.2
						c2.2,7.9,4.5,15.8,6.9,23.5c4.2,13.5,8.7,26.6,13.5,39.2c14.9,38.8,32.8,72,54.8,92.9c0,0,0,0,0,0c36,38.4,143,52,143,52
						c-42,5-85.9,5.3-126-4.2c-55.7-13.1-104.1-45-129.6-108.9c-6-15.1-12-31-17.8-47.4c-5.1-14.4-10.1-29.1-14.9-44.2c0,0,0,0,0,0
						c-4.8-14.8-9.4-29.8-13.8-44.9C452.8,242.2,450.6,234.5,448.5,226.7L448.5,226.7z"/>
				</g>
			</g>
			<g>
				
					<linearGradient id="SVGID_00000051348238701093946160000013586904873357943479_" gradientUnits="userSpaceOnUse" x1="0" y1="108.3556" x2="193.12" y2="108.3556" gradientTransform="matrix(1 0 0 -1 0 851.2756)">
					<stop  offset="0" style="stop-color:#1B1C1C"/>
					<stop  offset="0.16" style="stop-color:#1E2020"/>
					<stop  offset="0.55" style="stop-color:#202323"/>
					<stop  offset="1" style="stop-color:#151616"/>
				</linearGradient>
				<path style="fill:url(#SVGID_00000051348238701093946160000013586904873357943479_);" d="M7.9,636.4L0,683h64.1l-3.2,19.5
					L36.6,849.5h57L121.1,683h64.1l7.9-46.6H7.9z"/>
				
					<linearGradient id="SVGID_00000116914703368294719500000015359865151303652246_" gradientUnits="userSpaceOnUse" x1="648.0476" y1="23.9568" x2="536.4395" y2="135.555" gradientTransform="matrix(1 0 0 -1 0 851.2756)">
					<stop  offset="0" style="stop-color:#1B1C1C"/>
					<stop  offset="8.000000e-02" style="stop-color:#1C1D1D"/>
					<stop  offset="0.48" style="stop-color:#202323"/>
					<stop  offset="0.51" style="stop-color:#1E2020"/>
					<stop  offset="0.69" style="stop-color:#171818"/>
					<stop  offset="1" style="stop-color:#151616"/>
				</linearGradient>
				<path style="fill:url(#SVGID_00000116914703368294719500000015359865151303652246_);" d="M605.2,687.6c-7.6,0-15,0.8-22,2.3
					c-38.3,8.2-65.9,38.2-72.9,80.1c-8.7,51.6,17.5,82.4,68.7,82.4c44.5,0,76.2-21.2,87.4-54.5h-52.4c-0.2,0.3-0.4,0.7-0.6,1
					c0,0,0,0,0,0c-3.7,6.1-9.9,10.2-17.3,12c-2.9,0.7-6,1.1-9.2,1.1c-0.2,0-0.5,0-0.7,0c-8.7-0.2-14.9-3.3-18.5-8.4
					c-3.2-4.5-4.3-10.5-3.4-17.4c0,0,0,0,0,0c0,0,0-0.1,0-0.1c0-0.1,0-0.2,0-0.4c0-0.1,0-0.2,0-0.3c0,0,0,0,0-0.1
					c0.5-3.6,2.6-17,4.6-27.3c0.6-2.9,1.3-5.5,2-7.7c0.8-3,2-5.8,3.5-8.3c0.1-0.2,0.2-0.3,0.2-0.3c5.5-8.6,15-13.8,25.4-13.8
					c14.2,0,22.9,9.6,20.8,23.3h-46.9l-7.3,31.6h102.1l2.1-13.3C679.2,718.8,653.4,687.6,605.2,687.6L605.2,687.6z"/>
				
					<linearGradient id="SVGID_00000014622855637502698110000016692943312517254310_" gradientUnits="userSpaceOnUse" x1="680.0499" y1="108.3555" x2="874.379" y2="108.3555" gradientTransform="matrix(1 0 0 -1 0 851.2756)">
					<stop  offset="0" style="stop-color:#1B1C1C"/>
					<stop  offset="0.47" style="stop-color:#202323"/>
					<stop  offset="0.51" style="stop-color:#1C1E1E"/>
					<stop  offset="0.64" style="stop-color:#161717"/>
					<stop  offset="1" style="stop-color:#151616"/>
				</linearGradient>
				<path style="fill:url(#SVGID_00000014622855637502698110000016692943312517254310_);" d="M824.5,736.3c25.4-5,45-23.3,49.1-46.6
					c3.4-20.4-4.2-36.2-22.4-45.1c-10.8-5.3-25.2-8.2-43.3-8.2h-92.4L680,849.5h100.3c46.2,0,79.1-25.4,84.9-60.3
					c3.9-23.5-6.8-40.8-24.8-47.7c-1-0.4-2-0.7-3-1c0,0,0,0-0.1,0c-0.5-0.1-1-0.3-1.5-0.4c-0.1,0-0.1,0-0.2,0
					c-0.4-0.1-0.8-0.2-1.1-0.3c-3.3-0.8-6.8-1.2-10.5-1.3l0-0.1L824.5,736.3L824.5,736.3z M751.8,765l0-0.2l1-6.4h0.1l8.8-51.7
					l0-0.2l1.3-8.2v0l2.7-16.4h24.6c14.2,0,23.7,7.1,21.6,20.4c-2.1,12.9-14.2,20.4-29.1,20.4h-22l-5.8,35.8h25.7
					c1.7,0,3.2,0.1,4.7,0.2c0.8,0.1,1.7,0.2,2.5,0.3c6.3,1,11.1,3.3,14.1,6.9c2,2.4,2,2.4,0,0c3.2,3.9,4.4,9.2,3.3,15.8
					c-2.1,14.2-13.3,21.6-32.5,21.6h-27.1L751.8,765L751.8,765z"/>
				
					<linearGradient id="SVGID_00000046321776055337472520000011758346661256237998_" gradientUnits="userSpaceOnUse" x1="1194.6462" y1="26.2689" x2="1084.2681" y2="136.6472" gradientTransform="matrix(1 0 0 -1 0 851.2756)">
					<stop  offset="0" style="stop-color:#1B1C1C"/>
					<stop  offset="8.000000e-02" style="stop-color:#1C1D1D"/>
					<stop  offset="0.48" style="stop-color:#202323"/>
					<stop  offset="0.51" style="stop-color:#1E2020"/>
					<stop  offset="0.69" style="stop-color:#171818"/>
					<stop  offset="1" style="stop-color:#151616"/>
				</linearGradient>
				<path style="fill:url(#SVGID_00000046321776055337472520000011758346661256237998_);" d="M1219,756.2
					c6.7-41.6-18.3-68.7-65.3-68.7c-52,0-88.7,33.3-96.6,82.4c-8.3,49.1,17.1,82.4,69.1,82.4c47.4,0,80.8-27,88.7-69.5h-53.3
					c-4.2,16.7-14.6,25.8-27.5,25.8c-15,0-22.5-12.9-18.3-39.1c4.2-26.2,16.2-39.1,31.6-39.1c12.5,0,19.6,9.2,18.3,25.8H1219
					L1219,756.2z"/>
				
					<linearGradient id="SVGID_00000158005934285931604410000015573267374056303781_" gradientUnits="userSpaceOnUse" x1="4556.1499" y1="2.2756" x2="4556.1499" y2="169.7455" gradientTransform="matrix(-1 0 0 -1 4633.1499 851.2756)">
					<stop  offset="0" style="stop-color:#1B1C1C"/>
					<stop  offset="0.47" style="stop-color:#202323"/>
					<stop  offset="0.49" style="stop-color:#1E2121"/>
					<stop  offset="0.69" style="stop-color:#171818"/>
					<stop  offset="1" style="stop-color:#151616"/>
				</linearGradient>
				<path style="fill:url(#SVGID_00000158005934285931604410000015573267374056303781_);" d="M64,683L37,849h57l23-141
					c-3.1-16.5-14.2-26.5-28.2-26.5C73.7,681.5,64,683,64,683z"/>
				<g>
					
						<linearGradient id="SVGID_00000063612934457961565240000000550415943252000669_" gradientUnits="userSpaceOnUse" x1="159.8019" y1="21.3225" x2="328.9922" y2="119.0027" gradientTransform="matrix(1 0 0 -1 0 851.2756)">
						<stop  offset="0" style="stop-color:#1B1C1C"/>
						<stop  offset="0.12" style="stop-color:#1E2121"/>
						<stop  offset="0.52" style="stop-color:#202323"/>
						<stop  offset="0.81" style="stop-color:#1E2020"/>
						<stop  offset="0.97" style="stop-color:#171818"/>
						<stop  offset="1" style="stop-color:#151616"/>
					</linearGradient>
					<path style="fill:url(#SVGID_00000063612934457961565240000000550415943252000669_);" d="M321,719.5
						c-6.9-19-29.2-31.9-63.3-31.9c-47.9,0-75.8,25-82.4,54.1h52.9c2.9-10,11.2-14.5,22.1-14.6c22.9-0.1,16.7,25.2,16.1,30.6
						c-1,8.8-11.9,69.7-12.2,71c0,0,0,0,0,0l-3.5,20.8h53.7L322.6,740C323.8,732.7,323.2,725.7,321,719.5L321,719.5z M254.8,799.4
						c-1.7,5.7-4.2,18.6-19.7,30.1c-4.5,3.4-10.1,6.6-17.1,9.5c-22.2,9.3-55,7-60.2-28c-2.3,27.8,16.3,41,44.8,41
						c12.6,0,23.8-2.6,33.5-8.6c6.2-3.9,11.8-9.2,16.7-16.1C256.5,813.8,255.9,804.6,254.8,799.4L254.8,799.4z M230.3,770
						c-13.6,6.1-25.6,12.6-24.3,25c1.4,12.6,9.3,16.7,10,17c-2.4-2.3-3.5-5.7-2.9-10c1.1-7.6,7.1-13.4,18.5-16
						c1.1-0.3,2.3-0.5,3.6-0.7c4-0.7,7.8-1.4,11.3-2.2c3.8-0.8,7.1-3,9.5-6.1l0-0.1c7.7-10,8.9-27.8,9-36.2
						C264.5,756.1,246.3,762.8,230.3,770z"/>
					
						<linearGradient id="SVGID_00000172407973700917202810000007574608911554193559_" gradientUnits="userSpaceOnUse" x1="211.45" y1="7.59" x2="211.45" y2="110.5255" gradientTransform="matrix(1 0 0 -1 0 851.2756)">
						<stop  offset="0" style="stop-color:#1B1C1C"/>
						<stop  offset="2.000000e-02" style="stop-color:#1C1D1D"/>
						<stop  offset="0.13" style="stop-color:#202323"/>
						<stop  offset="0.4" style="stop-color:#1B1D1D"/>
						<stop  offset="1" style="stop-color:#151616"/>
					</linearGradient>
					<path style="fill:url(#SVGID_00000172407973700917202810000007574608911554193559_);" d="M206,795c1.4,12.6,9.3,16.7,10,17
						c0,0,0,0,0,0c2.5,2.5,6.6,3.8,11.7,3.8c10.8,0,22.2-5.9,27.1-16.4c-2.2,7.4-5.8,26.6-36.8,39.6c-22.2,9.3-55,7-60.2-28
						c0.1-1.8,0.4-3.7,0.7-5.7c5.8-35,33.7-48.3,67-50.8c26.7-2,37.6-4.9,39.5-13.8C264,769,203,768,206,795L206,795z"/>
					
						<linearGradient id="SVGID_00000134935418055880931160000017615291196797615526_" gradientUnits="userSpaceOnUse" x1="157.66" y1="25.5956" x2="255.6107" y2="25.5956" gradientTransform="matrix(1 0 0 -1 0 851.2756)">
						<stop  offset="0" style="stop-color:#1B1C1C"/>
						<stop  offset="0.39" style="stop-color:#1C1D1D"/>
						<stop  offset="0.51" style="stop-color:#202323"/>
						<stop  offset="0.72" style="stop-color:#191A1A"/>
						<stop  offset="1" style="stop-color:#151616"/>
					</linearGradient>
					<path style="fill:url(#SVGID_00000134935418055880931160000017615291196797615526_);" d="M252.9,827.3
						C240.4,845,223.4,852,202.7,852c-28.5,0-47.1-13.2-44.8-41c5.1,35,37.9,37.3,60.1,28c31-13,34.5-32.2,36.8-39.6
						C255.9,804.6,256.5,813.8,252.9,827.3z"/>
					
						<linearGradient id="SVGID_00000062165843061389638990000011522756790008763542_" gradientUnits="userSpaceOnUse" x1="230.3199" y1="13.7756" x2="261.595" y2="45.0506" gradientTransform="matrix(1 0 0 -1 0 851.2756)">
						<stop  offset="0" style="stop-color:#1B1C1C"/>
						<stop  offset="0.47" style="stop-color:#202323"/>
						<stop  offset="0.49" style="stop-color:#1E2121"/>
						<stop  offset="0.69" style="stop-color:#171818"/>
						<stop  offset="1" style="stop-color:#151616"/>
					</linearGradient>
					<path style="fill:url(#SVGID_00000062165843061389638990000011522756790008763542_);" d="M252.9,827.3
						c-4.9,6.9-10.5,12.2-16.7,16.1l-1.1-13.9c15.5-11.5,18-24.3,19.7-30.1C255.9,804.6,256.5,813.8,252.9,827.3L252.9,827.3z"/>
					
						<linearGradient id="SVGID_00000120545811404906689930000003316905467854541194_" gradientUnits="userSpaceOnUse" x1="207.9792" y1="46.3864" x2="268.5796" y2="106.9967" gradientTransform="matrix(1 0 0 -1 0 851.2756)">
						<stop  offset="0" style="stop-color:#1B1C1C"/>
						<stop  offset="0.47" style="stop-color:#202323"/>
						<stop  offset="0.49" style="stop-color:#1E2121"/>
						<stop  offset="0.69" style="stop-color:#171818"/>
						<stop  offset="1" style="stop-color:#151616"/>
					</linearGradient>
					<path style="fill:url(#SVGID_00000120545811404906689930000003316905467854541194_);" d="M265,742.1c0,0.1,0,0.3-0.1,0.4
						c0,0.3-0.1,0.6-0.1,0.9c0,0.2-0.1,0.3-0.1,0.5c-0.1,0.3-0.1,0.5-0.2,0.8c0,0.2-0.1,0.3-0.1,0.5c-0.1,0.2-0.1,0.5-0.2,0.7
						c-0.1,0.2-0.1,0.3-0.2,0.5c-0.1,0.2-0.2,0.5-0.3,0.7c-0.1,0.2-0.1,0.3-0.2,0.5c-0.1,0.2-0.2,0.4-0.3,0.6
						c-0.1,0.2-0.2,0.3-0.3,0.5c-0.1,0.2-0.2,0.4-0.3,0.6c-0.1,0.2-0.2,0.3-0.3,0.5c-0.1,0.2-0.2,0.4-0.4,0.6
						c-0.1,0.2-0.2,0.3-0.3,0.5c-0.1,0.2-0.3,0.4-0.4,0.6c-0.1,0.2-0.2,0.3-0.4,0.5c-0.1,0.2-0.3,0.4-0.5,0.5
						c-0.1,0.2-0.2,0.3-0.4,0.4c-0.2,0.2-0.3,0.4-0.5,0.5c-0.1,0.1-0.3,0.3-0.4,0.4c-0.2,0.2-0.4,0.4-0.6,0.6
						c-0.2,0.2-0.5,0.5-0.8,0.7c-0.2,0.2-0.4,0.3-0.6,0.5c-0.2,0.2-0.4,0.3-0.5,0.5c-0.2,0.1-0.3,0.3-0.5,0.4
						c-0.2,0.2-0.4,0.3-0.6,0.5c-0.2,0.1-0.4,0.3-0.5,0.4c-0.2,0.2-0.4,0.3-0.6,0.4c-0.2,0.1-0.4,0.3-0.6,0.4
						c-0.2,0.2-0.4,0.3-0.6,0.4c-0.2,0.1-0.4,0.2-0.6,0.4c-0.2,0.1-0.4,0.3-0.7,0.4c-0.2,0.1-0.4,0.2-0.6,0.4
						c-0.2,0.1-0.4,0.3-0.7,0.4c-0.2,0.1-0.4,0.2-0.6,0.4c-0.2,0.1-0.5,0.3-0.7,0.4c-0.2,0.1-0.4,0.2-0.6,0.4
						c-0.2,0.1-0.4,0.2-0.7,0.4c-0.2,0.1-0.5,0.2-0.7,0.4c-0.2,0.1-0.4,0.2-0.6,0.3c-0.3,0.1-0.6,0.3-0.8,0.4
						c-0.2,0.1-0.4,0.2-0.5,0.3c-0.4,0.2-0.8,0.4-1.2,0.6c-0.1,0-0.1,0.1-0.2,0.1c-4.4,2.2-9.1,4.1-13.6,6.2l0,0
						c-13.6,6.1-25.6,12.6-24.3,25c1.4,12.6,9.3,16.7,10,17c-2.4-2.3-3.5-5.7-2.9-10c1.2-7.7,7.3-13.6,19.1-16.1
						c0.3-0.1,0.5-0.1,0.8-0.2c0.7-0.1,1.4-0.3,2.2-0.4c4-0.7,7.8-1.4,11.3-2.2c3.8-0.8,7.1-3,9.5-6.1l0-0.1c7.7-10,8.9-27.8,9-36.2
						C265,741.2,265,741.6,265,742.1L265,742.1z"/>
					
						<linearGradient id="SVGID_00000144328329162759258010000006717796599079067316_" gradientUnits="userSpaceOnUse" x1="275.6394" y1="1.8055" x2="275.6394" y2="150.4441" gradientTransform="matrix(1 0 0 -1 0 851.2756)">
						<stop  offset="0" style="stop-color:#1B1C1C"/>
						<stop  offset="0.38" style="stop-color:#1E2020"/>
						<stop  offset="0.47" style="stop-color:#202323"/>
						<stop  offset="0.51" style="stop-color:#1C1F1F"/>
						<stop  offset="0.66" style="stop-color:#161818"/>
						<stop  offset="1" style="stop-color:#151616"/>
					</linearGradient>
					<path style="fill:url(#SVGID_00000144328329162759258010000006717796599079067316_);" d="M322.6,740l-18.3,109.5h-53.7
						l3.5-20.8c0,0,0,0,0,0c0.4-1.3,11.2-62.2,12.2-71c0.6-5.4,6.8-30.7-16.1-30.6c-10.8,0-19.1,4.6-22.1,14.6
						c0.8-3.6,8.9-35,40.9-39.7c26.2-3.9,44.3,1.8,52,17.5C323.2,725.8,323.8,732.7,322.6,740L322.6,740z"/>
				</g>
				<g>
					
						<linearGradient id="SVGID_00000008847114452615603500000003721276797650118044_" gradientUnits="userSpaceOnUse" x1="877.8019" y1="20.3225" x2="1046.9922" y2="118.0027" gradientTransform="matrix(1 0 0 -1 0 851.2756)">
						<stop  offset="0" style="stop-color:#1B1C1C"/>
						<stop  offset="0.12" style="stop-color:#1E2121"/>
						<stop  offset="0.52" style="stop-color:#202323"/>
						<stop  offset="0.81" style="stop-color:#1E2020"/>
						<stop  offset="0.97" style="stop-color:#171818"/>
						<stop  offset="1" style="stop-color:#151616"/>
					</linearGradient>
					<path style="fill:url(#SVGID_00000008847114452615603500000003721276797650118044_);" d="M1038.9,720.5
						c-6.9-19-29.2-31.9-63.3-31.9c-47.9,0-75.8,25-82.4,54.1h52.9c2.9-10,11.2-14.5,22.1-14.6c22.9-0.1,16.7,25.2,16.1,30.6
						c-1,8.8-11.8,69.7-12.2,71c0,0,0,0,0,0l-3.5,20.8h53.7l18.3-109.5C1041.8,733.7,1041.2,726.7,1038.9,720.5L1038.9,720.5z
						 M972.8,800.4c-1.7,5.7-4.2,18.6-19.7,30.1c-4.5,3.4-10.1,6.6-17,9.5c-22.2,9.3-55,7-60.2-28c-2.3,27.8,16.3,41,44.8,41
						c12.6,0,23.8-2.6,33.5-8.6c6.2-3.9,11.8-9.2,16.7-16.1C974.5,814.8,973.9,805.6,972.8,800.4L972.8,800.4z M948.3,771
						c-13.6,6.1-25.6,12.6-24.3,25c1.4,12.6,9.3,16.7,10,17c-2.4-2.3-3.5-5.7-2.9-10c1.1-7.6,7.1-13.4,18.5-16
						c1.1-0.3,2.3-0.5,3.6-0.7c4-0.7,7.8-1.4,11.3-2.2c3.8-0.8,7.1-3,9.5-6.1l0-0.1c7.7-10,8.9-27.8,9-36.2
						C982.5,757.1,964.3,763.8,948.3,771z"/>
					
						<linearGradient id="SVGID_00000124857380715777970860000006289376502926361996_" gradientUnits="userSpaceOnUse" x1="929.45" y1="6.59" x2="929.45" y2="109.5255" gradientTransform="matrix(1 0 0 -1 0 851.2756)">
						<stop  offset="0" style="stop-color:#1B1C1C"/>
						<stop  offset="2.000000e-02" style="stop-color:#1C1D1D"/>
						<stop  offset="0.13" style="stop-color:#202323"/>
						<stop  offset="0.4" style="stop-color:#1B1D1D"/>
						<stop  offset="1" style="stop-color:#151616"/>
					</linearGradient>
					<path style="fill:url(#SVGID_00000124857380715777970860000006289376502926361996_);" d="M924,796c1.4,12.6,9.3,16.7,10,17
						c0,0,0,0,0,0c2.5,2.5,6.6,3.8,11.7,3.8c10.8,0,22.2-5.9,27.1-16.4c-2.2,7.4-5.8,26.6-36.8,39.6c-22.2,9.3-55,7-60.2-28
						c0.1-1.8,0.4-3.7,0.7-5.7c5.8-35,33.7-48.3,67-50.8c26.7-2,37.6-4.9,39.5-13.8C982,770,921,769,924,796L924,796z"/>
					
						<linearGradient id="SVGID_00000058566334522749194750000006740411638701656729_" gradientUnits="userSpaceOnUse" x1="875.66" y1="24.5956" x2="973.6107" y2="24.5956" gradientTransform="matrix(1 0 0 -1 0 851.2756)">
						<stop  offset="0" style="stop-color:#1B1C1C"/>
						<stop  offset="0.39" style="stop-color:#1C1D1D"/>
						<stop  offset="0.51" style="stop-color:#202323"/>
						<stop  offset="0.72" style="stop-color:#191A1A"/>
						<stop  offset="1" style="stop-color:#151616"/>
					</linearGradient>
					<path style="fill:url(#SVGID_00000058566334522749194750000006740411638701656729_);" d="M970.9,828.3
						C958.4,846,941.4,853,920.7,853c-28.5,0-47.1-13.2-44.8-41c5.2,35,37.9,37.3,60.2,28c31-13,34.5-32.2,36.8-39.6
						C973.9,805.6,974.5,814.8,970.9,828.3z"/>
					
						<linearGradient id="SVGID_00000167378193459621858760000017236518356435303584_" gradientUnits="userSpaceOnUse" x1="948.3199" y1="12.7756" x2="979.595" y2="44.0506" gradientTransform="matrix(1 0 0 -1 0 851.2756)">
						<stop  offset="0" style="stop-color:#1B1C1C"/>
						<stop  offset="0.47" style="stop-color:#202323"/>
						<stop  offset="0.49" style="stop-color:#1E2121"/>
						<stop  offset="0.69" style="stop-color:#171818"/>
						<stop  offset="1" style="stop-color:#151616"/>
					</linearGradient>
					<path style="fill:url(#SVGID_00000167378193459621858760000017236518356435303584_);" d="M970.9,828.3
						c-4.9,6.9-10.5,12.2-16.7,16.1l-1.1-13.9c15.5-11.5,18-24.3,19.7-30.1C973.9,805.6,974.5,814.8,970.9,828.3z"/>
					
						<linearGradient id="SVGID_00000126307509773963475970000007576282847532451717_" gradientUnits="userSpaceOnUse" x1="925.9791" y1="45.3864" x2="986.5794" y2="105.9967" gradientTransform="matrix(1 0 0 -1 0 851.2756)">
						<stop  offset="0" style="stop-color:#1B1C1C"/>
						<stop  offset="0.47" style="stop-color:#202323"/>
						<stop  offset="0.49" style="stop-color:#1E2121"/>
						<stop  offset="0.69" style="stop-color:#171818"/>
						<stop  offset="1" style="stop-color:#151616"/>
					</linearGradient>
					<path style="fill:url(#SVGID_00000126307509773963475970000007576282847532451717_);" d="M983,743.1c0,0.1,0,0.3-0.1,0.4
						c0,0.3-0.1,0.6-0.1,0.9c0,0.2-0.1,0.3-0.1,0.5c-0.1,0.3-0.1,0.5-0.2,0.8c0,0.2-0.1,0.3-0.2,0.5c-0.1,0.2-0.1,0.5-0.2,0.7
						c-0.1,0.2-0.1,0.3-0.2,0.5c-0.1,0.2-0.2,0.5-0.3,0.7c-0.1,0.2-0.2,0.3-0.2,0.5c-0.1,0.2-0.2,0.4-0.3,0.6
						c-0.1,0.2-0.2,0.3-0.3,0.5c-0.1,0.2-0.2,0.4-0.3,0.6c-0.1,0.2-0.2,0.3-0.3,0.5c-0.1,0.2-0.2,0.4-0.4,0.6
						c-0.1,0.2-0.2,0.3-0.3,0.5c-0.1,0.2-0.3,0.4-0.4,0.6c-0.1,0.2-0.2,0.3-0.4,0.5c-0.2,0.2-0.3,0.4-0.5,0.5
						c-0.1,0.2-0.2,0.3-0.4,0.4c-0.2,0.2-0.3,0.4-0.5,0.5c-0.1,0.1-0.3,0.3-0.4,0.4c-0.2,0.2-0.4,0.4-0.6,0.6
						c-0.2,0.2-0.5,0.5-0.8,0.7c-0.2,0.2-0.4,0.3-0.6,0.5c-0.2,0.2-0.4,0.3-0.5,0.5c-0.2,0.1-0.3,0.3-0.5,0.4
						c-0.2,0.2-0.4,0.3-0.6,0.5c-0.2,0.1-0.3,0.3-0.5,0.4c-0.2,0.2-0.4,0.3-0.6,0.4c-0.2,0.1-0.4,0.3-0.5,0.4
						c-0.2,0.2-0.4,0.3-0.6,0.4c-0.2,0.1-0.4,0.2-0.6,0.4c-0.2,0.1-0.4,0.3-0.7,0.4c-0.2,0.1-0.4,0.2-0.6,0.4
						c-0.2,0.1-0.5,0.3-0.7,0.4c-0.2,0.1-0.4,0.2-0.6,0.4c-0.2,0.1-0.5,0.3-0.7,0.4c-0.2,0.1-0.4,0.2-0.6,0.4
						c-0.2,0.1-0.5,0.2-0.7,0.4c-0.2,0.1-0.5,0.2-0.7,0.4c-0.2,0.1-0.4,0.2-0.6,0.3c-0.3,0.1-0.5,0.3-0.8,0.4
						c-0.2,0.1-0.4,0.2-0.5,0.3c-0.4,0.2-0.8,0.4-1.2,0.6c-0.1,0-0.2,0.1-0.2,0.1c-4.4,2.2-9.1,4.1-13.6,6.2l0,0
						c-13.6,6.1-25.6,12.6-24.3,25c1.4,12.6,9.3,16.7,10,17c-2.4-2.3-3.5-5.7-2.9-10c1.2-7.7,7.3-13.6,19.1-16.1
						c0.3-0.1,0.5-0.1,0.8-0.2c0.7-0.1,1.4-0.3,2.2-0.4c4-0.7,7.8-1.4,11.3-2.2c3.8-0.8,7.1-3,9.5-6.1l0-0.1c7.7-10,8.9-27.8,9-36.2
						C983,742.2,983,742.6,983,743.1L983,743.1z"/>
					
						<linearGradient id="SVGID_00000160889263848446222620000006773660617602927021_" gradientUnits="userSpaceOnUse" x1="993.6395" y1="0.8055" x2="993.6395" y2="149.4441" gradientTransform="matrix(1 0 0 -1 0 851.2756)">
						<stop  offset="0" style="stop-color:#1B1C1C"/>
						<stop  offset="0.38" style="stop-color:#1E2020"/>
						<stop  offset="0.47" style="stop-color:#202323"/>
						<stop  offset="0.51" style="stop-color:#1C1F1F"/>
						<stop  offset="0.66" style="stop-color:#161818"/>
						<stop  offset="1" style="stop-color:#151616"/>
					</linearGradient>
					<path style="fill:url(#SVGID_00000160889263848446222620000006773660617602927021_);" d="M1040.6,741l-18.3,109.5h-53.7
						l3.5-20.8c0,0,0,0,0,0c0.3-1.3,11.2-62.2,12.2-71c0.6-5.4,6.8-30.7-16.1-30.6c-10.8,0-19.2,4.6-22.1,14.6
						c0.8-3.6,8.9-35,40.9-39.7c26.2-3.9,44.3,1.8,52,17.5C1041.2,726.8,1041.8,733.7,1040.6,741L1040.6,741z"/>
				</g>
				
					<linearGradient id="SVGID_00000091696073082637314300000005015138820380265915_" gradientUnits="userSpaceOnUse" x1="393.0582" y1="38.3338" x2="398.1518" y2="43.4373" gradientTransform="matrix(1 0 0 -1 0 851.2756)">
					<stop  offset="0" style="stop-color:#1B1C1C"/>
					<stop  offset="0.52" style="stop-color:#202323"/>
					<stop  offset="0.53" style="stop-color:#1F2222"/>
					<stop  offset="0.73" style="stop-color:#171818"/>
					<stop  offset="1" style="stop-color:#151616"/>
				</linearGradient>
				<polygon style="fill:url(#SVGID_00000091696073082637314300000005015138820380265915_);" points="396.3,806 394.9,814.8 
					394.9,814.8 				"/>
				<g>
					
						<linearGradient id="SVGID_00000082369468735651643890000014400504493287105983_" gradientUnits="userSpaceOnUse" x1="331.7" y1="108.3556" x2="521.08" y2="108.3556" gradientTransform="matrix(1 0 0 -1 0 851.2756)">
						<stop  offset="0" style="stop-color:#1B1C1C"/>
						<stop  offset="0.52" style="stop-color:#202323"/>
						<stop  offset="0.53" style="stop-color:#1F2222"/>
						<stop  offset="0.73" style="stop-color:#171818"/>
						<stop  offset="1" style="stop-color:#151616"/>
					</linearGradient>
					<path style="fill:url(#SVGID_00000082369468735651643890000014400504493287105983_);" d="M367.1,636.4l-35.4,213.1h57.4
						l5.7-34.7h0l1.4-8.7l0.3-1.8l10.1-60.9h0l1.7-10.3l0.5-2.9l15.6-93.8H367.1z M455.2,759.8l65.9-70.1h-64.5l-40.2,47.6
						c-4.8,5.7-7.6,12.8-7.8,20.3l-1,28.1c-0.2,5.4,0.8,10.7,2.8,15.7l3,7.3l16.9,40.8h65.8l-40.9-89.6L455.2,759.8L455.2,759.8z"/>
					
						<linearGradient id="SVGID_00000150087940169828567240000011081541691011511957_" gradientUnits="userSpaceOnUse" x1="454.76" y1="1.8056" x2="454.76" y2="91.3856" gradientTransform="matrix(1 0 0 -1 0 851.2756)">
						<stop  offset="0" style="stop-color:#1B1C1C"/>
						<stop  offset="5.000000e-02" style="stop-color:#1C1D1D"/>
						<stop  offset="0.28" style="stop-color:#202323"/>
						<stop  offset="0.34" style="stop-color:#1C1E1E"/>
						<stop  offset="0.51" style="stop-color:#161717"/>
						<stop  offset="1" style="stop-color:#151616"/>
					</linearGradient>
					<path style="fill:url(#SVGID_00000150087940169828567240000011081541691011511957_);" d="M496.1,849.5h-65.8l-16.9-40.8
						c0.2-1.8,0.4-3.7,0.6-5.6c3.4-29.3,26.7-39.5,41.3-43.1L496.1,849.5L496.1,849.5z"/>
				</g>
				<g>
					
						<linearGradient id="SVGID_00000084521891576603994600000010994281169181383352_" gradientUnits="userSpaceOnUse" x1="1227.7" y1="108.3556" x2="1417.08" y2="108.3556" gradientTransform="matrix(1 0 0 -1 0 851.2756)">
						<stop  offset="0" style="stop-color:#1B1C1C"/>
						<stop  offset="0.52" style="stop-color:#202323"/>
						<stop  offset="0.53" style="stop-color:#1F2222"/>
						<stop  offset="0.73" style="stop-color:#171818"/>
						<stop  offset="1" style="stop-color:#151616"/>
					</linearGradient>
					<path style="fill:url(#SVGID_00000084521891576603994600000010994281169181383352_);" d="M1263.1,636.4l-35.4,213.1h57.4
						l5.7-34.7h0l1.4-8.7l0.3-1.8l10.1-60.9h0l1.7-10.3l0.5-2.9l15.6-93.8H1263.1L1263.1,636.4z M1351.2,759.8l65.9-70.1h-64.5
						l-40.2,47.6c-4.8,5.7-7.6,12.8-7.8,20.3l-1,28.1c-0.2,5.4,0.8,10.7,2.8,15.7l3.1,7.3l16.9,40.8h65.8l-40.8-89.6L1351.2,759.8z"
						/>
					
						<linearGradient id="SVGID_00000058553590243475654330000003993716288153191811_" gradientUnits="userSpaceOnUse" x1="1350.7599" y1="1.8056" x2="1350.7599" y2="91.3856" gradientTransform="matrix(1 0 0 -1 0 851.2756)">
						<stop  offset="0" style="stop-color:#1B1C1C"/>
						<stop  offset="5.000000e-02" style="stop-color:#1C1D1D"/>
						<stop  offset="0.28" style="stop-color:#202323"/>
						<stop  offset="0.34" style="stop-color:#1C1E1E"/>
						<stop  offset="0.51" style="stop-color:#161717"/>
						<stop  offset="1" style="stop-color:#151616"/>
					</linearGradient>
					<path style="fill:url(#SVGID_00000058553590243475654330000003993716288153191811_);" d="M1392.1,849.5h-65.8l-16.9-40.8
						c0.2-1.8,0.4-3.7,0.6-5.6c3.4-29.3,26.7-39.5,41.3-43.1L1392.1,849.5L1392.1,849.5z"/>
				</g>
				
					<linearGradient id="SVGID_00000037663864383109370380000010593096561054042296_" gradientUnits="userSpaceOnUse" x1="587.4607" y1="161.4256" x2="587.4607" y2="-1.1044" gradientTransform="matrix(1 0 0 -1 0 851.2756)">
					<stop  offset="0" style="stop-color:#1B1C1C"/>
					<stop  offset="7.000000e-02" style="stop-color:#1C1D1D"/>
					<stop  offset="0.47" style="stop-color:#202323"/>
					<stop  offset="0.61" style="stop-color:#1C1E1E"/>
					<stop  offset="1" style="stop-color:#151616"/>
				</linearGradient>
				<path style="fill:url(#SVGID_00000037663864383109370380000010593096561054042296_);" d="M666.3,797.9
					c-11.2,33.3-42.9,54.5-87.4,54.5c-51.2,0-77.4-30.8-68.7-82.4c7-41.9,34.6-71.9,72.9-80.1C534,710,533.9,765.5,560,796
					c2.6,3,5.1,5.5,7.6,7.6c3.6,5.1,9.8,8.2,18.5,8.4c3.6,0.3,6.9-0.2,9.9-1.1c7.3-1.8,13.5-5.9,17.3-12c0,0,0,0,0,0
					c0.5-0.6,0.7-0.9,0.7-0.9l1.1-0.1L666.3,797.9L666.3,797.9z"/>
				
					<linearGradient id="SVGID_00000015317436030783582130000016752888089644945343_" gradientUnits="userSpaceOnUse" x1="1135.2957" y1="161.2856" x2="1135.2957" y2="-1.2444" gradientTransform="matrix(1 0 0 -1 0 851.2756)">
					<stop  offset="0" style="stop-color:#1B1C1C"/>
					<stop  offset="7.000000e-02" style="stop-color:#1C1D1D"/>
					<stop  offset="0.47" style="stop-color:#202323"/>
					<stop  offset="0.61" style="stop-color:#1C1E1E"/>
					<stop  offset="1" style="stop-color:#151616"/>
				</linearGradient>
				<path style="fill:url(#SVGID_00000015317436030783582130000016752888089644945343_);" d="M1215,783c-10,47-44.5,69.5-89.1,69.5
					c-51.2,0-77.4-30.8-68.7-82.4c7-41.9,34.6-71.9,72.9-80.1c-72.2,43-13.7,108.9-11.2,111c3.6,5.1,10.6,9.8,24,6s19-24,19-24H1215
					z"/>
				
					<linearGradient id="SVGID_00000009570991280586921270000015218922526328872580_" gradientUnits="userSpaceOnUse" x1="842.7526" y1="112.0878" x2="770.8987" y2="183.9517" gradientTransform="matrix(1 0 0 -1 0 851.2756)">
					<stop  offset="0" style="stop-color:#1B1C1C"/>
					<stop  offset="0.11" style="stop-color:#1E2121"/>
					<stop  offset="0.47" style="stop-color:#202323"/>
					<stop  offset="0.7" style="stop-color:#181A1A"/>
					<stop  offset="1" style="stop-color:#151616"/>
				</linearGradient>
				<path style="fill:url(#SVGID_00000009570991280586921270000015218922526328872580_);" d="M873.6,689.7
					c-4.2,23.3-23.7,41.6-49.1,46.6l-0.4,2.1c5.9,0.2,11.5,1.2,16.4,3.1c-15.9,5.3-36.2,12-52.5,17.4c-2.2-0.3-4.6-0.5-7.2-0.5
					h-25.7l5.8-35.8h22c15,0,27-7.5,29.1-20.4c2.1-13.3-7.5-20.4-21.6-20.4h-24.6c0,0,0.2-16.7,26.2-31.7
					c15.1-8.7,37.8-13.2,59.2-5.5C869.4,653.5,877,669.2,873.6,689.7z"/>
				
					<linearGradient id="SVGID_00000026859854853802275430000018075680624044654271_" gradientUnits="userSpaceOnUse" x1="835.8275" y1="15.4634" x2="771.5084" y2="79.7825" gradientTransform="matrix(1 0 0 -1 0 851.2756)">
					<stop  offset="0" style="stop-color:#1B1C1C"/>
					<stop  offset="0.11" style="stop-color:#1E2121"/>
					<stop  offset="0.47" style="stop-color:#202323"/>
					<stop  offset="1" style="stop-color:#151616"/>
				</linearGradient>
				<path style="fill:url(#SVGID_00000026859854853802275430000018075680624044654271_);" d="M865.3,789.1
					c-5.8,35-38.7,60.3-84.9,60.3h-35.1c29.4-6.9,64.5-21.1,67.7-46.5c2-16-5.8-32.1-11-37.2c-3.4-3.4-3.4-3.4,0,0
					c-3-3.6-7.8-6-14.1-6.9c-0.8-0.1-1.6-0.2-2.5-0.3c6.1-8.5,18.5-21,38.6-20.3c3.3,0.1,6.8,0.5,10.4,1.5c0.4,0.1,0.8,0.2,1.1,0.3
					c0.1,0,0.1,0,0.2,0c0.5,0.1,1,0.3,1.5,0.4c0,0,0,0,0.1,0c1,0.3,2.1,0.6,3,1C858.5,748.3,869.2,765.6,865.3,789.1L865.3,789.1z"
					/>
			</g>
		</g>
	</g>
</g>
</svg>
